<?xml version="1.0" encoding="UTF-8"?>
<svg width="524px" height="147px" viewBox="0 0 524 147" version="1.1" xmlns="http://www.w3.org/2000/svg" xmlns:xlink="http://www.w3.org/1999/xlink">
    <!-- Generator: sketchtool 52.1 (67048) - http://www.bohemiancoding.com/sketch -->
    <title>88C3CE29-2980-432F-8049-31D12F59FC66invsion-</title>
    <desc>Created with sketchtool.</desc>
    <g id="ASSETS---BRANDING" stroke="none" stroke-width="1" fill="none" fill-rule="evenodd">
        <g id="*GUAVUS-/-LOGO-/-BLACK-/-A-THALES-COMPANY" transform="translate(-138.000000, -21.000000)">
            <g id="*GUAVUS-/-LOGO-/-BLACK-/-A-THALES-COMPANY-ALT" transform="translate(138.000000, 21.000000)">
                <g id="Group">
                    <g transform="translate(229.000000, 112.000000)" fill="#273846">
                        <path d="M13.1195977,11.6913087 L16.5631953,11.6913087 L14.7362435,26.4234783 L11.2910104,26.4234783 L11.4671544,24.8839043 C10.9118432,25.4952284 10.2433656,25.9942419 9.49831218,26.3536304 C8.63810179,26.6987312 7.71951584,26.8767951 6.79209223,26.8782196 C5.22659197,26.926391 3.70726344,26.3465088 2.57530415,25.2687978 C1.22366525,23.8292895 0.491769435,21.9201846 0.536288601,19.9501522 C0.502955667,17.5088031 1.42287622,15.1499075 3.10219249,13.370563 C4.53952213,11.9631366 6.50064804,11.2152102 8.51460181,11.3064 C9.45610036,11.28115 10.3882165,11.4981753 11.2208218,11.9364913 C11.886522,12.2944567 12.4629496,12.7967302 12.9075339,13.4062174 L13.1195977,11.6913087 Z M5.73833083,15.5409739 C4.67036452,16.6515043 4.07784245,18.1318667 4.0859487,19.6693 C4.06555661,20.8055826 4.48023479,21.9070131 5.24580311,22.75 C5.88741164,23.4408376 6.79678036,23.8231186 7.74154896,23.799163 C8.95084162,23.8213632 10.1174698,23.3543109 10.9746725,22.5048022 C11.9624765,21.396443 12.5013762,19.962204 12.4867539,18.4805174 C12.5197196,17.3319204 12.1039655,16.2153583 11.3269453,15.3657 C10.618482,14.6961216 9.66674591,14.3425451 8.69088342,14.3863848 C7.59260427,14.3703635 6.53206854,14.7850836 5.73833083,15.5409739 Z" id="Shape" fill-rule="nonzero"></path>
                        <polygon id="Path" points="42.5088427 6.44249565 40.0489249 26.4234783 36.4635132 26.4234783 38.9234464 6.44248043 33.5453365 6.44248043 33.9677674 3.08248043 48.3078855 3.08248043 47.8854547 6.44248043"></polygon>
                        <path d="M52.8798964,0.912815217 L56.3249767,0.912815217 L54.8129565,12.95 C55.2338661,12.5014936 55.7343403,12.1342178 56.2892098,11.8666435 C57.0762291,11.4818934 57.9441582,11.2898186 58.8207837,11.3064 C60.1152957,11.2323479 61.3841869,11.6868933 62.3345394,12.5651065 C63.2321988,13.5351634 63.7118524,14.8170658 63.6704461,16.1353957 C63.6233914,17.1555721 63.5177525,18.1722331 63.3540472,19.1803957 L62.4405254,26.4235087 L58.9954145,26.4235087 L59.944749,18.8296804 C60.0480746,18.1815391 60.1069205,17.5271416 60.1208777,16.8710348 C60.1695678,16.1760589 59.9275558,15.4919544 59.4521601,14.9807457 C58.9596216,14.5747239 58.3343315,14.3631624 57.6952899,14.3863239 C56.8792992,14.3500235 56.0824955,14.6394134 55.4816588,15.1902891 C54.5590086,16.3721457 54.0523423,17.8232796 54.0397355,19.3200761 L53.1605438,26.4235543 L49.7169461,26.4235543 L52.8798964,0.912815217 Z" id="Path"></path>
                        <path d="M82.3393453,11.6913087 L85.782943,11.6913087 L83.9558995,26.4234783 L80.5108192,26.4234783 L80.6869479,24.8839043 C80.1321919,25.4951986 79.4642091,25.9942225 78.7196036,26.3536304 C77.858832,26.6985845 76.9397899,26.8766393 76.011901,26.8782196 C74.4464514,26.9260667 72.9272397,26.3462312 71.7950977,25.2687978 C70.4434588,23.8292895 69.711563,21.9201846 69.7560821,19.9501522 C69.7227485,17.5088001 70.6426753,15.1499025 72.3220013,13.370563 C73.7594763,11.9633617 75.7204997,11.2154744 77.7344106,11.3064 C78.6759268,11.2809775 79.6080863,11.498013 80.4406306,11.9364913 C81.1067967,12.294384 81.6837282,12.7966505 82.1288407,13.4062174 L82.3393453,11.6913087 Z M74.9580632,15.5409739 C73.8900969,16.6515043 73.2975748,18.1318667 73.3056811,19.6693 C73.2852842,20.8055751 73.6999446,21.9070021 74.4654896,22.75 C75.1070982,23.4408376 76.0164669,23.8231186 76.9612355,23.799163 C78.1709627,23.8213262 79.3380412,23.3543099 80.195857,22.5048022 C81.1826236,21.3959256 81.7209066,19.9619075 81.7064404,18.4805174 C81.7394142,17.3319191 81.3236589,16.215354 80.5466319,15.3657 C79.8383425,14.6958541 78.8864924,14.3422332 77.9105852,14.3863848 C76.8123169,14.3703731 75.7517942,14.7850925 74.9580632,15.5409739 Z" id="Shape" fill-rule="nonzero"></path>
                        <polygon id="Path" points="97.7377492 0.912815217 94.5732858 26.4234783 91.1296881 26.4234783 94.2926689 0.9128"></polygon>
                        <path d="M115.524446,23.0634783 C114.845195,24.1894942 113.905586,25.137673 112.78385,25.8290717 C111.521989,26.5460852 110.08832,26.9086949 108.635722,26.8782348 C106.860619,26.9625571 105.133919,26.2876925 103.890517,25.0236152 C102.54493,23.6109175 101.823521,21.720645 101.887345,19.7748022 C101.847047,17.4152631 102.773472,15.1410973 104.453248,13.4760804 C105.883946,12.047154 107.839573,11.2632043 109.865658,11.3064152 C111.530523,11.2235863 113.152721,11.8467297 114.330231,13.0214152 C115.574792,14.442016 116.22822,16.2817409 116.157274,18.1654565 C116.158742,18.741672 116.099707,19.3164619 115.98113,19.8804565 L105.402552,19.8804565 C105.392577,20.9702478 105.779702,22.0267023 106.492203,22.854087 C107.131933,23.492754 108.011072,23.8355224 108.916308,23.7992239 C109.7474,23.7943763 110.561547,23.5647721 111.271723,23.1349543 C111.908789,22.6989842 112.437656,22.1241759 112.818134,21.4542087 L115.524446,23.0634783 Z M112.818241,17.0805478 C112.716056,16.3368729 112.412086,15.6350245 111.939049,15.0505478 C111.363007,14.5051699 110.589897,14.2149257 109.795576,14.245837 C108.887266,14.2422121 108.005599,14.551164 107.299815,15.1203957 C106.693571,15.6564993 106.223921,16.328317 105.929548,17.0805174 L112.818241,17.0805478 Z" id="Shape" fill-rule="nonzero"></path>
                        <path d="M129.342123,15.5751674 C129.195867,15.2136038 128.952647,14.8989938 128.639015,14.6656848 C128.344078,14.4218956 127.968073,14.2970153 127.585192,14.3156848 C127.146783,14.2942039 126.71743,14.4449602 126.389555,14.7355022 C126.1897,14.9427682 126.076575,15.2179958 126.073156,15.5052891 C126.064244,15.8382553 126.222681,16.1537223 126.495587,16.3464 C126.948854,16.6499927 127.43138,16.9078624 127.936013,17.116187 L128.919692,17.6051065 C129.606726,17.9190885 130.236322,18.3449972 130.782549,18.8652891 C131.543644,19.6938501 131.947764,20.78667 131.908012,21.9087674 C131.948159,23.2534802 131.411298,24.5516013 130.431759,25.4783261 C129.283922,26.4632153 127.796421,26.9652059 126.283631,26.8782043 C125.109955,26.9179759 123.953716,26.5871534 122.980334,25.9330674 C122.108549,25.2424562 121.470797,24.3019853 121.153305,23.238813 L124.140142,21.908813 C124.27113,22.4526685 124.551209,22.9496397 124.949176,23.3443609 C125.346652,23.692201 125.8605,23.8793396 126.389601,23.86895 C126.887214,23.8918889 127.375618,23.7298073 127.759884,23.4142087 C128.144387,23.0970312 128.353507,22.6160271 128.322616,22.1198478 C128.335494,21.6617216 128.157795,21.218632 127.831525,20.8953196 C127.410626,20.5424393 126.935989,20.2585114 126.425429,20.0541935 L125.476095,19.5652891 C124.867544,19.2659852 124.300569,18.8893408 123.789367,18.444787 C123.099393,17.7768261 122.728499,16.847485 122.76986,15.8902283 C122.760144,14.6714126 123.241289,13.4995244 124.105766,12.6364609 C125.08711,11.7098769 126.409613,11.2285156 127.759838,11.3064609 C128.667088,11.2715883 129.563078,11.5160219 130.325742,12.0064609 C131.030085,12.4948551 131.608538,13.1420389 132.013952,13.8952587 L129.342123,15.5751674 Z" id="Path"></path>
                        <path d="M161.155474,16.2751065 C160.643198,15.7435562 160.050376,15.2952606 159.398603,14.9465522 C158.733473,14.5742732 157.982305,14.3811682 157.219287,14.3863087 C155.816649,14.3453488 154.458001,14.876208 153.457762,15.8560348 C152.532255,16.8414216 152.028003,18.1465605 152.051651,19.4954261 C151.969848,20.6601669 152.399164,21.8030268 153.228587,22.628485 C154.05801,23.4539432 155.2061,23.8809489 156.375984,23.799087 C157.200988,23.7955101 158.015723,23.6166684 158.765744,23.274513 C159.398424,22.957069 159.969516,22.5303911 160.452472,22.0143152 L159.995711,25.86325 C158.671368,26.6439636 157.137165,26.9984483 155.602809,26.87825 C153.735629,26.9751959 151.912802,26.2903498 150.575474,24.9894522 C149.165841,23.569833 148.414471,21.6294212 148.502159,19.6351217 C148.464009,17.3682935 149.351752,15.1831461 150.962077,13.5801217 C152.578944,12.0292648 154.764438,11.2072849 157.007407,11.3064304 C158.634634,11.2550407 160.239565,11.6937332 161.612311,12.565137 L161.155474,16.2751065 Z" id="Path"></path>
                        <path d="M180.103461,13.265 C181.419661,14.6400661 182.139265,16.4756928 182.106633,18.374863 C182.1628,20.7170487 181.232421,22.9758659 179.54073,24.6044826 C177.92416,26.1777265 175.718232,27.0027069 173.46107,26.8781739 C171.495448,27.0120786 169.569313,26.2834689 168.188946,24.8838587 C166.842322,23.5120973 166.10736,21.6581997 166.149931,19.740563 C166.097771,17.4514481 167.002812,15.2435709 168.648827,13.6444196 C170.294842,12.0452684 172.533988,11.1984771 174.831307,11.3063543 C176.784244,11.2110272 178.690652,11.9192722 180.103461,13.265 Z M177.186782,22.3991478 C178.120382,21.3486852 178.622394,19.9867198 178.592878,18.5843913 C178.623262,17.4468964 178.207227,16.3423828 177.433069,15.5052587 C176.69811,14.7511604 175.675444,14.3442269 174.620878,14.3862478 C173.390174,14.3461317 172.192271,14.7854248 171.281769,15.6107609 C170.232032,16.6163525 169.64691,18.0094862 169.665199,19.4596957 C169.654935,20.5711075 170.041052,21.6501027 170.75485,22.5046957 C171.572363,23.3700648 172.725352,23.8418933 173.917831,23.7990565 C175.16013,23.8280389 176.353524,23.3169973 177.186782,22.3992087 L177.186782,22.3991478 Z" id="Shape" fill-rule="nonzero"></path>
                        <path d="M189.422221,11.6913087 L192.867332,11.6913087 L192.691203,13.0555174 C193.107028,12.5872086 193.593476,12.1861298 194.133111,11.8666587 C194.879422,11.4757807 195.714266,11.2828369 196.557216,11.3064152 C197.302045,11.2667653 198.040364,11.462882 198.666359,11.8666587 C199.291559,12.2549829 199.791937,12.8134871 200.108282,13.4760804 C200.558262,12.8529258 201.132457,12.3288252 201.79501,11.9365065 C202.546781,11.4871689 203.414756,11.2680347 204.290756,11.3064152 C205.56266,11.2303638 206.813238,11.6576645 207.770181,12.4952739 C208.697109,13.4332517 209.182378,14.7177458 209.106088,16.0313848 C209.075942,17.0275765 208.981711,18.0208216 208.823973,19.0050152 L207.910467,26.4234935 L204.465371,26.4234935 L205.380376,19.0050152 C205.486934,18.3211282 205.55719,17.632122 205.59085,16.9408674 C205.647333,16.2358937 205.434053,15.5357201 204.993773,14.9807304 C204.585138,14.5966053 204.043705,14.3837576 203.481707,14.3863087 C202.881383,14.3808558 202.302173,14.6066148 201.865137,15.0164 C200.948763,16.0788543 200.438635,17.4293265 200.424712,18.8296652 L199.475362,26.4234935 L196.030282,26.4234935 L196.979616,18.6900152 C197.078175,18.0762038 197.137005,17.4567204 197.155745,16.8353957 C197.206934,16.1526696 196.992645,15.4764658 196.557185,14.9465978 C196.160953,14.5695592 195.628716,14.3675733 195.080932,14.3863543 C194.396319,14.3698848 193.735244,14.6355113 193.253904,15.1204717 C192.439906,16.1879318 191.995739,17.4895022 191.988109,18.8297109 L191.03879,26.4234783 L187.595192,26.4234935 L189.422221,11.6913087 Z" id="Path"></path>
                        <path d="M217.547169,34.4364087 L214.103572,34.4364087 L216.91428,11.6913087 L220.359375,11.6913087 L220.148901,13.3007304 C220.596802,12.6847039 221.203922,12.2009477 221.905787,11.900837 C222.726203,11.5016317 223.628724,11.2981168 224.541848,11.3064152 C226.299891,11.2956572 227.991562,11.9741497 229.251149,13.195213 C230.497763,14.5613311 231.16529,16.3545635 231.114005,18.1995587 C231.11078,20.6212327 230.223835,22.9592455 228.618259,24.7784174 C226.476154,27.0151101 223.100434,27.5587266 220.359299,26.1084174 C219.751663,25.7268994 219.206457,25.2547746 218.742729,24.7085391 L217.547169,34.4364087 Z M220.781791,15.4711413 C219.70529,16.6306706 219.124896,18.1621304 219.163739,19.7406239 C219.104857,20.7986614 219.457679,21.83861 220.148901,22.6444065 C220.887011,23.3969012 221.903267,23.814394 222.959609,23.799087 C224.057471,23.8300597 225.117361,23.3977266 225.877786,22.6087522 C226.944698,21.4948575 227.547484,20.0195099 227.564498,18.4804413 C227.590065,17.3938681 227.215202,16.3355668 226.510675,15.5053196 C225.798667,14.7385619 224.780051,14.3282308 223.732815,14.3863087 C222.639531,14.3176907 221.567932,14.7116237 220.781791,15.4711413 Z" id="Shape" fill-rule="nonzero"></path>
                        <path d="M249.326189,11.6913087 L252.769787,11.6913087 L250.942759,26.4234783 L247.497663,26.4234783 L247.673792,24.8839043 C247.119045,25.4952018 246.451066,25.9942264 245.706463,26.3536304 C244.845686,26.6985846 243.926639,26.8766394 242.998745,26.8782196 C241.433296,26.9260632 239.914086,26.3462282 238.781942,25.2687978 C237.430303,23.8292895 236.698407,21.9201846 236.742926,19.9501522 C236.709593,17.5088031 237.629514,15.1499075 239.30883,13.370563 C240.746311,11.9633712 242.70733,11.2154856 244.721239,11.3064 C245.662756,11.2809762 246.594916,11.4980117 247.427459,11.9364913 C248.093625,12.294384 248.670557,12.7966505 249.115669,13.4062174 L249.326189,11.6913087 Z M241.944923,15.5409739 C240.876945,16.6514984 240.284417,18.1318634 240.292525,19.6693 C240.272148,20.805549 240.686807,21.9069453 241.452334,22.7499239 C242.093942,23.4407615 243.003311,23.8230425 243.94808,23.799087 C245.15781,23.8212455 246.324892,23.3542302 247.182716,22.5047261 C248.169477,21.3958457 248.707759,19.9618301 248.6933,18.4804413 C248.726266,17.3318443 248.310511,16.2152822 247.533491,15.3656239 C246.825194,14.6957803 245.873341,14.34216 244.897429,14.3863087 C243.799155,14.3703166 242.738635,14.7850642 241.944923,15.5409739 Z" id="Shape" fill-rule="nonzero"></path>
                        <path d="M259.909246,11.6913087 L263.352843,11.6913087 L263.178197,13.0213087 C263.574923,12.528895 264.080006,12.1338347 264.654451,11.8666283 C265.440941,11.4818932 266.308382,11.2898127 267.184526,11.3063848 C268.479525,11.2320751 269.748978,11.686628 270.69978,12.5650913 C271.596497,13.5075288 272.077024,14.7680836 272.034158,16.0655326 C271.988688,17.1089147 271.883561,18.1488714 271.719288,19.18035 L270.804283,26.423463 L267.360686,26.423463 L268.308522,18.8296348 C268.411857,18.1814943 268.470708,17.5270965 268.484666,16.8709891 C268.533936,16.1762054 268.292452,15.4920619 267.817447,14.9807 C267.324779,14.5748979 266.699571,14.363366 266.060561,14.3862783 C265.244085,14.349737 264.446726,14.6391326 263.845432,15.1902435 C262.923943,16.3726283 262.417884,17.8235278 262.405007,19.3200304 L261.525815,26.4235087 L258.080674,26.4235087 L259.909246,11.6913087 Z" id="Path"></path>
                        <polygon id="Path" points="282.935218 23.6935848 277.839208 11.6913087 281.915711 11.6913087 285.25482 19.9843457 290.420958 11.6913087 294.358627 11.6913087 279.772176 34.4364087 275.906163 34.4364087"></polygon>
                    </g>
                    <g>
                        <g fill="#273846">
                            <path d="M98.9700269,2.51293182 C100.346769,2.27399168 101.735275,2.10828789 103.12966,2.01652273 C104.682561,1.90668333 106.013395,1.85103273 107.122163,1.84957091 C108.340499,1.84957091 109.726142,1.90521136 111.279094,2.01649227 C112.673961,2.10868867 114.062967,2.27438956 115.440299,2.51290136 L115.440299,49.154662 C115.335544,53.6015418 115.839722,58.0418751 116.938869,62.3526723 C117.708122,65.4277044 119.253378,68.2551255 121.427543,70.5657911 C123.452614,72.5763241 125.980778,74.0085418 128.748882,74.7133652 C132.010247,75.5371698 135.366104,75.9290748 138.729986,75.8789825 C143.617412,75.9801339 148.49322,75.3643572 153.201245,74.0513748 L153.201245,2.51293182 C154.550884,2.27730764 155.911853,2.11161582 157.278679,2.01652273 C158.775956,1.90670364 160.13419,1.85106318 161.353381,1.84960136 C162.571732,1.84960136 163.93368,1.90670364 165.429533,2.01652273 C166.795929,2.11161192 168.156466,2.27730391 169.505669,2.51293182 L169.505669,85.0086005 C165.620517,86.1158161 160.990999,87.1663964 155.617115,88.1603414 C150.101536,89.1687077 144.504687,89.6687459 138.897299,89.6541368 C133.73438,89.6790504 128.581061,89.2076806 123.508741,88.2465582 C118.866178,87.3876082 114.500347,85.4221985 110.782847,82.5176166 C106.880121,79.3089428 103.895757,75.1289551 102.131534,70.4003316 C100.023873,65.2012331 98.9700218,58.340022 98.9699811,49.8166982 L98.9700269,2.51293182 Z" id="Path"></path>
                            <path d="M267.00844,2.51293182 C268.558666,2.29317182 270.167379,2.12770212 271.834579,2.01652273 C273.496286,1.90670364 274.992505,1.85106318 276.323238,1.84960136 C277.761997,1.84960136 279.345483,1.90670364 281.063011,2.01652273 C282.542205,2.10018564 284.015586,2.26591154 285.476323,2.51293182 L315.695872,72.7243636 L346.085238,2.51293182 C347.461102,2.27415227 348.848705,2.1084492 350.242185,2.01652273 C351.79241,1.90670364 353.289576,1.85106318 354.733682,1.84960136 C355.954887,1.84960136 357.340531,1.90524182 358.890613,2.01652273 C360.443565,2.12776303 361.996512,2.29323273 363.549454,2.51293182 L323.348907,87.6623182 C321.90475,87.8847785 320.462389,88.0507558 319.021823,88.16025 C317.577646,88.2687748 316.250525,88.3271714 315.029473,88.3271714 C313.808421,88.3271714 312.506283,88.2687748 311.120634,88.16025 C309.73498,88.0490097 308.376273,87.8830324 307.044513,87.6623182 L267.00844,2.51293182 Z" id="Path"></path>
                            <path d="M374.068638,2.51293182 C375.443583,2.27414124 376.830278,2.10843779 378.222853,2.01652273 C379.775785,1.90670364 381.107515,1.85106318 382.218042,1.84960136 C383.436388,1.84960136 384.822988,1.90524182 386.377843,2.01652273 C387.771286,2.1087885 389.158866,2.27448943 390.534775,2.51293182 L390.534775,49.154662 C390.431076,53.6014101 390.934759,58.0415379 392.03194,62.3526723 C392.804483,65.4270236 394.350402,68.2538811 396.523438,70.5657911 C398.547903,72.5757174 401.075028,74.0078748 403.842075,74.7133652 C407.104439,75.5368155 410.461157,75.9287131 413.825927,75.8789825 C418.713819,75.9800351 423.590086,75.3642615 428.29862,74.0513748 L428.29862,2.51293182 C429.647835,2.27738244 431.008368,2.11169095 432.374757,2.01652273 C433.869033,1.90670364 435.22865,1.85106318 436.45361,1.84960136 C437.669092,1.84960136 439.029773,1.90670364 440.526938,2.01652273 C441.892396,2.11168715 443.251995,2.27737897 444.600267,2.51293182 L444.600267,85.0086005 C440.719408,86.1158161 436.090363,87.1663964 430.713132,88.1603414 C425.196635,89.1690273 419.598809,89.6690675 413.990462,89.6541368 C408.82804,89.6786518 403.67524,89.207285 398.603353,88.2465582 C393.961142,87.3878603 389.595714,85.4224128 385.878879,82.5176166 C381.976572,79.3085564 378.9923,75.1286891 377.227581,70.4003316 C375.1199,65.2012331 374.066944,58.340022 374.068714,49.8166982 L374.068638,2.51293182 Z" id="Path"></path>
                            <path d="M466.745545,72.2279545 C473.314395,74.8212685 480.309757,76.1716399 487.374031,76.2100386 C489.837765,76.2218889 492.294292,75.9436099 494.692653,75.3809745 C496.843238,74.9022144 498.89598,74.0602032 500.762203,72.8913155 C502.42169,71.843789 503.840257,70.4577825 504.924705,68.8243545 C505.975868,67.221646 506.525157,65.3430487 506.50262,63.4278091 C506.575908,61.5242697 506.145099,59.6350771 505.253593,57.9505591 C504.418416,56.5109107 503.2844,55.2660585 501.927581,54.2994702 C500.432716,53.24669 498.812551,52.3832895 497.104311,51.7291066 C495.275297,51.0085673 493.301388,50.3160157 491.19916,49.652533 L485.375078,47.4952243 C478.276692,44.8386946 473.119788,41.8511037 469.904366,38.5324516 C466.559885,34.8740284 464.822859,30.0317589 465.081112,25.0867698 C464.801251,18.1787575 467.788928,11.5405701 473.149584,7.15979295 C478.5277,2.73698083 486.42898,0.524625606 496.853425,0.522727273 C501.126775,0.516233235 505.390183,0.933696841 509.580738,1.76895773 C513.278208,2.47564716 516.920297,3.44523431 520.479142,4.67030136 C520.24707,6.91422679 519.829297,9.13514431 519.2301,11.3103211 C518.659978,13.4176898 517.90907,15.4721717 516.985695,17.4510082 C514.121393,16.4414653 511.205677,15.5834837 508.250717,14.8806445 C504.681661,14.0279244 501.02226,13.6094697 497.352389,13.6344141 C493.60707,13.562486 489.890396,14.2988691 486.456792,15.7931541 C483.400476,17.0628447 481.493565,20.1331671 481.714318,23.4290223 C481.663242,25.1087572 482.066808,26.7711827 482.882565,28.2414343 C483.675571,29.5907679 484.753473,30.7516869 486.041401,31.6435573 C487.459867,32.6324707 488.99683,33.4403254 490.61644,34.0482786 C492.331115,34.7159641 494.193537,35.3793859 496.189712,36.0415286 L503.50835,38.532543 C506.107013,39.393676 508.637263,40.448119 511.077797,41.6869943 C513.378277,42.8424145 515.460995,44.3863448 517.233757,46.2504405 C519.020494,48.1866553 520.430174,50.4379605 521.390689,52.8891964 C522.516488,55.8851406 523.054167,59.0691904 522.974419,62.2677955 C523.02244,66.1450497 522.168291,69.9805582 520.479142,73.4726927 C518.81216,76.8498319 516.392637,79.8015222 513.405882,82.1016989 C510.091912,84.6159757 506.342862,86.5008856 502.345703,87.6624248 C497.702854,89.0358045 492.879927,89.7071701 488.037622,89.654152 C483.356059,89.7061502 478.679058,89.3449789 474.061267,88.5748582 C470.274926,87.9093982 466.549013,86.938187 462.920279,85.6708041 C463.154293,83.3873422 463.628054,81.1347216 464.333765,78.9500189 C465.05039,76.6828505 465.854317,74.4421624 466.745545,72.2279545 Z" id="Path"></path>
                            <path d="M278.606621,86.3382916 C277.053832,86.555199 275.446076,86.7202677 273.783352,86.8334977 C272.116202,86.9418855 270.624637,87.000282 269.289108,87.000282 C267.850516,87.000282 266.269717,86.9418855 264.549472,86.8334977 C263.07223,86.7487154 261.600741,86.5833999 260.141593,86.3382916 L229.918076,16.1241645 L199.529961,86.3382916 C198.153871,86.5752314 196.766349,86.7405239 195.37303,86.8334977 C193.821365,86.9418855 192.32281,87.000282 190.884219,87.000282 C189.660236,87.000282 188.274648,86.9418855 186.723136,86.8334977 C185.170194,86.7221255 183.617725,86.5570567 182.06573,86.3382916 L222.269116,1.18756523 C223.708999,0.964962803 225.150363,0.798518561 226.593208,0.6882325 C228.036093,0.5796925 229.366922,0.524524091 230.585695,0.522727273 C231.805486,0.522727273 233.108432,0.577895682 234.494534,0.6882325 C235.884319,0.799467727 237.237995,0.964957727 238.569251,1.18756523 L278.606621,86.3382916 Z" id="Path"></path>
                            <path d="M62.7424172,1.51859091 C57.450079,0.799057687 52.1121304,0.466217448 46.7711846,0.522727273 C40.2090311,0.42653539 33.6887678,1.58074528 27.56029,3.92341886 C22.0676066,6.04633515 17.1007855,9.33077597 13.0012464,13.5509686 C8.93609452,17.8195152 5.793559,22.8760981 3.76866352,28.4069091 C1.55353404,34.467526 0.455028203,40.8778445 0.526162791,47.3284857 C0.319138996,54.1632293 1.50769737,60.9685648 4.01954942,67.3305895 C6.09215295,72.3450815 9.31054577,76.80694 13.4180109,80.3602623 C17.4060997,83.7071186 22.096669,86.117529 27.1434186,87.413535 C32.5184432,88.8185807 38.0544669,89.5166789 43.6108372,89.4900934 C46.5296052,89.5070979 49.4465524,89.3407918 52.3443801,88.9921616 C54.7780707,88.6852283 57.19431,88.2534865 59.5835044,87.6986505 L59.5835044,91.2147191 C59.6875455,95.6611442 59.1833825,100.100958 58.0849499,104.41145 C57.3148764,107.486464 55.7691722,110.313796 53.5948416,112.624554 C51.5706846,114.635893 49.042818,116.068639 46.2747849,116.773422 C43.0132909,117.596528 39.6575257,117.988417 36.2936802,117.939024 C27.2584134,118.039686 18.3465707,115.840549 10.3999629,111.549341 C9.77052188,112.762823 9.20425454,114.007902 8.70341933,115.279612 C8.15141642,116.671963 7.69234157,117.948333 7.32619477,119.108722 C6.95819113,120.270061 6.60831831,121.583154 6.26259666,123.040663 C5.94543883,124.369816 5.69648773,125.714255 5.51671512,127.068734 C9.40184738,128.177279 14.0318438,129.227859 19.4067042,130.220475 C24.9223658,131.228199 30.5191501,131.728232 36.1265044,131.71427 C41.2891044,131.738848 46.4420436,131.266503 51.5137355,130.303798 C56.1564144,129.446123 60.5224071,127.481115 64.2395523,124.576273 C68.1420023,121.367908 71.1262855,117.188398 72.8906977,112.460282 C74.9984913,107.262605 76.0523932,100.401439 76.0524033,91.8767857 L76.0524033,4.34058523 C71.6763273,3.13506103 67.2316729,2.1927017 62.7424172,1.51859091 Z M52.5117391,75.2141293 C49.7909798,75.6661546 47.0368747,75.8885596 44.2786708,75.8789825 C40.6734792,75.9186588 37.0829455,75.4150154 33.6284658,74.3850805 C30.483849,73.4312214 27.6075021,71.7542943 25.2308009,69.4891925 C22.7311805,67.0457258 20.8248584,64.0641577 19.6576817,60.7725991 C18.2332623,56.6658311 17.5571615,52.337812 17.6613692,47.9933236 C17.6080161,43.3918628 18.2241057,38.8070233 19.4903837,34.3820909 C20.5867958,30.5254062 22.4226994,26.91758 24.8963423,23.7585709 C27.3152851,20.744384 30.4241781,18.3537037 33.9616424,16.7875255 C38.0035847,15.0521399 42.3719295,14.2031096 46.7711846,14.2978664 C47.9923692,14.2978664 49.0741032,14.3256866 50.0163866,14.381327 C50.9573728,14.4398607 51.9010756,14.4926993 52.8449157,14.5482484 C53.7871991,14.6039396 54.7857624,14.7147485 55.8406054,14.880675 C56.8526802,15.0379118 58.1031417,15.2770409 59.5835654,15.5915145 L59.5835654,73.7592548 C57.4061126,74.297478 55.0544331,74.7842939 52.5117391,75.2141293 Z" id="Shape" fill-rule="nonzero"></path>
                        </g>
                        <path d="M238.793643,78.5507445 C238.797916,81.9653444 236.739467,85.0460247 233.578757,86.3553562 C230.418047,87.6646878 226.778015,86.944617 224.35708,84.5311249 C221.936146,82.1176329 221.211447,78.4863903 222.521123,75.3317159 C223.8308,72.1770415 226.916731,70.1206841 230.339037,70.1221293 C235.002702,70.1292618 238.782646,73.8975859 238.793643,78.5507445 Z" id="Path" fill="#F48220"></path>
                    </g>
                </g>
            </g>
        </g>
    </g>
</svg>