<?xml version="1.0" encoding="UTF-8"?>
<svg width="504px" height="141px" viewBox="0 0 504 141" version="1.1" xmlns="http://www.w3.org/2000/svg" xmlns:xlink="http://www.w3.org/1999/xlink">
    <!-- Generator: sketchtool 52.1 (67048) - http://www.bohemiancoding.com/sketch -->
    <title>0282188D-1AA2-4D2B-BF23-89F84C5BD3F9</title>
    <desc>Created with sketchtool.</desc>
    <defs>
        <polygon id="path-1" points="0.299517241 0.548533333 41.5735862 0.548533333 41.5735862 21.912 0.299517241 21.912"></polygon>
        <polygon id="path-3" points="0.32904 0.548533333 34.78196 0.548533333 34.78196 21.912 0.32904 21.912"></polygon>
    </defs>
    <g id="ASSETS---BRANDING" stroke="none" stroke-width="1" fill="none" fill-rule="evenodd">
        <g id="*GUAVUS-/-LOGO-/-WHITE-/-A-THALES-COMPANY" transform="translate(-62.000000, -371.000000)">
            <g id="*GUAVUS-/-LOGO-/-WHITE-/-A-THALES-COMPANY-ALT" transform="translate(62.000000, 371.000000)">
                <g>
                    <path d="M230,75.9898953 C230,80.4085168 226.416058,84 222.003608,84 C217.583942,84 214,80.4085168 214,75.9898953 C214,71.5828221 217.583942,68 222.003608,68 C226.416058,68 230,71.5828221 230,75.9898953" id="Fill-1" fill="#E67A2B"></path>
                    <path d="M95,2.64269982 C96.1755593,2.43043199 97.5100177,2.26975704 99.0107317,2.16214904 C100.508503,2.05601512 101.789995,2 102.859622,2 C104.03371,2 105.36964,2.05601512 106.867411,2.16214904 C108.363711,2.26975704 109.699641,2.43043199 110.878143,2.64269982 L110.878143,47.7938366 C110.878143,52.9369093 111.357783,57.1940586 112.322948,60.5711808 C113.283699,63.9438808 114.727033,66.5942806 116.650006,68.520906 C118.575923,70.4519536 120.927041,71.7904202 123.709247,72.5363058 C126.48704,73.2910358 129.694448,73.6654527 133.331473,73.6654527 C138.781124,73.6654527 143.433338,73.0743458 147.280756,71.89508 L147.280756,2.64269982 C148.457787,2.43043199 149.768705,2.26975704 151.212039,2.16214904 C152.655372,2.05601512 153.964819,2 155.140378,2 C156.315938,2 157.628327,2.05601512 159.070189,2.16214904 C160.514994,2.26975704 161.822969,2.43043199 163,2.64269982 L163,82.5025753 C159.2541,83.5757071 154.790212,84.5898757 149.609806,85.5539254 C144.419101,86.5194492 139.047427,87 133.491843,87 C128.251114,87 123.306115,86.5445086 118.656844,85.6379481 C114.007573,84.7269653 109.91592,82.8769922 106.389242,80.0909769 C102.859622,77.3079098 100.078887,73.3971698 98.0485092,68.3617051 C96.0166602,63.3277145 95,56.6869743 95,48.4350623 L95,2.64269982" id="Fill-2" fill="#FFFFFE"></path>
                    <path d="M257,2.63720242 C258.493692,2.42675025 260.043251,2.26744964 261.650147,2.16076208 C263.251162,2.05553599 264.691928,2 265.972446,2 C267.360286,2 268.884853,2.05553599 270.540264,2.16076208 C272.197145,2.26744964 273.612919,2.42675025 274.790525,2.63720242 L303.901356,70.0242816 L333.175377,2.63720242 C334.350043,2.42675025 335.684957,2.26744964 337.18012,2.16076208 C338.673812,2.05553599 340.116049,2 341.506829,2 C342.682965,2 344.017879,2.05553599 345.511572,2.16076208 C347.006734,2.26744964 348.503367,2.42675025 350,2.63720242 L311.274258,84.3613361 C309.882007,84.5747112 308.494167,84.7325504 307.106326,84.8392379 C305.715546,84.944464 304.435028,85 303.260362,85 C302.084227,85 300.828702,84.944464 299.493787,84.8392379 C298.160343,84.7325504 296.848952,84.5747112 295.566964,84.3613361 L257,2.63720242" id="Fill-3" fill="#FFFFFE"></path>
                    <path d="M360,2.64269982 C361.172693,2.43043199 362.510181,2.26975704 364.005107,2.16214904 C365.501504,2.05601512 366.78455,2 367.857189,2 C369.032825,2 370.36737,2.05601512 371.868181,2.16214904 C373.361636,2.26975704 374.697652,2.43043199 375.874759,2.64269982 L375.874759,47.7938366 C375.874759,52.9369093 376.355902,57.1940586 377.319658,60.5711808 C378.283414,63.9438808 379.726842,66.5942806 381.648469,68.520906 C383.577453,70.4519536 385.925782,71.7904202 388.705226,72.5363058 C391.487612,73.2910358 394.6967,73.6654527 398.331018,73.6654527 C403.783966,73.6654527 408.432068,73.0743458 412.282679,71.89508 L412.282679,2.64269982 C413.461257,2.43043199 414.770789,2.26975704 416.212745,2.16214904 C417.654701,2.05601512 418.962761,2 420.145754,2 C421.318446,2 422.630921,2.05601512 424.072877,2.16214904 C425.516304,2.26975704 426.822893,2.43043199 428,2.64269982 L428,82.5025753 C424.258271,83.5757071 419.794093,84.5898757 414.610408,85.5539254 C409.420837,86.5194492 404.051758,87 398.488456,87 C393.253273,87 388.306481,86.5445086 383.653965,85.6379481 C379.004393,84.7269653 374.913946,82.8769922 371.385567,80.0909769 C367.857189,77.3079098 365.077745,73.3971698 363.045764,68.3617051 C361.013783,63.3277145 360,56.6869743 360,48.4350623 L360,2.64269982" id="Fill-4" fill="#FFFFFE"></path>
                    <path d="M449.695197,70.1861141 C452.58709,71.3614993 455.7723,72.2929921 459.253774,72.9879386 C462.7323,73.6814159 466.187243,74.0281546 469.617128,74.0281546 C472.081576,74.0281546 474.43695,73.7651621 476.684727,73.2288926 C478.936925,72.6955616 480.886963,71.8933611 482.548107,70.8252298 C484.20925,69.7585677 485.547598,68.4509516 486.567573,66.9023815 C487.583126,65.3538115 488.093113,63.618649 488.093113,61.6954249 C488.093113,59.5621007 487.690724,57.800492 486.884473,56.410599 C486.079695,55.0251136 485.012554,53.8482591 483.672732,52.8873817 C482.331436,51.9279735 480.78526,51.1007961 479.015044,50.4073188 C477.247776,49.7123723 475.341957,49.0438719 473.310851,48.403287 L467.687726,46.3213859 C460.830902,43.759046 455.851893,40.8778829 452.744803,37.6749581 C449.639187,34.4705641 448.087116,30.1466156 448.087116,24.7001743 C448.087116,17.4407011 450.682745,11.6769057 455.879898,7.40438036 C461.07263,3.13626268 468.704752,1 478.771842,1 C482.950496,1 487.049555,1.39816175 491.0646,2.20330065 C495.082592,3.00109338 498.586175,3.93699388 501.590089,5.00218676 C501.368996,7.14138791 500.971029,9.27471213 500.382922,11.4080364 C499.793342,13.5472375 499.072579,15.5218847 498.216213,17.3334472 C495.859365,16.4798237 493.047065,15.6541156 489.779314,14.8533844 C486.508615,14.0511839 483.005032,13.6500837 479.253825,13.6500837 C475.290368,13.6500837 471.785311,14.3464995 468.732757,15.7334541 C465.680203,17.1233471 464.150241,19.5754946 464.150241,23.1016503 C464.150241,24.9161513 464.526099,26.4632521 465.279288,27.744422 C466.026582,29.0241227 467.043609,30.1216387 468.330368,31.0281546 C469.617128,31.9376089 471.08371,32.7089555 472.749276,33.3480712 C474.404524,33.9915946 476.204219,34.6321796 478.132147,35.2712953 L485.20122,37.6749581 C487.768844,38.5300509 490.205286,39.5438207 492.510546,40.7177367 C494.812859,41.8945912 496.795324,43.3579458 498.456468,45.1210237 C500.114663,46.8826323 501.453011,49.018895 502.470038,51.5268733 C503.491487,54.0363208 504,57.0526532 504,60.5758704 C504,64.5266341 503.195222,68.1321283 501.590089,71.3864762 C499.980534,74.6452318 497.704752,77.4206102 494.758323,79.7126115 C491.816315,82.0104896 488.253774,83.795606 484.076595,85.0782451 C479.894994,86.3608843 475.290368,87 470.258297,87 C465.11568,87 460.618653,86.6547306 456.761321,85.9583148 C452.908412,85.2633683 449.314917,84.3318755 446,83.1564902 C446.209301,81.0216968 446.6677,78.8619264 447.366353,76.6713021 C448.057637,74.4836164 448.832935,72.3223767 449.695197,70.1861141" id="Fill-5" fill="#FFFFFE"></path>
                    <g id="Group-9" fill="#FFFFFE">
                        <path d="M267.837273,83.4648276 C266.342339,83.6752184 264.791546,83.8355862 263.190776,83.9429885 C261.585596,84.0489195 260.149459,84.1048276 258.863257,84.1048276 C257.477098,84.1048276 255.954235,84.0489195 254.297607,83.9429885 C252.643918,83.8355862 251.228361,83.6752184 250.052404,83.4648276 L220.943077,15.6248276 L191.673525,83.4648276 C190.500508,83.6752184 189.165798,83.8355862 187.669393,83.9429885 C186.174459,84.0489195 184.730973,84.1048276 183.346284,84.1048276 C182.167388,84.1048276 180.832678,84.0489195 179.337743,83.9429885 C177.842809,83.8355862 176.347874,83.6752184 174.85294,83.4648276 L213.57424,1.1931954 C214.961869,0.97691954 216.350967,0.818022989 217.740066,0.71062069 C219.129164,0.604689655 220.412426,0.550252874 221.585443,0.550252874 C222.759929,0.550252874 224.013792,0.604689655 225.349973,0.71062069 C226.689093,0.818022989 227.991464,0.97691954 229.274727,1.1931954 L267.837273,83.4648276" id="Fill-6"></path>
                        <path d="M50.0707486,72.7172414 C47.560082,73.143908 44.9171202,73.3601839 42.1403934,73.3601839 C38.3993825,73.3601839 34.9832295,72.8790805 31.8831148,71.9154023 C28.783,70.9546667 26.0885902,69.376 23.7940055,67.1852874 C21.4950109,64.9931034 19.7090273,62.1874023 18.427235,58.7637701 C17.1439727,55.3445517 16.5030765,51.227954 16.5030765,46.4169195 C16.5030765,41.6044138 17.0881148,37.2229885 18.265541,33.2652874 C19.4400273,29.3105287 21.1730929,25.8883678 23.4720874,23.0002759 C25.7681421,20.1136552 28.6801038,17.869977 32.2035628,16.2648276 C35.7299617,14.6626207 39.8413989,13.8593103 44.5422842,13.8593103 C45.7182404,13.8593103 46.7589617,13.8887356 47.667388,13.9402299 C48.5728743,13.9961379 49.4827705,14.0476322 50.3911967,14.102069 C51.299623,14.1550345 52.2594973,14.2609655 53.2766995,14.4228046 C54.2512732,14.5743448 55.4566284,14.8053333 56.8824754,15.1098851 L56.8824754,71.3107126 C54.7848634,71.8315402 52.5196776,72.3008736 50.0707486,72.7172414 Z M59.9252623,1.51245977 C55.6491913,0.870988506 50.5249617,0.550252874 44.5422842,0.550252874 C37.7040984,0.550252874 31.5347377,1.64634483 26.038612,3.83558621 C20.5336667,6.02924138 15.8621803,9.1291954 12.0153333,13.1383908 C8.16995628,17.1475862 5.20654645,21.9350805 3.12216393,27.492046 C1.04072131,33.051954 0,39.1474023 0,45.773977 C0,53.4716322 1.12156831,59.9157701 3.36470492,65.1005057 C5.60784153,70.2881839 8.62563934,74.4827586 12.4166284,77.6886437 C16.2076175,80.896 20.6130437,83.1691034 25.6373169,84.5035402 C30.6557104,85.8409195 35.9431038,86.5103448 41.4980273,86.5103448 C44.5966721,86.5103448 47.3998579,86.349977 49.9105246,86.0292414 C52.3609235,85.7143908 54.6849071,85.2950805 56.8824754,84.7801379 L56.8824754,88.1772874 C56.8824754,93.3105287 56.4018033,97.5565977 55.4389891,100.927264 C54.4776448,104.294989 53.0341585,106.940322 51.1144098,108.863264 C49.1902514,110.790621 46.8412787,112.126529 44.0645519,112.870989 C41.2863552,113.622805 38.0833443,113.997977 34.4496393,113.997977 C19.2959727,113.927356 9.51054645,107.824552 9.51054645,107.824552 C8.95784699,108.879448 8.41102732,110.084414 7.87596721,111.429149 C7.34384699,112.773885 6.8999235,114.009747 6.54860656,115.129379 C6.19581967,116.250483 5.85773224,117.520184 5.52552459,118.928184 C5.19772678,120.336184 4.95665574,121.630897 4.80672131,122.819678 C8.54920219,123.890759 13.0075464,124.900046 18.1861639,125.863724 C23.3706612,126.827402 28.7389016,127.308506 34.2894153,127.308506 C39.5238907,127.308506 44.4629071,126.850943 49.1094044,125.944644 C53.7559016,125.039816 57.8423497,123.190437 61.3672787,120.409747 C64.8922077,117.632 67.6718743,113.728736 69.698929,108.704368 C71.7289235,103.681471 72.7446557,97.051954 72.7446557,88.8172874 L72.7446557,4.23871264 C68.4700546,3.06170115 64.1954536,2.15245977 59.9252623,1.51245977 Z" id="Fill-8"></path>
                    </g>
                    <path d="M226.868682,123.806419 C225.981169,124.625432 225.322597,126.041641 225.322597,127.520414 C225.322597,128.683526 225.783449,129.66037 226.409316,130.287426 C226.999504,130.886045 227.757681,131.232988 228.744797,131.232988 C230.191278,131.232988 231.178394,130.632947 231.770069,130.068454 C232.691774,129.155596 233.185332,127.739387 233.185332,126.449726 C233.185332,125.347755 232.789891,124.30977 232.098612,123.65001 C231.606541,123.17794 230.815659,122.768434 229.632309,122.768434 C228.31665,122.768434 227.427651,123.303067 226.868682,123.806419 Z M233.777007,120.345521 L237,120.345521 L235.290387,133.591915 L232.065907,133.591915 L232.230922,132.206988 C231.770069,132.680479 231.080278,133.246394 230.388999,133.529352 C229.697721,133.81231 228.744797,134 227.855798,134 C225.816155,134 224.598612,133.182409 223.908821,132.553931 C222.823588,131.547227 222,129.784075 222,127.770668 C222,125.758684 222.723984,123.460898 224.402379,121.855576 C225.816155,120.503352 227.527255,120 229.467294,120 C230.388999,120 231.2111,120.157831 232.000496,120.564493 C232.559465,120.847451 233.118434,121.289661 233.579286,121.88828 L233.777007,120.345521 Z" id="Fill-10" fill="#FFFFFE"></path>
                    <polyline id="Fill-11" fill="#FFFFFE" points="261.501237 115.165854 259.167653 134 255.765953 134 258.101044 115.165854 253 115.165854 253.400732 112 267 112 266.600775 115.165854 261.501237 115.165854"></polyline>
                    <path d="M271.946607,110 L275.155168,110 L273.747723,121.325274 C274.008197,121.027711 274.468465,120.633439 275.122609,120.304631 C275.90847,119.907383 276.695811,119.777943 277.480191,119.777943 C279.15107,119.777943 280.164845,120.368607 280.755351,120.962247 C281.476093,121.686814 282,122.872606 282,124.320253 C282,124.814209 281.934882,125.407848 281.705487,127.185791 L280.853028,134 L277.642987,134 L278.528005,126.855496 C278.690801,125.636972 278.690801,125.143017 278.690801,125.012089 C278.690801,124.452669 278.594604,123.728101 278.069217,123.234145 C277.642987,122.838386 277.021403,122.674726 276.432377,122.674726 C275.286885,122.674726 274.631261,123.168681 274.369308,123.432025 C273.518329,124.253301 273.223816,125.671192 273.026981,127.316719 L272.208561,134 L269,134 L271.946607,110" id="Fill-12" fill="#FFFFFE"></path>
                    <path d="M292.870168,123.806419 C291.981169,124.625432 291.324083,126.041641 291.324083,127.520414 C291.324083,128.683526 291.783449,129.66037 292.409316,130.287426 C293.000991,130.886045 293.757681,131.232988 294.74331,131.232988 C296.191278,131.232988 297.176908,130.632947 297.770069,130.068454 C298.693261,129.155596 299.185332,127.739387 299.185332,126.449726 C299.185332,125.347755 298.789891,124.30977 298.100099,123.65001 C297.605055,123.17794 296.817146,122.768434 295.632309,122.768434 C294.315164,122.768434 293.429138,123.303067 292.870168,123.806419 Z M299.777007,120.345521 L303,120.345521 L301.290387,133.591915 L298.065907,133.591915 L298.230922,132.206988 C297.770069,132.680479 297.080278,133.246394 296.388999,133.529352 C295.699207,133.81231 294.74331,134 293.855798,134 C291.817641,134 290.598612,133.182409 289.907334,132.553931 C288.823588,131.547227 288,129.784075 288,127.770668 C288,125.758684 288.723984,123.460898 290.400892,121.855576 C291.817641,120.503352 293.527255,120 295.468781,120 C296.388999,120 297.212587,120.157831 298.000496,120.564493 C298.560951,120.847451 299.118434,121.289661 299.579286,121.88828 L299.777007,120.345521 Z" id="Fill-13" fill="#FFFFFE"></path>
                    <polyline id="Fill-14" fill="#FFFFFE" points="315 110 312.126923 134 309 134 311.871635 110 315 110"></polyline>
                    <path d="M329.956923,125.191347 C329.862867,124.530165 329.54163,123.775137 329.15817,123.367053 C328.709595,122.894983 327.973063,122.641885 327.204697,122.641885 C326.40305,122.641885 325.604297,122.894983 324.931434,123.429616 C324.387355,123.868982 323.937333,124.561446 323.682658,125.191347 L329.956923,125.191347 Z M332.42264,130.570384 C331.752671,131.673776 330.82224,132.522649 329.926536,133.05586 C329.15817,133.496648 327.941229,134 326.148375,134 C324.482858,134 323.04163,133.560634 321.824688,132.332115 C320.769813,131.29413 320,129.69023 320,127.612838 C320,125.347755 320.863869,123.367053 322.336932,121.950843 C323.650824,120.691042 325.251224,120 327.268366,120 C328.517142,120 330.085708,120.250254 331.335931,121.541337 C332.360419,122.579322 333,124.247207 333,126.166768 C333,126.574853 332.968166,127.110908 332.840828,127.708105 L323.200801,127.708105 C323.200801,128.653666 323.555321,129.721511 324.194902,130.382693 C324.611643,130.823482 325.348175,131.232988 326.40305,131.232988 C327.139581,131.232988 327.941229,131.012594 328.550423,130.632947 C329.094501,130.287426 329.63858,129.69023 329.956923,129.124314 L332.42264,130.570384 Z" id="Fill-15" fill="#FFFFFE"></path>
                    <path d="M345.541319,123.837701 C345.378967,123.460898 345.15226,123.209222 344.893374,123.02011 C344.570133,122.768434 344.27907,122.704449 343.923651,122.704449 C343.598947,122.704449 343.145532,122.768434 342.82229,123.084095 C342.693579,123.209222 342.531227,123.460898 342.531227,123.775137 C342.531227,124.090798 342.659939,124.341052 342.918824,124.530165 C343.145532,124.719277 343.404417,124.813122 344.245429,125.222628 L345.15226,125.663417 C346.252157,126.19805 346.73775,126.67012 346.867925,126.796669 C347.287699,127.237457 347.903466,128.086329 347.903466,129.533821 C347.903466,131.106439 347.224806,132.113142 346.544683,132.743043 C345.670031,133.529352 344.439959,134 342.724294,134 C341.91546,134 340.686851,133.874873 339.682024,133.151127 C339.55185,133.05586 338.485593,132.270973 338,130.729636 L340.751207,129.533821 C340.879918,130.035751 341.170981,130.540524 341.495685,130.823482 C341.818926,131.106439 342.272342,131.29413 342.82229,131.29413 C343.372239,131.29413 343.793477,131.137721 344.08454,130.886045 C344.439959,130.603088 344.602311,130.226285 344.602311,129.721511 C344.602311,129.312005 344.4736,128.935202 344.148896,128.619541 C343.793477,128.27402 343.307884,128.086329 342.854468,127.865935 L341.981278,127.423725 C341.560041,127.204753 340.84774,126.826529 340.426503,126.417022 C339.844376,125.882389 339.487495,125.127361 339.487495,124.120658 C339.487495,122.894983 340.005265,121.88828 340.717566,121.194394 C341.722393,120.220394 342.952465,120 344.08454,120 C344.959193,120 345.702209,120.157831 346.446687,120.628479 C347.094632,121.037985 347.644581,121.697745 348,122.327646 L345.541319,123.837701" id="Fill-16" fill="#FFFFFE"></path>
                    <path d="M376.581294,124.467601 C376.229465,124.120658 375.714805,123.65001 374.973346,123.270364 C374.298764,122.924843 373.720136,122.768434 372.980131,122.768434 C371.466683,122.768434 370.275987,123.334349 369.537436,124.090798 C368.701478,124.939671 368.250787,126.104205 368.250787,127.361162 C368.250787,128.619541 368.765447,129.66037 369.408045,130.256145 C370.085534,130.886045 371.145384,131.232988 372.206688,131.232988 C372.52944,131.232988 373.429368,131.200284 374.394718,130.759496 C374.621517,130.632947 375.294645,130.32013 375.94015,129.626244 L375.521444,133.088564 C374.684032,133.623197 373.590744,134 371.500121,134 C369.730797,134 368.186819,133.560634 366.898716,132.302255 C366.029319,131.483242 365,129.973187 365,127.487711 C365,124.813122 366.224134,123.051391 367.253453,122.044688 C368.862854,120.503352 370.760116,120 372.78677,120 C374.716016,120 376.004119,120.503352 377,121.13183 L376.581294,124.467601" id="Fill-17" fill="#FFFFFE"></path>
                    <path d="M392.374278,129.973187 C393.167131,129.155596 393.6957,127.959781 393.6957,126.543571 C393.6957,125.819825 393.531455,124.686573 392.607207,123.775137 C391.912901,123.084095 391.020008,122.768434 389.962871,122.768434 C388.475712,122.768434 387.452917,123.303067 386.824308,123.868982 C385.865718,124.719277 385.3043,125.977656 385.3043,127.32988 C385.3043,128.336583 385.667131,129.343287 386.328588,130.068454 C386.658571,130.413975 387.582819,131.232988 389.302907,131.232988 C390.425742,131.232988 391.482879,130.886045 392.374278,129.973187 Z M395.115668,121.761731 C396.008561,122.641885 397,124.153362 397,126.354459 C397,127.865935 396.637169,130.068454 394.588592,131.956734 C392.90434,133.496648 391.120048,134 388.872885,134 C387.087099,134 385.435696,133.687183 383.915688,132.206988 C382.892893,131.200284 382,129.721511 382,127.582978 C382,125.28377 382.95859,123.367053 384.411408,122.044688 C385.931415,120.65976 387.782899,120 390.159964,120 C391.615767,120 393.531455,120.250254 395.115668,121.761731 Z" id="Fill-18" fill="#FFFFFE"></path>
                    <g id="Group-22" transform="translate(402.000000, 119.000000)">
                        <mask id="mask-2" fill="white">
                            <use xlink:href="#path-1"></use>
                        </mask>
                        <g id="Clip-20"></g>
                        <path d="M2.00468966,0.904933333 L5.21931034,0.904933333 L5.0562069,2.17066667 C5.41651724,1.78053333 5.87617241,1.3596 6.40106897,1.06773333 C7.12168966,0.676133333 7.87641379,0.548533333 8.66375862,0.548533333 C9.38586207,0.548533333 9.97748276,0.645333333 10.6313793,1.06773333 C11.3223448,1.48866667 11.7167586,2.0416 11.9777241,2.5608 C12.3068966,2.10613333 12.7976897,1.58693333 13.5524138,1.1308 C14.2745172,0.711333333 14.9313793,0.548533333 15.8818276,0.548533333 C17.3586552,0.548533333 18.4084483,0.969466667 19.1305517,1.65146667 C20.2796897,2.69133333 20.3775517,4.15066667 20.3775517,4.92946667 C20.3775517,5.64373333 20.2796897,6.48853333 20.1151034,7.68826667 L19.2625172,14.5684 L16.0478966,14.5684 L16.899,7.68826667 C16.9657241,7.10306667 17.0976897,6.39026667 17.0976897,5.7728 C17.0976897,5.02626667 16.9316207,4.34573333 16.5401724,3.9556 C16.2436207,3.63 15.6534828,3.40413333 15.1285862,3.40413333 C14.7015517,3.40413333 14.1766552,3.50093333 13.6176552,3.98786667 C12.7665517,4.76813333 12.4714828,5.96786667 12.2727931,7.52546667 L11.3875862,14.5684 L8.17148276,14.5684 L9.05817241,7.3964 C9.19013793,6.42106667 9.22127586,5.99866667 9.22127586,5.676 C9.22127586,5.2536 9.19013793,4.44253333 8.66375862,3.92186667 C8.36868966,3.63 7.90903448,3.40413333 7.2847931,3.40413333 C6.56417241,3.40413333 6.00665517,3.66373333 5.58110345,4.08613333 C4.79375862,4.86493333 4.56393103,6.1292 4.39934483,7.52546667 L3.51413793,14.5684 L0.299517241,14.5684 L2.00468966,0.904933333" id="Fill-19" fill="#FFFFFE" mask="url(#mask-2)"></path>
                        <path d="M31.9297241,4.41026667 C30.9777931,5.3196 30.4202759,6.84493333 30.4202759,8.37026667 C30.4202759,9.1476 30.5507586,10.252 31.3381034,11.0630667 C31.9297241,11.6790667 32.8475517,12.1352 33.964069,12.1352 C35.1117241,12.1352 35.9643103,11.7436 36.6878966,11.0308 C37.5716207,10.1537333 38.2611034,8.69293333 38.2611034,7.20133333 C38.2611034,6.06466667 37.8666897,5.0908 37.2780345,4.44253333 C36.587069,3.696 35.7344828,3.40413333 34.6846897,3.40413333 C33.6675172,3.40413333 32.7823103,3.5992 31.9297241,4.41026667 Z M28.9093448,22 L25.6932414,22 L28.3192069,0.904933333 L31.5353103,0.904933333 L31.3381034,2.398 C31.7977586,1.78053333 32.3226552,1.39186667 32.9795172,1.1 C33.798,0.711333333 34.5868276,0.548533333 35.4394138,0.548533333 C37.1786897,0.548533333 38.8186207,1.26133333 39.8372759,2.29973333 C40.8529655,3.33813333 41.5735862,4.96026667 41.5735862,6.94173333 C41.5735862,9.3104 40.5905172,11.616 39.2456552,13.0430667 C38.0638966,14.2765333 36.587069,15.0230667 34.652069,15.0230667 C33.502931,15.0230667 32.4205172,14.7957333 31.5353103,14.2765333 C30.9451724,13.9201333 30.4202759,13.4317333 30.0243793,12.9770667 L28.9093448,22 Z" id="Fill-21" fill="#FFFFFE" mask="url(#mask-2)"></path>
                    </g>
                    <path d="M453.868199,123.806419 C452.982261,124.625432 452.323754,126.041641 452.323754,127.520414 C452.323754,128.683526 452.78456,129.66037 453.408879,130.287426 C454.000495,130.886045 454.75711,131.232988 455.744128,131.232988 C457.191953,131.232988 458.177485,130.632947 458.769101,130.068454 C459.690714,129.155596 460.184224,127.739387 460.184224,126.449726 C460.184224,125.347755 459.790308,124.30977 459.099098,123.65001 C458.605589,123.17794 457.814785,122.768434 456.631553,122.768434 C455.316024,122.768434 454.4286,123.303067 453.868199,123.806419 Z M460.777326,120.345521 L464,120.345521 L462.289069,133.591915 L459.064909,133.591915 L459.229908,132.206988 C458.769101,132.680479 458.079378,133.246394 457.386681,133.529352 C456.698444,133.81231 455.744128,134 454.855218,134 C452.815776,134 451.599841,133.182409 450.908631,132.553931 C449.823506,131.547227 449,129.784075 449,127.770668 C449,125.758684 449.723912,123.460898 451.400654,121.855576 C452.815776,120.503352 454.526707,120 456.466554,120 C457.386681,120 458.210187,120.157831 458.999505,120.564493 C459.559905,120.847451 460.117332,121.289661 460.578139,121.88828 L460.777326,120.345521 Z" id="Fill-23" fill="#FFFFFE"></path>
                    <g id="Group-27" transform="translate(469.000000, 119.000000)">
                        <mask id="mask-4" fill="white">
                            <use xlink:href="#path-3"></use>
                        </mask>
                        <g id="Clip-25"></g>
                        <path d="M2.03252,0.904933333 L5.24116,0.904933333 L5.07836,2.1384 C5.5046,1.6192 5.92936,1.32733333 6.45328,1.06773333 C7.27172,0.676133333 7.99396,0.548533333 8.81092,0.548533333 C10.48184,0.548533333 11.49712,1.1308 12.08616,1.716 C12.80692,2.43026667 13.33084,3.53466667 13.33084,4.96026667 C13.33084,5.48093333 13.26572,6.06466667 13.03632,7.85106667 L12.18532,14.5684 L8.9752,14.5684 L9.85876,7.52546667 C10.02304,6.32426667 10.02304,5.83733333 10.02304,5.70826667 C10.02304,5.1568 9.92388,4.44253333 9.40144,3.9556 C8.9752,3.56546667 8.3536,3.40413333 7.76308,3.40413333 C6.61756,3.40413333 5.96192,3.89106667 5.69996,4.15066667 C4.85044,4.96026667 4.55444,6.358 4.3576,7.98013333 L3.53916,14.5684 L0.32904,14.5684 L2.03252,0.904933333" id="Fill-24" fill="#FFFFFE" mask="url(#mask-4)"></path>
                        <polyline id="Fill-26" fill="#FFFFFE" mask="url(#mask-4)" points="24.13928 12.0369333 19.39144 0.904933333 23.18912 0.904933333 26.30156 8.5976 31.116 0.904933333 34.78196 0.904933333 21.1926 22 17.59028 22 24.13928 12.0369333"></polyline>
                    </g>
                </g>
            </g>
        </g>
    </g>
</svg>