<?xml version="1.0" encoding="UTF-8"?>
<svg width="144px" height="144px" viewBox="0 0 144 144" version="1.1" xmlns="http://www.w3.org/2000/svg" xmlns:xlink="http://www.w3.org/1999/xlink">
    <!-- Generator: Sketch 51.1 (57501) - http://www.bohemiancoding.com/sketch -->
    <title>Icon_datasetManager</title>
    <desc>Created with Sketch.</desc>
    <defs>
        <linearGradient x1="110.423641%" y1="144.594243%" x2="-124.776513%" y2="-9.57464583%" id="linearGradient-1">
            <stop stop-color="#2E3035" offset="0%"></stop>
            <stop stop-color="#C9D6E8" offset="100%"></stop>
        </linearGradient>
        <path d="M21.9884171,52.313785 C18.610113,51.8707797 16,48.9725405 16,45.4655079 L16,22.9069356 C16,19.093572 19.0860016,16 22.8900332,16 L119.868014,16 C123.673955,16 126.759957,19.093572 126.759957,22.9069356 L126.759957,45.4635936 C126.759957,48.9723208 124.149942,51.8706584 120.77173,52.3137591 C120.476562,52.2750717 120.175511,52.255113 119.869804,52.255113 L22.8901519,52.255113 C22.5845297,52.255113 22.2835421,52.2750807 21.9884171,52.313785 Z M119.871714,125 L22.8901519,125 C19.0860547,125 16,121.906428 16,118.093064 L16,95.5344921 C16,91.7211285 19.0860547,88.6275565 22.8901519,88.6275565 L119.869804,88.6275565 C123.675811,88.6275565 126.759956,91.7211285 126.759956,95.5344921 L126.759956,118.09115 C126.761866,121.906428 123.675811,125 119.871714,125 Z" id="path-2"></path>
        <filter x="-1.8%" y="-1.8%" width="103.6%" height="103.7%" filterUnits="objectBoundingBox" id="filter-3">
            <feGaussianBlur stdDeviation="1.5" in="SourceAlpha" result="shadowBlurInner1"></feGaussianBlur>
            <feOffset dx="-1" dy="1" in="shadowBlurInner1" result="shadowOffsetInner1"></feOffset>
            <feComposite in="shadowOffsetInner1" in2="SourceAlpha" operator="arithmetic" k2="-1" k3="1" result="shadowInnerInner1"></feComposite>
            <feColorMatrix values="0 0 0 0 0   0 0 0 0 0   0 0 0 0 0  0 0 0 0.5 0" type="matrix" in="shadowInnerInner1"></feColorMatrix>
        </filter>
        <linearGradient x1="3.76362418%" y1="3.76362418%" x2="97.2572992%" y2="97.2572992%" id="linearGradient-4">
            <stop stop-color="#656D78" offset="0%"></stop>
            <stop stop-color="#2F3640" offset="100%"></stop>
        </linearGradient>
        <path d="M34.6878364,76.3756728 C30.9942463,76.3756728 28,73.3814264 28,69.6878364 C28,65.9942463 30.9942463,63 34.6878364,63 C38.3814264,63 41.3756728,65.9942463 41.3756728,69.6878364 C41.3756728,73.3814264 38.3814264,76.3756728 34.6878364,76.3756728 Z M110.189989,68.7491927 C109.120792,68.7491927 108.254037,67.8824372 108.254037,66.81324 C108.254037,65.7440429 109.120792,64.8772874 110.189989,64.8772874 C111.259186,64.8772874 112.125942,65.7440429 112.125942,66.81324 C112.125942,67.8824372 111.259186,68.7491927 110.189989,68.7491927 Z M102.563509,68.7491927 C101.494312,68.7491927 100.627557,67.8824372 100.627557,66.81324 C100.627557,65.7440429 101.494312,64.8772874 102.563509,64.8772874 C103.632706,64.8772874 104.499462,65.7440429 104.499462,66.81324 C104.499462,67.8824372 103.632706,68.7491927 102.563509,68.7491927 Z M113.944564,74.4983854 C112.875367,74.4983854 112.008611,73.6316298 112.008611,72.5624327 C112.008611,71.4932356 112.875367,70.6264801 113.944564,70.6264801 C115.013761,70.6264801 115.880517,71.4932356 115.880517,72.5624327 C115.880517,73.6316298 115.013761,74.4983854 113.944564,74.4983854 Z M106.435414,74.4983854 C105.366217,74.4983854 104.499462,73.6316298 104.499462,72.5624327 C104.499462,71.4932356 105.366217,70.6264801 106.435414,70.6264801 C107.504612,70.6264801 108.371367,71.4932356 108.371367,72.5624327 C108.371367,73.6316298 107.504612,74.4983854 106.435414,74.4983854 Z M94.9370291,68.7491927 C93.8678319,68.7491927 93.0010764,67.8824372 93.0010764,66.81324 C93.0010764,65.7440429 93.8678319,64.8772874 94.9370291,64.8772874 C96.0062262,64.8772874 96.8729817,65.7440429 96.8729817,66.81324 C96.8729817,67.8824372 96.0062262,68.7491927 94.9370291,68.7491927 Z M98.6916039,74.4983854 C97.6224068,74.4983854 96.7556512,73.6316298 96.7556512,72.5624327 C96.7556512,71.4932356 97.6224068,70.6264801 98.6916039,70.6264801 C99.760801,70.6264801 100.627557,71.4932356 100.627557,72.5624327 C100.627557,73.6316298 99.760801,74.4983854 98.6916039,74.4983854 Z M87.1932185,68.7491927 C86.1240214,68.7491927 85.2572659,67.8824372 85.2572659,66.81324 C85.2572659,65.7440429 86.1240214,64.8772874 87.1932185,64.8772874 C88.2624156,64.8772874 89.1291712,65.7440429 89.1291712,66.81324 C89.1291712,67.8824372 88.2624156,68.7491927 87.1932185,68.7491927 Z M91.0651238,74.4983854 C89.9959267,74.4983854 89.1291712,73.6316298 89.1291712,72.5624327 C89.1291712,71.4932356 89.9959267,70.6264801 91.0651238,70.6264801 C92.1343209,70.6264801 93.0010764,71.4932356 93.0010764,72.5624327 C93.0010764,73.6316298 92.1343209,74.4983854 91.0651238,74.4983854 Z M79.6840689,68.7491927 C78.6148718,68.7491927 77.7481163,67.8824372 77.7481163,66.81324 C77.7481163,65.7440429 78.6148718,64.8772874 79.6840689,64.8772874 C80.753266,64.8772874 81.6200215,65.7440429 81.6200215,66.81324 C81.6200215,67.8824372 80.753266,68.7491927 79.6840689,68.7491927 Z M83.4386437,74.4983854 C82.3694466,74.4983854 81.5026911,73.6316298 81.5026911,72.5624327 C81.5026911,71.4932356 82.3694466,70.6264801 83.4386437,70.6264801 C84.5078408,70.6264801 85.3745963,71.4932356 85.3745963,72.5624327 C85.3745963,73.6316298 84.5078408,74.4983854 83.4386437,74.4983854 Z" id="path-5"></path>
        <filter x="-0.6%" y="-3.7%" width="101.1%" height="107.5%" filterUnits="objectBoundingBox" id="filter-6">
            <feGaussianBlur stdDeviation="0.5" in="SourceAlpha" result="shadowBlurInner1"></feGaussianBlur>
            <feOffset dx="0" dy="0" in="shadowBlurInner1" result="shadowOffsetInner1"></feOffset>
            <feComposite in="shadowOffsetInner1" in2="SourceAlpha" operator="arithmetic" k2="-1" k3="1" result="shadowInnerInner1"></feComposite>
            <feColorMatrix values="0 0 0 0 0   0 0 0 0 0   0 0 0 0 0  0 0 0 0.167657382 0" type="matrix" in="shadowInnerInner1"></feColorMatrix>
        </filter>
        <linearGradient x1="3.07215613%" y1="3.07215613%" x2="99.1080901%" y2="99.1080901%" id="linearGradient-7">
            <stop stop-color="#EDF0F6" offset="0%"></stop>
            <stop stop-color="#C9D6E8" offset="100%"></stop>
        </linearGradient>
        <path d="M34.6878364,113.375673 C30.9942463,113.375673 28,110.381426 28,106.687836 C28,102.994246 30.9942463,100 34.6878364,100 C38.3814264,100 41.3756728,102.994246 41.3756728,106.687836 C41.3756728,110.381426 38.3814264,113.375673 34.6878364,113.375673 Z M110.189989,105.749193 C109.120792,105.749193 108.254037,104.882437 108.254037,103.81324 C108.254037,102.744043 109.120792,101.877287 110.189989,101.877287 C111.259186,101.877287 112.125942,102.744043 112.125942,103.81324 C112.125942,104.882437 111.259186,105.749193 110.189989,105.749193 Z M102.563509,105.749193 C101.494312,105.749193 100.627557,104.882437 100.627557,103.81324 C100.627557,102.744043 101.494312,101.877287 102.563509,101.877287 C103.632706,101.877287 104.499462,102.744043 104.499462,103.81324 C104.499462,104.882437 103.632706,105.749193 102.563509,105.749193 Z M113.944564,111.498385 C112.875367,111.498385 112.008611,110.63163 112.008611,109.562433 C112.008611,108.493236 112.875367,107.62648 113.944564,107.62648 C115.013761,107.62648 115.880517,108.493236 115.880517,109.562433 C115.880517,110.63163 115.013761,111.498385 113.944564,111.498385 Z M106.435414,111.498385 C105.366217,111.498385 104.499462,110.63163 104.499462,109.562433 C104.499462,108.493236 105.366217,107.62648 106.435414,107.62648 C107.504612,107.62648 108.371367,108.493236 108.371367,109.562433 C108.371367,110.63163 107.504612,111.498385 106.435414,111.498385 Z M94.9370291,105.749193 C93.8678319,105.749193 93.0010764,104.882437 93.0010764,103.81324 C93.0010764,102.744043 93.8678319,101.877287 94.9370291,101.877287 C96.0062262,101.877287 96.8729817,102.744043 96.8729817,103.81324 C96.8729817,104.882437 96.0062262,105.749193 94.9370291,105.749193 Z M98.6916039,111.498385 C97.6224068,111.498385 96.7556512,110.63163 96.7556512,109.562433 C96.7556512,108.493236 97.6224068,107.62648 98.6916039,107.62648 C99.760801,107.62648 100.627557,108.493236 100.627557,109.562433 C100.627557,110.63163 99.760801,111.498385 98.6916039,111.498385 Z M87.1932185,105.749193 C86.1240214,105.749193 85.2572659,104.882437 85.2572659,103.81324 C85.2572659,102.744043 86.1240214,101.877287 87.1932185,101.877287 C88.2624156,101.877287 89.1291712,102.744043 89.1291712,103.81324 C89.1291712,104.882437 88.2624156,105.749193 87.1932185,105.749193 Z M91.0651238,111.498385 C89.9959267,111.498385 89.1291712,110.63163 89.1291712,109.562433 C89.1291712,108.493236 89.9959267,107.62648 91.0651238,107.62648 C92.1343209,107.62648 93.0010764,108.493236 93.0010764,109.562433 C93.0010764,110.63163 92.1343209,111.498385 91.0651238,111.498385 Z M79.6840689,105.749193 C78.6148718,105.749193 77.7481163,104.882437 77.7481163,103.81324 C77.7481163,102.744043 78.6148718,101.877287 79.6840689,101.877287 C80.753266,101.877287 81.6200215,102.744043 81.6200215,103.81324 C81.6200215,104.882437 80.753266,105.749193 79.6840689,105.749193 Z M83.4386437,111.498385 C82.3694466,111.498385 81.5026911,110.63163 81.5026911,109.562433 C81.5026911,108.493236 82.3694466,107.62648 83.4386437,107.62648 C84.5078408,107.62648 85.3745963,108.493236 85.3745963,109.562433 C85.3745963,110.63163 84.5078408,111.498385 83.4386437,111.498385 Z" id="path-8"></path>
        <filter x="-0.6%" y="-3.7%" width="101.1%" height="107.5%" filterUnits="objectBoundingBox" id="filter-9">
            <feGaussianBlur stdDeviation="0.5" in="SourceAlpha" result="shadowBlurInner1"></feGaussianBlur>
            <feOffset dx="0" dy="0" in="shadowBlurInner1" result="shadowOffsetInner1"></feOffset>
            <feComposite in="shadowOffsetInner1" in2="SourceAlpha" operator="arithmetic" k2="-1" k3="1" result="shadowInnerInner1"></feComposite>
            <feColorMatrix values="0 0 0 0 0   0 0 0 0 0   0 0 0 0 0  0 0 0 0.435886549 0" type="matrix" in="shadowInnerInner1"></feColorMatrix>
        </filter>
        <path d="M34.6878364,40.3756728 C30.9942463,40.3756728 28,37.3814264 28,33.6878364 C28,29.9942463 30.9942463,27 34.6878364,27 C38.3814264,27 41.3756728,29.9942463 41.3756728,33.6878364 C41.3756728,37.3814264 38.3814264,40.3756728 34.6878364,40.3756728 Z M110.189989,32.8665231 C109.120792,32.8665231 108.254037,31.9997676 108.254037,30.9305705 C108.254037,29.8613734 109.120792,28.9946179 110.189989,28.9946179 C111.259186,28.9946179 112.125942,29.8613734 112.125942,30.9305705 C112.125942,31.9997676 111.259186,32.8665231 110.189989,32.8665231 Z M102.563509,32.8665231 C101.494312,32.8665231 100.627557,31.9997676 100.627557,30.9305705 C100.627557,29.8613734 101.494312,28.9946179 102.563509,28.9946179 C103.632706,28.9946179 104.499462,29.8613734 104.499462,30.9305705 C104.499462,31.9997676 103.632706,32.8665231 102.563509,32.8665231 Z M113.944564,38.6157158 C112.875367,38.6157158 112.008611,37.7489603 112.008611,36.6797632 C112.008611,35.6105661 112.875367,34.7438105 113.944564,34.7438105 C115.013761,34.7438105 115.880517,35.6105661 115.880517,36.6797632 C115.880517,37.7489603 115.013761,38.6157158 113.944564,38.6157158 Z M106.435414,38.6157158 C105.366217,38.6157158 104.499462,37.7489603 104.499462,36.6797632 C104.499462,35.6105661 105.366217,34.7438105 106.435414,34.7438105 C107.504612,34.7438105 108.371367,35.6105661 108.371367,36.6797632 C108.371367,37.7489603 107.504612,38.6157158 106.435414,38.6157158 Z M94.9370291,32.8665231 C93.8678319,32.8665231 93.0010764,31.9997676 93.0010764,30.9305705 C93.0010764,29.8613734 93.8678319,28.9946179 94.9370291,28.9946179 C96.0062262,28.9946179 96.8729817,29.8613734 96.8729817,30.9305705 C96.8729817,31.9997676 96.0062262,32.8665231 94.9370291,32.8665231 Z M98.6916039,38.6157158 C97.6224068,38.6157158 96.7556512,37.7489603 96.7556512,36.6797632 C96.7556512,35.6105661 97.6224068,34.7438105 98.6916039,34.7438105 C99.760801,34.7438105 100.627557,35.6105661 100.627557,36.6797632 C100.627557,37.7489603 99.760801,38.6157158 98.6916039,38.6157158 Z M87.1932185,32.8665231 C86.1240214,32.8665231 85.2572659,31.9997676 85.2572659,30.9305705 C85.2572659,29.8613734 86.1240214,28.9946179 87.1932185,28.9946179 C88.2624156,28.9946179 89.1291712,29.8613734 89.1291712,30.9305705 C89.1291712,31.9997676 88.2624156,32.8665231 87.1932185,32.8665231 Z M91.0651238,38.6157158 C89.9959267,38.6157158 89.1291712,37.7489603 89.1291712,36.6797632 C89.1291712,35.6105661 89.9959267,34.7438105 91.0651238,34.7438105 C92.1343209,34.7438105 93.0010764,35.6105661 93.0010764,36.6797632 C93.0010764,37.7489603 92.1343209,38.6157158 91.0651238,38.6157158 Z M79.6840689,32.8665231 C78.6148718,32.8665231 77.7481163,31.9997676 77.7481163,30.9305705 C77.7481163,29.8613734 78.6148718,28.9946179 79.6840689,28.9946179 C80.753266,28.9946179 81.6200215,29.8613734 81.6200215,30.9305705 C81.6200215,31.9997676 80.753266,32.8665231 79.6840689,32.8665231 Z M83.4386437,38.6157158 C82.3694466,38.6157158 81.5026911,37.7489603 81.5026911,36.6797632 C81.5026911,35.6105661 82.3694466,34.7438105 83.4386437,34.7438105 C84.5078408,34.7438105 85.3745963,35.6105661 85.3745963,36.6797632 C85.3745963,37.7489603 84.5078408,38.6157158 83.4386437,38.6157158 Z" id="path-10"></path>
        <filter x="-0.6%" y="-3.7%" width="101.1%" height="107.5%" filterUnits="objectBoundingBox" id="filter-11">
            <feGaussianBlur stdDeviation="0.5" in="SourceAlpha" result="shadowBlurInner1"></feGaussianBlur>
            <feOffset dx="0" dy="0" in="shadowBlurInner1" result="shadowOffsetInner1"></feOffset>
            <feComposite in="shadowOffsetInner1" in2="SourceAlpha" operator="arithmetic" k2="-1" k3="1" result="shadowInnerInner1"></feComposite>
            <feColorMatrix values="0 0 0 0 0   0 0 0 0 0   0 0 0 0 0  0 0 0 0.435886549 0" type="matrix" in="shadowInnerInner1"></feColorMatrix>
        </filter>
    </defs>
    <g id="Icon_datasetManager" stroke="none" stroke-width="1" fill="none" fill-rule="evenodd">
        <g id="Combined-Shape">
            <use fill="url(#linearGradient-1)" fill-rule="evenodd" xlink:href="#path-2"></use>
            <use fill="black" fill-opacity="1" filter="url(#filter-3)" xlink:href="#path-2"></use>
        </g>
        <g id="Combined-Shape">
            <use fill="url(#linearGradient-4)" fill-rule="evenodd" xlink:href="#path-5"></use>
            <use fill="black" fill-opacity="1" filter="url(#filter-6)" xlink:href="#path-5"></use>
        </g>
        <g id="Combined-Shape">
            <use fill="url(#linearGradient-7)" fill-rule="evenodd" xlink:href="#path-8"></use>
            <use fill="black" fill-opacity="1" filter="url(#filter-9)" xlink:href="#path-8"></use>
        </g>
        <g id="Combined-Shape">
            <use fill="url(#linearGradient-7)" fill-rule="evenodd" xlink:href="#path-10"></use>
            <use fill="black" fill-opacity="1" filter="url(#filter-11)" xlink:href="#path-10"></use>
        </g>
    </g>
</svg>