<?xml version="1.0" encoding="utf-8"?>
<!-- Generator: Adobe Illustrator 16.0.4, SVG Export Plug-In . SVG Version: 6.00 Build 0)  -->
<!DOCTYPE svg PUBLIC "-//W3C//DTD SVG 1.1//EN" "http://www.w3.org/Graphics/SVG/1.1/DTD/svg11.dtd">
<svg version="1.1" id="Layer_1" xmlns="http://www.w3.org/2000/svg" xmlns:xlink="http://www.w3.org/1999/xlink" x="0px" y="0px"
	 width="16px" height="16px" viewBox="0 0 16 16" enable-background="new 0 0 16 16" xml:space="preserve">
<g>
	<circle fill="#758B98" cx="8" cy="8" r="8"/>
	<g>
		<path fill="#FFFFFF" d="M9.646,12.364l-0.138,0.61c-0.403,0.176-0.728,0.312-0.97,0.404c-0.241,0.092-0.521,0.139-0.841,0.139
			c-0.493,0-0.873-0.132-1.146-0.396c-0.272-0.267-0.41-0.603-0.41-1.008c0-0.158,0.011-0.32,0.032-0.485s0.054-0.354,0.099-0.561
			l0.506-1.979c0.046-0.19,0.084-0.371,0.115-0.54c0.03-0.17,0.046-0.323,0.046-0.464c0-0.254-0.048-0.431-0.142-0.529
			C6.703,7.455,6.523,7.406,6.256,7.406c-0.132,0-0.266,0.023-0.404,0.068C5.716,7.52,5.598,7.562,5.499,7.604l0.136-0.612
			c0.332-0.148,0.649-0.276,0.953-0.382c0.304-0.106,0.59-0.159,0.86-0.159c0.488,0,0.863,0.13,1.129,0.391
			c0.264,0.26,0.397,0.598,0.397,1.014c0,0.086-0.011,0.236-0.029,0.454c-0.019,0.217-0.053,0.416-0.1,0.597L8.339,10.88
			c-0.041,0.158-0.078,0.338-0.111,0.543c-0.032,0.203-0.049,0.356-0.049,0.461c0,0.263,0.054,0.441,0.159,0.536
			c0.106,0.096,0.291,0.143,0.553,0.143c0.123,0,0.262-0.023,0.416-0.07C9.463,12.441,9.575,12.4,9.646,12.364z M9.773,4.081
			c0,0.343-0.117,0.637-0.354,0.879S8.9,5.323,8.57,5.323c-0.333,0-0.616-0.121-0.854-0.363C7.479,4.718,7.36,4.424,7.36,4.081
			c0-0.344,0.119-0.638,0.355-0.882C7.954,2.955,8.238,2.833,8.57,2.833c0.33,0,0.615,0.122,0.851,0.366
			C9.657,3.443,9.773,3.737,9.773,4.081z"/>
	</g>
</g>
</svg>
