<svg id="79b03ad7-afbf-40b2-92d0-c720d46cd509" data-name="Layer 1" xmlns="http://www.w3.org/2000/svg" width="18" height="18" viewBox="0 0 18 18">
  <title>alertSummaryIconServiceCenter</title>
  <g opacity="0">
    <rect id="01988b24-cace-423f-8455-b60fb88ed1d3" data-name="bg" width="18" height="18" fill="#e1e6e4"/>
  </g>
  <g id="2ab088b3-82b7-4c83-a4a9-bc8c46681bc2" data-name="serviceCenter">
    <g id="2f1dfd21-0563-4fa2-811d-c92d71cbd69c" data-name="agent">
      <path d="M12.437,5.6l-1.916,0a0.928,0.928,0,0,0-.922.937V7.613h0.569V6.59h0.342V7.613h1.958V6.59h0.336V7.613h0.563V6.542A0.937,0.937,0,0,0,12.437,5.6Z" fill="#fff"/>
      <path d="M11.771,5.384a0.719,0.719,0,1,0-.283.058A0.72,0.72,0,0,0,11.771,5.384Z" fill="#fff"/>
    </g>
    <g id="cf53ab4a-9750-46a2-8ef3-ddcf64951b44" data-name="desk">
      <rect x="3.269" y="7.851" width="1.192" height="0.831" fill="#fff"/>
      <rect x="9.195" y="7.851" width="5.54" height="0.831" fill="#fff"/>
    </g>
    <g id="a0c112d8-3c72-4e1b-a65a-d77332e5b5d3" data-name="customer">
      <path d="M7.941,6.927h0.38V9.365a0.453,0.453,0,0,0,.027.161,0.308,0.308,0,0,0,.582,0,0.452,0.452,0,0,0,.027-0.161V6.873A1.059,1.059,0,0,0,7.905,5.8L5.74,5.8A1.029,1.029,0,0,0,5,6.109a1.065,1.065,0,0,0-.3.749V9.365a0.335,0.335,0,0,0,.262.359,0.318,0.318,0,0,0,.06.006,0.313,0.313,0,0,0,.172-0.051,0.357,0.357,0,0,0,.149-0.313V6.927H5.728l0,6.614a0.458,0.458,0,1,0,.915,0V9.7H7.025v3.837a0.456,0.456,0,1,0,.913,0Z" fill="#fff"/>
      <path d="M7.152,5.564a0.813,0.813,0,1,0-.32.066A0.814,0.814,0,0,0,7.152,5.564Z" fill="#fff"/>
    </g>
  </g>
</svg>
