<svg id="afa05f86-a901-4680-abc9-984105c5eea5" data-name="Layer 1" xmlns="http://www.w3.org/2000/svg" width="11" height="11" viewBox="0 0 11 11">
  <title>alertSidebarIconUnhandled</title>
  <path d="M5.5,0A5.5,5.5,0,1,0,11,5.5,5.5,5.5,0,0,0,5.5,0Zm0,1.57a4.865,4.865,0,0,1,.736.057L6.136,6.238a3.789,3.789,0,0,1-.632.056,3.73,3.73,0,0,1-.641-.056L4.769,1.627A4.8,4.8,0,0,1,5.5,1.57Zm.7,6.836a4.4,4.4,0,0,1-.688.056,4.335,4.335,0,0,1-.7-.056,4.28,4.28,0,0,1-.057-.688,4.454,4.454,0,0,1,.057-.7A4.292,4.292,0,0,1,5.5,6.964a4.473,4.473,0,0,1,.7.057,4.4,4.4,0,0,1,.057.688A4.336,4.336,0,0,1,6.193,8.406Z" fill="#fff"/>
</svg>
