<svg id="df98c8f2-4ab3-49a4-a7e8-989479241dd4" data-name="Layer 1" xmlns="http://www.w3.org/2000/svg" width="16" height="16" viewBox="0 0 16 16">
  <title>alertStatusIconUnhandled</title>
  <g>
    <circle cx="8" cy="8" r="8" fill="#a31373"/>
    <path d="M6.992,12.227a6.247,6.247,0,0,1-.082-1,6.5,6.5,0,0,1,.082-1.015,6.236,6.236,0,0,1,1-.082,6.515,6.515,0,0,1,1.015.082,6.428,6.428,0,0,1,.083,1,6.33,6.33,0,0,1-.082,1.015,6.444,6.444,0,0,1-1,.082A6.334,6.334,0,0,1,6.992,12.227ZM6.937,2.367a6.937,6.937,0,0,1,1.056-.082,7.014,7.014,0,0,1,1.07.082L8.926,9.073a5.284,5.284,0,0,1-1.851,0Z" fill="#fff"/>
  </g>
</svg>
