<svg id="017e77e7-a3f9-40c7-84e1-5315b26a43e6" data-name="Layer 1" xmlns="http://www.w3.org/2000/svg" width="15.627" height="16" viewBox="0 0 15.627 16">
  <title>alertSidebarIconSettings</title>
  <g>
    <path d="M7.814,4.471A3.529,3.529,0,1,0,11.342,8,3.529,3.529,0,0,0,7.814,4.471Zm0,6.205A2.677,2.677,0,1,1,10.49,8,2.676,2.676,0,0,1,7.814,10.676Z" fill="none"/>
    <path d="M7.814,6.365A1.635,1.635,0,1,0,9.448,8,1.635,1.635,0,0,0,7.814,6.365Zm0,2.608A.973.973,0,1,1,8.787,8,.974.974,0,0,1,7.814,8.973Z" fill="none"/>
    <path d="M13.593,8c0-.147-.011-.291-.022-.435l2.056-1.286a7.932,7.932,0,0,0-.48-1.479l-2.42.168a5.793,5.793,0,0,0-.51-.706l.905-2.246A8.012,8.012,0,0,0,11.865,1.1L10.01,2.655a5.736,5.736,0,0,0-.831-.266L8.591.038C8.335.013,8.076,0,7.814,0s-.522.013-.777.038L6.448,2.389a5.738,5.738,0,0,0-.831.266L3.762,1.1A8.058,8.058,0,0,0,2.5,2.016L3.41,4.261a5.789,5.789,0,0,0-.51.706L.48,4.8A7.946,7.946,0,0,0,0,6.278L2.056,7.565c-.011.144-.022.288-.022.435s.011.291.022.435L0,9.722A7.893,7.893,0,0,0,.48,11.2l2.42-.168a5.789,5.789,0,0,0,.51.706L2.5,13.984a8.024,8.024,0,0,0,1.257.915l1.855-1.554a5.74,5.74,0,0,0,.831.266l.588,2.352Q7.42,16,7.814,16t.777-.038l.588-2.352a5.739,5.739,0,0,0,.831-.266L11.865,14.9a8.006,8.006,0,0,0,1.258-.915l-.906-2.245a5.787,5.787,0,0,0,.51-.706l2.42.168a7.893,7.893,0,0,0,.48-1.478L13.571,8.434C13.582,8.29,13.593,8.147,13.593,8ZM7.814,11.529A3.529,3.529,0,1,1,11.342,8,3.529,3.529,0,0,1,7.814,11.529Z" fill="#fff"/>
    <path d="M7.814,5.323A2.677,2.677,0,1,0,10.49,8,2.677,2.677,0,0,0,7.814,5.323Zm0,4.312A1.635,1.635,0,1,1,9.448,8,1.635,1.635,0,0,1,7.814,9.634Z" fill="#fff"/>
    <circle cx="7.813" cy="8" r="0.973" fill="#fff"/>
  </g>
</svg>
