<svg id="e33ef23e-5964-437f-b322-e0081cdac442" data-name="Layer 1" xmlns="http://www.w3.org/2000/svg" width="11" height="11" viewBox="0 0 11 11">
  <title>alertSidebarIconDismissed</title>
  <g>
    <path d="M2.207,6.613a7.811,7.811,0,0,0,.85.585L6.938,3.316a4.588,4.588,0,0,0-.6-.175,4.071,4.071,0,0,0-1.578-.023,4.991,4.991,0,0,0-1.374.487A7.464,7.464,0,0,0,1.558,4.964c-.1.1-.2.2-.29.308a.332.332,0,0,0,0,.455A6.653,6.653,0,0,0,2.207,6.613Z" fill="none"/>
    <path d="M9.82,5.484V5.451h0a.326.326,0,0,0-.091-.178,6.562,6.562,0,0,0-.937-.885,7.781,7.781,0,0,0-.9-.612L4,7.668a4.608,4.608,0,0,0,.651.192,4.086,4.086,0,0,0,1.579.021A4.925,4.925,0,0,0,7.6,7.4a7.5,7.5,0,0,0,1.834-1.36c.1-.1.2-.2.289-.309a.327.327,0,0,0,.091-.178h0V5.484Z" fill="none"/>
    <path d="M5.5,0A5.5,5.5,0,1,0,11,5.5,5.5,5.5,0,0,0,5.5,0ZM1.268,5.272c.091-.108.189-.209.29-.308A7.464,7.464,0,0,1,3.391,3.605a4.991,4.991,0,0,1,1.374-.487,4.071,4.071,0,0,1,1.578.023,4.588,4.588,0,0,1,.6.175L3.056,7.2a7.811,7.811,0,0,1-.85-.585,6.653,6.653,0,0,1-.938-.885A.332.332,0,0,1,1.268,5.272Zm8.552.256v.021h0a.327.327,0,0,1-.091.178c-.091.108-.19.209-.289.309A7.5,7.5,0,0,1,7.6,7.4a4.925,4.925,0,0,1-1.373.485A4.086,4.086,0,0,1,4.652,7.86,4.608,4.608,0,0,1,4,7.668L7.893,3.775a7.781,7.781,0,0,1,.9.612,6.562,6.562,0,0,1,.937.885.326.326,0,0,1,.091.178h0v.077Z" fill="#fff"/>
  </g>
</svg>
