<?xml version="1.0" encoding="utf-8"?>
<!-- Generator: Adobe Illustrator 16.0.4, SVG Export Plug-In . SVG Version: 6.00 Build 0)  -->
<!DOCTYPE svg PUBLIC "-//W3C//DTD SVG 1.1//EN" "http://www.w3.org/Graphics/SVG/1.1/DTD/svg11.dtd">
<svg version="1.1" id="Layer_1" xmlns="http://www.w3.org/2000/svg" xmlns:xlink="http://www.w3.org/1999/xlink" x="0px" y="0px"
	 width="24px" height="24px" viewBox="0 0 24 24" enable-background="new 0 0 24 24" xml:space="preserve">
<g>
	<path fill="#FFFFFF" d="M14.281,4.517l-1.115-4.46C12.782,0.02,12.394,0,12,0s-0.782,0.02-1.166,0.057l-1.115,4.46H14.281z"/>
	<path fill="#FFFFFF" d="M9.719,19.482l1.115,4.461C11.218,23.98,11.606,24,12,24s0.782-0.02,1.166-0.057l1.115-4.461H9.719z"/>
	<path fill="#FFFFFF" d="M19.82,11.857l3.9-2.439C23.552,8.647,23.311,7.906,23,7.199l-4.589,0.318L19.82,11.857z"/>
	<path fill="#FFFFFF" d="M4.179,12.143l-3.899,2.44C0.448,15.352,0.69,16.094,1,16.8l4.588-0.317L4.179,12.143z"/>
	<path fill="#FFFFFF" d="M9.447,4.605L5.922,1.651C5.249,2.048,4.618,2.508,4.036,3.023l1.72,4.264L9.447,4.605z"/>
	<path fill="#FFFFFF" d="M14.553,19.395l3.524,2.953c0.674-0.396,1.305-0.855,1.887-1.371l-1.72-4.264L14.553,19.395z"/>
	<path fill="#FFFFFF" d="M18.244,7.287l1.719-4.264c-0.581-0.516-1.212-0.976-1.886-1.372l-3.524,2.954L18.244,7.287z"/>
	<path fill="#FFFFFF" d="M5.756,16.713l-1.72,4.264c0.582,0.516,1.212,0.977,1.886,1.371l3.525-2.953L5.756,16.713z"/>
	<path fill="#FFFFFF" d="M5.588,7.518L1,7.199C0.69,7.906,0.448,8.647,0.28,9.417l3.899,2.44L5.588,7.518z"/>
	<path fill="#FFFFFF" d="M18.411,16.48L23,16.8c0.311-0.706,0.552-1.448,0.721-2.217l-3.9-2.441L18.411,16.48z"/>
	<g>
		<path fill="#FFFFFF" d="M12,3.331c-4.788,0-8.669,3.881-8.669,8.669c0,4.789,3.881,8.669,8.669,8.669s8.669-3.88,8.669-8.669
			C20.669,7.212,16.788,3.331,12,3.331z M12,17.293c-2.923,0-5.293-2.37-5.293-5.293c0-2.924,2.37-5.293,5.293-5.293
			S17.292,9.076,17.292,12C17.292,14.923,14.923,17.293,12,17.293z"/>
	</g>
	<g>
		<path fill="#FFFFFF" d="M12,7.984c-2.218,0-4.015,1.798-4.015,4.016S9.782,16.016,12,16.016s4.016-1.798,4.016-4.016
			S14.218,7.984,12,7.984z M12,14.451c-1.354,0-2.451-1.098-2.451-2.451c0-1.354,1.098-2.452,2.451-2.452
			c1.354,0,2.451,1.098,2.451,2.452C14.451,13.354,13.354,14.451,12,14.451z"/>
	</g>
	<circle fill="#FFFFFF" cx="12" cy="12" r="1.46"/>
</g>
</svg>
