<svg id="ac9a76d7-646d-45bf-b01b-f00d3245c97b" data-name="d43ca03e-3b04-46c8-99d8-8df0cd8b34e1" xmlns="http://www.w3.org/2000/svg" width="16" height="16" viewBox="0 0 16 16">
  <title>alertStatusActionIconAcknowledgeOver</title>
  <g>
    <path d="M8,0a8,8,0,1,0,8,8A8,8,0,0,0,8,0Zm6.286,8v.071a.464.464,0,0,1-.131.259c-.131.158-.277.306-.419.449a10.91,10.91,0,0,1-2.667,1.977,7.1,7.1,0,0,1-2,.7,5.931,5.931,0,0,1-2.3-.03A8.708,8.708,0,0,1,3.21,9.618,9.7,9.7,0,0,1,1.846,8.33a.483.483,0,0,1,0-.662c.134-.158.277-.3.422-.449A10.88,10.88,0,0,1,4.933,5.243a7.292,7.292,0,0,1,2-.707,5.93,5.93,0,0,1,2.3.033,8.7,8.7,0,0,1,3.559,1.813A9.613,9.613,0,0,1,14.15,7.669a.483.483,0,0,1,.131.259h0V8Z" fill="#7fefdb"/>
    <ellipse cx="8" cy="8" rx="2.419" ry="2.423" fill="#7fefdb"/>
  </g>
</svg>
