<?xml version="1.0" encoding="utf-8"?>
<!-- Generator: Adobe Illustrator 16.0.4, SVG Export Plug-In . SVG Version: 6.00 Build 0)  -->
<!DOCTYPE svg PUBLIC "-//W3C//DTD SVG 1.1//EN" "http://www.w3.org/Graphics/SVG/1.1/DTD/svg11.dtd">
<svg version="1.1" id="Layer_1" xmlns="http://www.w3.org/2000/svg" xmlns:xlink="http://www.w3.org/1999/xlink" x="0px" y="0px"
	 width="7px" height="7px" viewBox="3.5 3.5 7 7" enable-background="new 3.5 3.5 7 7" xml:space="preserve">
<g>
	<g>
		<path fill="#FFFFFF" d="M10.5,7c0,1.935-1.565,3.5-3.5,3.5S3.5,8.935,3.5,7S5.065,3.5,7,3.5S10.5,5.065,10.5,7z"/>
	</g>
	<g>
		<g>
			<path fill="#4EA3E2" d="M6.047,6.053C5.984,6.48,5.861,6.875,5.68,7.237L3.728,6.469C3.77,6.139,3.877,5.824,4.047,5.525
				L6.047,6.053z M5.808,7.572c0.17,0.086,0.341,0.189,0.512,0.312c0.17,0.123,0.336,0.26,0.496,0.408L5.488,9.908
				C5.338,9.824,5.197,9.736,5.064,9.645C4.93,9.555,4.805,9.445,4.688,9.316L5.808,7.572z M6.512,3.765
				c0.159-0.032,0.319-0.048,0.479-0.048s0.33,0.016,0.512,0.048l0.127,2.08C7.514,5.867,7.405,5.88,7.304,5.885
				C7.203,5.89,7.098,5.893,6.992,5.893S6.781,5.89,6.68,5.885c-0.102-0.005-0.2-0.019-0.297-0.04L6.512,3.765z M9.312,9.316
				C9.193,9.445,9.068,9.555,8.936,9.645C8.803,9.736,8.66,9.824,8.512,9.908L7.184,8.293C7.344,8.145,7.51,8.008,7.68,7.885
				s0.342-0.227,0.512-0.312L9.312,9.316z M9.951,5.525c0.172,0.299,0.277,0.614,0.32,0.944L8.32,7.237
				C8.139,6.875,8.016,6.48,7.951,6.053L9.951,5.525z"/>
		</g>
	</g>
</g>
</svg>
