<svg id="d188db89-815e-4909-844b-dbeb6e00bd2c" data-name="Layer 1" xmlns="http://www.w3.org/2000/svg" width="11" height="11" viewBox="0 0 11 11">
  <title>alertSidebarIconInvalid</title>
  <g>
    <path d="M5.5,0A5.5,5.5,0,1,0,11,5.5,5.5,5.5,0,0,0,5.5,0Zm0,9.969A4.469,4.469,0,1,1,9.969,5.5,4.469,4.469,0,0,1,5.5,9.969Z" fill="#fff"/>
    <path d="M2.406,5.5A3.088,3.088,0,0,0,7.144,8.116l-4.26-4.26A3.071,3.071,0,0,0,2.406,5.5Z" fill="#fff"/>
    <path d="M5.5,2.406a3.07,3.07,0,0,0-1.644.478l4.26,4.26A3.088,3.088,0,0,0,5.5,2.406Z" fill="#fff"/>
  </g>
</svg>
