<svg id="74daa348-cbfa-4d3f-a781-616ab9e1a78e" data-name="Layer 1" xmlns="http://www.w3.org/2000/svg" width="16" height="16" viewBox="0 0 16 16">
  <title>alertStatusIconPredicted</title>
  <g>
    <circle cx="8" cy="8" r="8" fill="#ff2b00"/>
    <path d="M6.992,12.227a6.238,6.238,0,0,1-.082-1,6.5,6.5,0,0,1,.082-1.015,6.26,6.26,0,0,1,1-.082,6.526,6.526,0,0,1,1.015.082,6.418,6.418,0,0,1,.082,1,6.321,6.321,0,0,1-.082,1.015,6.448,6.448,0,0,1-1,.082A6.345,6.345,0,0,1,6.992,12.227ZM6.938,2.367a6.959,6.959,0,0,1,1.056-.083,7.049,7.049,0,0,1,1.07.083L8.926,9.073a5.459,5.459,0,0,1-.919.082,5.375,5.375,0,0,1-.933-.082Z" fill="#fff"/>
  </g>
</svg>
