<?xml version="1.0" encoding="utf-8"?>
<!-- Generator: Adobe Illustrator 16.0.4, SVG Export Plug-In . SVG Version: 6.00 Build 0)  -->
<!DOCTYPE svg PUBLIC "-//W3C//DTD SVG 1.1//EN" "http://www.w3.org/Graphics/SVG/1.1/DTD/svg11.dtd">
<svg version="1.1" id="Layer_1" xmlns="http://www.w3.org/2000/svg" xmlns:xlink="http://www.w3.org/1999/xlink" x="0px" y="0px"
	 width="28px" height="28px" viewBox="0 0 28 28" enable-background="new 0 0 28 28" xml:space="preserve">
<g opacity="0.5">
	<circle fill="#A31373" cx="14" cy="14" r="14"/>
	<g>
		<path fill="#FFFFFF" d="M12.235,21.397c-0.096-0.592-0.144-1.176-0.144-1.752s0.048-1.168,0.144-1.777
			c0.592-0.096,1.177-0.143,1.752-0.143c0.576,0,1.168,0.047,1.776,0.143c0.097,0.609,0.145,1.193,0.145,1.753
			c0,0.593-0.048,1.185-0.145,1.776c-0.608,0.096-1.192,0.143-1.752,0.143C13.419,21.54,12.827,21.493,12.235,21.397z M12.14,4.142
			c0.624-0.096,1.239-0.145,1.848-0.145c0.624,0,1.248,0.049,1.873,0.145l-0.24,11.736c-0.561,0.096-1.097,0.143-1.608,0.143
			c-0.544,0-1.088-0.047-1.633-0.143L12.14,4.142z"/>
	</g>
</g>
</svg>
