<?xml version="1.0" encoding="utf-8"?>
<!-- Generator: Adobe Illustrator 16.0.4, SVG Export Plug-In . SVG Version: 6.00 Build 0)  -->
<!DOCTYPE svg PUBLIC "-//W3C//DTD SVG 1.1//EN" "http://www.w3.org/Graphics/SVG/1.1/DTD/svg11.dtd">
<svg version="1.1" id="Layer_1" xmlns="http://www.w3.org/2000/svg" xmlns:xlink="http://www.w3.org/1999/xlink" x="0px" y="0px"
	 width="14px" height="14px" viewBox="0 0 14 14" enable-background="new 0 0 14 14" xml:space="preserve">
<g>
	<path fill="#FFFFFF" d="M14,7c0,3.869-3.131,7-7,7s-7-3.131-7-7s3.131-7,7-7S14,3.131,14,7z"/>
	<g>
		<path fill="#4EA3E2" d="M5.332,5.667C5.223,6.419,5.011,7.109,4.689,7.745L1.271,6.398c0.075-0.581,0.267-1.128,0.561-1.654
			L5.332,5.667z M4.915,8.333c0.294,0.144,0.595,0.328,0.896,0.54c0.301,0.219,0.588,0.458,0.868,0.718l-2.324,2.83
			c-0.26-0.15-0.506-0.308-0.745-0.465c-0.232-0.157-0.451-0.349-0.656-0.574L4.915,8.333z M6.146,1.668
			c0.28-0.055,0.561-0.089,0.841-0.089s0.581,0.034,0.896,0.089l0.226,3.637C7.902,5.346,7.711,5.366,7.533,5.373
			C7.355,5.387,7.171,5.387,6.986,5.387s-0.369,0-0.547-0.014C6.262,5.366,6.091,5.346,5.92,5.305L6.146,1.668z M11.047,11.382
			c-0.205,0.226-0.424,0.417-0.656,0.574c-0.24,0.157-0.486,0.314-0.746,0.465l-2.323-2.83c0.28-0.26,0.567-0.499,0.868-0.718
			c0.301-0.212,0.594-0.396,0.895-0.54L11.047,11.382z M12.168,4.744c0.293,0.526,0.484,1.073,0.561,1.654L9.311,7.745
			C8.988,7.109,8.777,6.419,8.668,5.667L12.168,4.744z"/>
	</g>
</g>
</svg>
