<svg id="2f3672f8-5f64-4e30-a818-c1a4eb2e0028" data-name="Layer 1" xmlns="http://www.w3.org/2000/svg" width="12" height="12" viewBox="0 0 12 12">
  <title>alertSidebarIconDeleteOver</title>
  <g>
    <path d="M6,0a6,6,0,1,0,6,6A6,6,0,0,0,6,0ZM9.182,8.476l-.707.707L6,6.708,3.525,9.182l-.707-.708L5.293,6,2.818,3.525l.707-.707L6,5.293,8.475,2.818l.707.707L6.707,6Z" fill="#f5b2a4"/>
    <polygon points="8.475 2.818 6 5.293 3.525 2.818 2.818 3.525 5.293 6 2.818 8.475 3.525 9.182 6 6.708 8.475 9.182 9.182 8.476 6.707 6 9.182 3.525 8.475 2.818" fill="#25373e"/>
  </g>
</svg>
