<svg id="ab82c8da-b3f4-41f6-b46a-ef71019d6806" data-name="Layer 1" xmlns="http://www.w3.org/2000/svg" width="12" height="12" viewBox="0 0 12 12">
  <title>alertListRefresh</title>
  <path d="M10.345,7.125A4.409,4.409,0,0,1,1.737,6.39,4.191,4.191,0,0,1,2.7,3.3a4.459,4.459,0,0,1,6.481-.352L7.068,5.055h4.764V.3L10.4,1.733A6.173,6.173,0,0,0,5.554.024,6.1,6.1,0,0,0,1.383,2.2,5.891,5.891,0,0,0,.026,6.55,6.076,6.076,0,0,0,6.107,12c.186,0,.374-.008.563-.025A6.114,6.114,0,0,0,12,7.586Z" fill="#fff"/>
</svg>
