<svg id="df60cec6-3db3-4c81-9407-37aaf499e2e8" data-name="edd1c56e-e285-4267-8864-5bee3d0d4aa5" xmlns="http://www.w3.org/2000/svg" width="16" height="16" viewBox="0 0 16 16">
  <title>alertFilterIconMaintenances</title>
  <g id="591683c0-f655-4690-aaae-cafe3ea396dd" data-name="7857cb8f-a0db-4c54-9bfc-a7bc86598923">
    <g id="f54c205f-398d-4b9a-b1f4-6bc2b75e1183" data-name="f43ee173-be86-4803-8e78-a577354fb1b7">
      <circle cx="8" cy="8" r="8" fill="#758b98"/>
    </g>
    <path d="M12.048,10.279l-3.4-3.4A2.747,2.747,0,0,0,5.19,3.422L6.282,4.513l.195.195L7.1,5.33a.25.25,0,0,1,.065.242l-.3,1.115a.25.25,0,0,1-.178.178l-1.116.3A.25.25,0,0,1,5.334,7.1l-.622-.622-.195-.195L3.423,5.19a2.747,2.747,0,0,0,3.46,3.461l3.4,3.4a.75.75,0,0,0,1.06,0l.711-.711A.75.75,0,0,0,12.048,10.279Z" fill="#fff"/>
  </g>
</svg>
