<svg id="0d07e94e-3e88-405f-bedb-482b5b3550c5" data-name="Layer 1" xmlns="http://www.w3.org/2000/svg" width="14" height="14" viewBox="0 0 14 14">
  <title>alertEventIconPredition</title>
  <g id="3db2c490-5241-4ccc-ba95-1a5256591133" data-name="predictive">
    <circle cx="7" cy="7" r="7" fill="#7032e3"/>
    <g>
      <circle cx="7" cy="5.894" r="4.594" fill="#fff" opacity="0.55"/>
      <ellipse cx="7" cy="11.988" rx="3.439" ry="0.706" fill="#fff" opacity="0.55"/>
      <g>
        <g>
          <path d="M11.292,6.777l-.75-.154a3.663,3.663,0,0,0,0-1.458l.75-.154a4.422,4.422,0,0,1,0,1.765Z" fill="#fff"/>
          <path d="M3.384,5.894H2.619a4.4,4.4,0,0,1,.089-.883,4.365,4.365,0,0,1,.659-1.567A4.389,4.389,0,0,1,5.294,1.857,4.361,4.361,0,0,1,6.117,1.6a4.441,4.441,0,0,1,1.765,0,4.355,4.355,0,0,1,.823.256l-.3.705a3.614,3.614,0,0,0-.679-.211,3.681,3.681,0,0,0-1.458,0A3.6,3.6,0,0,0,4.978,2.9,3.634,3.634,0,0,0,4,3.873a3.6,3.6,0,0,0-.617,2.021Z" fill="#fff"/>
          <path d="M7,10.276a4.4,4.4,0,0,1-.883-.089A4.365,4.365,0,0,1,4.55,9.527,4.419,4.419,0,0,1,3.9,8.993l.541-.542a3.666,3.666,0,0,0,.536.442,3.6,3.6,0,0,0,1.292.544,3.681,3.681,0,0,0,1.458,0,3.614,3.614,0,0,0,.679-.211l.3.705a4.355,4.355,0,0,1-.823.256A4.4,4.4,0,0,1,7,10.276Z" fill="#fff"/>
        </g>
        <path d="M7,9.347a3.471,3.471,0,0,1-.7-.07,3.44,3.44,0,0,1-1.235-.52,3.483,3.483,0,0,1-.511-.421l.426-.427a2.889,2.889,0,0,0,.422.348,2.835,2.835,0,0,0,1.018.429,2.9,2.9,0,0,0,1.149,0,2.848,2.848,0,0,0,.535-.166l.235.556a3.432,3.432,0,0,1-.648.2A3.471,3.471,0,0,1,7,9.347Z" fill="#fff"/>
      </g>
      <circle cx="7" cy="5.894" r="2.601" fill="#fff" opacity="0.33"/>
      <circle cx="7" cy="5.894" r="2.015" fill="#fff" opacity="0.33"/>
      <circle cx="7" cy="5.894" r="1.469" fill="#fff"/>
    </g>
  </g>
</svg>
