<?xml version="1.0" encoding="utf-8"?>
<!-- Generator: Adobe Illustrator 16.0.4, SVG Export Plug-In . SVG Version: 6.00 Build 0)  -->
<!DOCTYPE svg PUBLIC "-//W3C//DTD SVG 1.1//EN" "http://www.w3.org/Graphics/SVG/1.1/DTD/svg11.dtd">
<svg version="1.1" id="Layer_1" xmlns="http://www.w3.org/2000/svg" xmlns:xlink="http://www.w3.org/1999/xlink" x="0px" y="0px"
	 width="18px" height="18px" viewBox="0 0 18 18" enable-background="new 0 0 18 18" xml:space="preserve">
<g opacity="0">
	<rect x="0" fill="#E1E6E4" width="18" height="18"/>
</g>
<g>
	<path fill="#FFFFFF" d="M3.119,4.682v4.545V11.5c0,0.376,0.303,0.682,0.679,0.682h0.509c0,1.004,0.811,1.818,1.81,1.818
		c1,0,1.81-0.814,1.81-1.818h1.979c0,1.004,0.812,1.818,1.81,1.818c1,0,1.811-0.814,1.811-1.818h0.679
		c0.375,0,0.679-0.305,0.679-0.682V9.511V9.228V8.091c0-0.302-0.119-0.591-0.332-0.804l-1.413-1.42
		c-0.212-0.213-0.5-0.333-0.801-0.333h-1.073V4.682c0-0.377-0.306-0.682-0.68-0.682H3.797C3.421,4,3.119,4.305,3.119,4.682z
		 M13.751,8.545h-2.488V6.67h1.073l1.415,1.42V8.545z M11.036,12.182c0-0.071,0.012-0.139,0.032-0.204
		c0.032-0.105,0.089-0.198,0.163-0.274c0.123-0.126,0.295-0.204,0.483-0.204c0.375,0,0.679,0.306,0.679,0.682
		s-0.304,0.682-0.679,0.682C11.341,12.863,11.036,12.558,11.036,12.182z M5.437,12.182c0-0.376,0.305-0.682,0.679-0.682
		s0.679,0.306,0.679,0.682s-0.305,0.682-0.679,0.682S5.437,12.558,5.437,12.182z"/>
</g>
</svg>
