<svg id="5b1fe8f6-16ce-4b1b-82f3-7f1d53d528ad" data-name="Layer 1" xmlns="http://www.w3.org/2000/svg" width="16" height="16" viewBox="0 0 16 16">
  <title>alertStatusIconAlarm</title>
  <g>
    <circle cx="8" cy="8" r="8" fill="#758b98"/>
    <g>
      <path d="M9.5,11.922a1.5,1.5,0,1,1-3,0" fill="#fff"/>
      <path d="M12.941,11.077A3.438,3.438,0,0,1,11.588,8.37c-.049-.676-.046-1.357-.115-2.031A3.048,3.048,0,0,0,9.5,3.487a3.363,3.363,0,0,0-.751-.167.749.749,0,0,0-1.5,0,3.362,3.362,0,0,0-.751.167A3.048,3.048,0,0,0,4.527,6.339c-.069.674-.066,1.354-.115,2.031a3.438,3.438,0,0,1-1.353,2.707,4.136,4.136,0,0,0-.323.3H13.264A4.137,4.137,0,0,0,12.941,11.077Z" fill="#fff"/>
    </g>
  </g>
</svg>
