<?xml version="1.0" encoding="utf-8"?>
<!-- Generator: Adobe Illustrator 16.0.4, SVG Export Plug-In . SVG Version: 6.00 Build 0)  -->
<!DOCTYPE svg PUBLIC "-//W3C//DTD SVG 1.1//EN" "http://www.w3.org/Graphics/SVG/1.1/DTD/svg11.dtd">
<svg version="1.1" id="Layer_1" xmlns="http://www.w3.org/2000/svg" xmlns:xlink="http://www.w3.org/1999/xlink" x="0px" y="0px"
	 width="28px" height="28px" viewBox="0 0 28 28" enable-background="new 0 0 28 28" xml:space="preserve">
<g opacity="0.5">
	<circle fill="#35BDB2" cx="14" cy="14" r="14"/>
	<g>
		<path fill="#FFFFFF" d="M24.997,13.96c0-0.011,0-0.021,0-0.027c0-0.006-0.004-0.013-0.004-0.013c0-0.009,0-0.016,0-0.02
			c-0.001-0.009-0.003-0.018-0.003-0.025v-0.002c-0.028-0.172-0.107-0.332-0.23-0.453c-0.702-0.834-1.537-1.577-2.386-2.254
			c-1.829-1.459-3.921-2.681-6.229-3.171c-1.333-0.285-2.674-0.296-4.016-0.058c-1.221,0.221-2.395,0.675-3.497,1.24
			c-1.723,0.881-3.293,2.097-4.665,3.458c-0.255,0.252-0.505,0.51-0.737,0.785c-0.308,0.365-0.308,0.797,0,1.159
			c0.703,0.834,1.54,1.575,2.388,2.253c1.826,1.459,3.918,2.684,6.226,3.174c1.336,0.281,2.678,0.295,4.019,0.054
			c1.22-0.217,2.396-0.671,3.495-1.235c1.725-0.882,3.296-2.1,4.669-3.461c0.251-0.251,0.504-0.51,0.734-0.784
			c0.123-0.122,0.203-0.28,0.23-0.454v-0.002c0.002-0.008,0.002-0.016,0.003-0.023c0-0.005,0-0.012,0-0.018
			c0.004-0.005,0.004-0.01,0.004-0.012c0-0.013,0-0.02,0-0.029c0-0.015,0.002-0.028,0.002-0.041
			C24.999,13.986,24.997,13.974,24.997,13.96z M14,18.24c-2.338,0-4.234-1.897-4.234-4.24c0-2.342,1.896-4.24,4.234-4.24
			s4.233,1.896,4.233,4.24C18.233,16.343,16.338,18.24,14,18.24z"/>
	</g>
</g>
</svg>
