<svg id="be1e22bc-b330-4fa8-aee6-0a21a44a8e13" data-name="b09afc3e-0c36-473e-9f27-bc3aa1965a25" xmlns="http://www.w3.org/2000/svg" width="16" height="16" viewBox="0 0 16 16">
  <title>alertStatusActionIconMarkInvalid</title>
  <g>
    <path d="M8,3.5a4.47,4.47,0,0,0-2.386.7L11.8,10.387A4.484,4.484,0,0,0,8,3.5Z" fill="#fff"/>
    <path d="M8,0a8,8,0,1,0,8,8A8,8,0,0,0,8,0ZM8,14.5A6.5,6.5,0,1,1,14.5,8,6.5,6.5,0,0,1,8,14.5Z" fill="#fff"/>
    <path d="M3.5,8a4.484,4.484,0,0,0,6.887,3.8L4.2,5.614A4.47,4.47,0,0,0,3.5,8Z" fill="#fff"/>
  </g>
</svg>
