<svg id="5335dab0-3fa3-4cc6-a50c-8ec0b8424349" data-name="ac9a76d7-646d-45bf-b01b-f00d3245c97b" xmlns="http://www.w3.org/2000/svg" width="16" height="16" viewBox="0 0 16 16">
  <title>alertStatusActionIconDismissOver</title>
  <g>
    <path d="M3.21,9.619a11.361,11.361,0,0,0,1.236.85l5.646-5.646a6.674,6.674,0,0,0-.866-.255,5.922,5.922,0,0,0-2.3-.033,7.26,7.26,0,0,0-2,.708A10.856,10.856,0,0,0,2.267,7.22c-.146.144-.289.292-.422.449a.483.483,0,0,0,0,.662A9.677,9.677,0,0,0,3.21,9.619Z" fill="none"/>
    <path d="M14.283,7.977V7.943l0-.01V7.928a.474.474,0,0,0-.132-.259,9.545,9.545,0,0,0-1.363-1.288,11.317,11.317,0,0,0-1.3-.89L5.819,11.153a6.7,6.7,0,0,0,.947.279,5.943,5.943,0,0,0,2.3.031,7.164,7.164,0,0,0,2-.705A10.908,10.908,0,0,0,13.729,8.78c.143-.144.288-.292.42-.449a.476.476,0,0,0,.132-.26h0l0-.014v-.08Z" fill="none"/>
    <path d="M8,0a8,8,0,1,0,8,8A8,8,0,0,0,8,0ZM1.845,7.669c.133-.157.276-.3.422-.449A10.856,10.856,0,0,1,4.932,5.244a7.26,7.26,0,0,1,2-.708,5.922,5.922,0,0,1,2.3.033,6.674,6.674,0,0,1,.866.255L4.446,10.469a11.361,11.361,0,0,1-1.236-.85A9.677,9.677,0,0,1,1.845,8.331.483.483,0,0,1,1.845,7.669Zm12.439.372v.014l0,.017h0a.476.476,0,0,1-.132.26c-.132.157-.277.3-.42.449a10.908,10.908,0,0,1-2.668,1.978,7.164,7.164,0,0,1-2,.705,5.943,5.943,0,0,1-2.3-.031,6.7,6.7,0,0,1-.947-.279l5.662-5.662a11.317,11.317,0,0,1,1.3.89,9.545,9.545,0,0,1,1.363,1.288.474.474,0,0,1,.132.259h0l0,.015v.1Z" fill="#7fefdb"/>
  </g>
</svg>
