<?xml version="1.0" encoding="utf-8"?>
<!-- Generator: Adobe Illustrator 16.0.4, SVG Export Plug-In . SVG Version: 6.00 Build 0)  -->
<!DOCTYPE svg PUBLIC "-//W3C//DTD SVG 1.1//EN" "http://www.w3.org/Graphics/SVG/1.1/DTD/svg11.dtd">
<svg version="1.1" id="Layer_1" xmlns="http://www.w3.org/2000/svg" xmlns:xlink="http://www.w3.org/1999/xlink" x="0px" y="0px"
	 width="28px" height="28px" viewBox="0 0 28 28" enable-background="new 0 0 28 28" xml:space="preserve">
<g opacity="0.5">
	<g>
		<circle fill="#FFFFFF" cx="14" cy="14" r="14"/>
		<g>
			<path fill="#4EA3E2" d="M10.668,11.34c-0.224,1.494-0.653,2.875-1.287,4.145l-6.832-2.688c0.148-1.156,0.522-2.258,1.119-3.304
				L10.668,11.34z M9.829,16.66c0.596,0.3,1.194,0.664,1.791,1.092c0.597,0.43,1.176,0.905,1.736,1.428l-4.648,5.657
				c-0.523-0.299-1.018-0.607-1.483-0.925c-0.467-0.316-0.906-0.7-1.316-1.147L9.829,16.66z M12.293,3.333
				c0.559-0.113,1.119-0.169,1.68-0.169c0.56,0,1.155,0.056,1.791,0.169l0.448,7.279c-0.41,0.075-0.793,0.122-1.146,0.14
				c-0.355,0.019-0.72,0.028-1.093,0.028c-0.374,0-0.738-0.009-1.092-0.028c-0.355-0.018-0.7-0.065-1.037-0.14L12.293,3.333z
				 M22.093,22.765c-0.412,0.447-0.85,0.831-1.316,1.147c-0.467,0.317-0.962,0.626-1.483,0.925l-4.648-5.657
				c0.561-0.522,1.139-0.998,1.736-1.428c0.597-0.428,1.194-0.792,1.791-1.092L22.093,22.765z M24.333,9.492
				c0.597,1.046,0.969,2.147,1.119,3.304l-6.832,2.688c-0.635-1.27-1.063-2.65-1.287-4.145L24.333,9.492z"/>
		</g>
	</g>
</g>
</svg>
