<svg id="d10e10bd-cac2-416a-ab37-3d6f624e3658" data-name="Layer 1" xmlns="http://www.w3.org/2000/svg" width="11" height="11" viewBox="0 0 11 11">
  <title>alertSidebarIconAcknowledged</title>
  <g>
    <circle cx="5.5" cy="5.5" r="1.663" fill="#fff"/>
    <path d="M5.5,0A5.5,5.5,0,1,0,11,5.5,5.5,5.5,0,0,0,5.5,0ZM9.82,5.528v.021h0a.327.327,0,0,1-.091.178c-.091.108-.19.209-.289.308A7.493,7.493,0,0,1,7.6,7.4a4.923,4.923,0,0,1-1.373.485,4.085,4.085,0,0,1-1.579-.021A5.991,5.991,0,0,1,2.207,6.613a6.656,6.656,0,0,1-.938-.885.332.332,0,0,1,0-.455c.091-.108.189-.209.29-.309A7.467,7.467,0,0,1,3.391,3.605a4.989,4.989,0,0,1,1.374-.487,4.07,4.07,0,0,1,1.578.023A5.992,5.992,0,0,1,8.789,4.387a6.552,6.552,0,0,1,.937.885.325.325,0,0,1,.091.178h0v.077Z" fill="#fff"/>
  </g>
</svg>
