<?xml version="1.0" encoding="utf-8"?>
<!-- Generator: Adobe Illustrator 16.0.4, SVG Export Plug-In . SVG Version: 6.00 Build 0)  -->
<!DOCTYPE svg PUBLIC "-//W3C//DTD SVG 1.1//EN" "http://www.w3.org/Graphics/SVG/1.1/DTD/svg11.dtd">
<svg version="1.1" id="Layer_1" xmlns="http://www.w3.org/2000/svg" xmlns:xlink="http://www.w3.org/1999/xlink" x="0px" y="0px"
	 width="18px" height="18px" viewBox="0 0 18 18" enable-background="new 0 0 18 18" xml:space="preserve">
<g opacity="0">
	<rect fill="#FFFFFF" width="18" height="18"/>
</g>
<g>
	<path fill="#FFFFFF" d="M11.052,11.003c-0.009,0.006-0.017,0.015-0.022,0.025c-0.003,0.004-0.697,1.181-2.624-1.556
		C6.479,6.735,7.829,6.488,7.833,6.487c0.012-0.002,0.022-0.005,0.032-0.012C8.009,6.373,7.739,5.74,7.26,5.061
		C6.806,4.415,6.328,3.96,6.157,4.003v0c-0.001,0-0.002,0.001-0.004,0.002C6.146,4.007,6.138,4.009,6.132,4.013
		s-0.01,0.011-0.014,0.016C5.397,4.51,3.86,4.874,7.527,10.084c3.668,5.21,4.537,3.897,5.238,3.389
		c0.007-0.002,0.015-0.004,0.02-0.008c0.006-0.004,0.011-0.011,0.016-0.018c0.001,0,0.002-0.001,0.003-0.001v-0.001
		c0.099-0.146-0.167-0.748-0.621-1.394C11.703,11.371,11.198,10.902,11.052,11.003z"/>
</g>
</svg>
