<svg id="908b40f4-8e55-4f81-8eaf-665d2cddcb8a" data-name="Layer 1" xmlns="http://www.w3.org/2000/svg" width="16" height="16" viewBox="0 0 16 16">
  <title>alertStatusIconAcknowledged</title>
  <g>
    <circle cx="8" cy="8" r="8" fill="#35bdb2"/>
    <path d="M14.286,7.977V7.961l0-.009v-.01l0-.015h0a.483.483,0,0,0-.131-.259,9.616,9.616,0,0,0-1.363-1.287A8.7,8.7,0,0,0,9.227,4.569a5.931,5.931,0,0,0-2.3-.033,7.294,7.294,0,0,0-2,.707A10.88,10.88,0,0,0,2.267,7.219c-.145.144-.288.291-.422.449a.483.483,0,0,0,0,.662A9.694,9.694,0,0,0,3.21,9.618a8.707,8.707,0,0,0,3.557,1.814,5.931,5.931,0,0,0,2.3.03,7.105,7.105,0,0,0,2-.705,10.911,10.911,0,0,0,2.667-1.977c.143-.143.288-.291.419-.449a.464.464,0,0,0,.131-.259h0l0-.015v-.01l0-.006V7.977ZM8,10.424A2.423,2.423,0,1,1,10.419,8,2.422,2.422,0,0,1,8,10.424Z" fill="#fff"/>
  </g>
</svg>
