<?xml version="1.0" encoding="utf-8"?>
<!-- Generator: Adobe Illustrator 16.0.4, SVG Export Plug-In . SVG Version: 6.00 Build 0)  -->
<!DOCTYPE svg PUBLIC "-//W3C//DTD SVG 1.1//EN" "http://www.w3.org/Graphics/SVG/1.1/DTD/svg11.dtd">
<svg version="1.1" id="Layer_1" xmlns="http://www.w3.org/2000/svg" xmlns:xlink="http://www.w3.org/1999/xlink" x="0px" y="0px"
	 width="48px" height="48px" viewBox="0 0 48 48" enable-background="new 0 0 48 48" xml:space="preserve">
<g>
	<g>
		<g>
			<g>
				<circle fill="#25373E" cx="24" cy="24" r="24"/>
				<g>
					<path fill="#FFFFFF" d="M13,15.19v9.273V29.1c0,0.769,0.619,1.392,1.386,1.392h1.037c0,2.048,1.654,3.709,3.692,3.709
						c2.04,0,3.691-1.661,3.691-3.709h4.039c0,2.048,1.654,3.709,3.692,3.709c2.039,0,3.692-1.661,3.692-3.709h1.385
						C36.38,30.491,37,29.868,37,29.1v-4.058v-0.578v-2.318c0-0.615-0.243-1.205-0.677-1.639l-2.883-2.898
						c-0.433-0.436-1.021-0.68-1.634-0.68h-2.19V15.19c0-0.768-0.622-1.391-1.386-1.391H14.386C13.619,13.8,13,14.423,13,15.19z
						 M34.693,23.073h-5.077v-3.826h2.19l2.887,2.898V23.073z M29.152,30.491c0-0.146,0.024-0.284,0.065-0.416
						c0.067-0.214,0.182-0.403,0.334-0.56c0.251-0.256,0.601-0.416,0.986-0.416c0.764,0,1.385,0.624,1.385,1.392
						c0,0.767-0.621,1.39-1.385,1.39C29.775,31.881,29.152,31.258,29.152,30.491z M17.73,30.491c0-0.768,0.622-1.392,1.385-1.392
						c0.764,0,1.385,0.624,1.385,1.392c0,0.767-0.621,1.39-1.385,1.39C18.353,31.881,17.73,31.258,17.73,30.491z"/>
				</g>
			</g>
		</g>
	</g>
</g>
</svg>
