<?xml version="1.0" encoding="utf-8"?>
<!-- Generator: Adobe Illustrator 16.0.4, SVG Export Plug-In . SVG Version: 6.00 Build 0)  -->
<!DOCTYPE svg PUBLIC "-//W3C//DTD SVG 1.1//EN" "http://www.w3.org/Graphics/SVG/1.1/DTD/svg11.dtd">
<svg version="1.1" id="Layer_1" xmlns="http://www.w3.org/2000/svg" xmlns:xlink="http://www.w3.org/1999/xlink" x="0px" y="0px"
	 width="48px" height="48px" viewBox="0 0 48 48" enable-background="new 0 0 48 48" xml:space="preserve">
<g>
	<g>
		<g>
			<g>
				<circle fill="#25373E" cx="24" cy="24" r="24"/>
				<g>
					<path opacity="0.75" fill="#FFFFFF" d="M37.667,34.07L30.26,16.478c0-0.512-2.803-0.925-6.26-0.925
						c-3.458,0-6.26,0.414-6.26,0.925L10.333,34.07c-0.066,0.081-0.104,0.162-0.104,0.246c0,1.125,6.165,2.034,13.771,2.034
						c7.606,0,13.771-0.909,13.771-2.034C37.771,34.232,37.732,34.151,37.667,34.07z"/>
					<polygon fill="#25373E" points="21.529,12.682 26.542,12.682 24.229,31.897 23.843,31.897 					"/>
					<circle fill="#FFFFFF" cx="24.036" cy="9.006" r="2.355"/>
				</g>
			</g>
		</g>
	</g>
</g>
</svg>
