<?xml version="1.0" encoding="utf-8"?>
<!-- Generator: Adobe Illustrator 16.0.4, SVG Export Plug-In . SVG Version: 6.00 Build 0)  -->
<!DOCTYPE svg PUBLIC "-//W3C//DTD SVG 1.1//EN" "http://www.w3.org/Graphics/SVG/1.1/DTD/svg11.dtd">
<svg version="1.1" id="Layer_1" xmlns="http://www.w3.org/2000/svg" xmlns:xlink="http://www.w3.org/1999/xlink" x="0px" y="0px"
	 width="48px" height="48px" viewBox="0 0 48 48" enable-background="new 0 0 48 48" xml:space="preserve">
<g>
	<g>
		<g>
			<g>
				<circle fill="#25373E" cx="24" cy="24" r="24"/>
				<g>
					<g>
						<path fill="#FFFFFF" d="M30.697,11.584c0,2.055-1.666,3.721-3.721,3.721h-5.954c-2.056,0-3.721-1.666-3.721-3.721l0,0
							c0-2.055,1.665-3.721,3.721-3.721h5.954C29.031,7.863,30.697,9.529,30.697,11.584L30.697,11.584z"/>
						<g>
							<circle fill="#25373E" cx="26.977" cy="11.584" r="2.977"/>
						</g>
						<g>
							<g>
								<polygon fill="#FFFFFF" points="26.674,12.624 25.732,11.682 26.127,11.288 26.674,11.834 27.965,10.544 28.359,10.939 
																	"/>
							</g>
						</g>
					</g>
					<g>
						<path fill="#FFFFFF" d="M30.697,27.956c0,2.055-1.666,3.721-3.721,3.721h-5.954c-2.056,0-3.721-1.666-3.721-3.721l0,0
							c0-2.056,1.665-3.721,3.721-3.721h5.954C29.031,24.235,30.697,25.9,30.697,27.956L30.697,27.956z"/>
						<g>
							<circle fill="#25373E" cx="26.977" cy="27.956" r="2.978"/>
						</g>
						<g>
							<g>
								<polygon fill="#FFFFFF" points="26.674,28.996 25.732,28.055 26.127,27.66 26.674,28.207 27.965,26.916 28.359,27.311 
																	"/>
							</g>
						</g>
					</g>
					<g>
						<path fill="#FFFFFF" d="M30.697,36.143c0,2.056-1.666,3.722-3.721,3.722h-5.954c-2.056,0-3.721-1.666-3.721-3.722l0,0
							c0-2.056,1.665-3.721,3.721-3.721h5.954C29.031,32.422,30.697,34.087,30.697,36.143L30.697,36.143z"/>
						<g>
							<circle fill="#25373E" cx="26.977" cy="36.143" r="2.977"/>
						</g>
						<g>
							<g>
								<polygon fill="#FFFFFF" points="26.674,37.182 25.732,36.24 26.127,35.846 26.674,36.393 27.965,35.103 28.359,35.497 
																	"/>
							</g>
						</g>
					</g>
					<g>
						<path fill="#FFFFFF" d="M30.697,19.77c0,2.055-1.666,3.721-3.721,3.721h-5.954c-2.056,0-3.721-1.666-3.721-3.721l0,0
							c0-2.055,1.665-3.721,3.721-3.721h5.954C29.031,16.049,30.697,17.715,30.697,19.77L30.697,19.77z"/>
						<g>
							<circle fill="#25373E" cx="21.023" cy="19.77" r="2.977"/>
						</g>
					</g>
				</g>
			</g>
		</g>
	</g>
</g>
</svg>
