<svg id="c53edad7-aafa-47db-99b4-a715078b5860" data-name="Layer 1" xmlns="http://www.w3.org/2000/svg" width="48" height="48" viewBox="0 0 48 48">
  <title>appsMenuIconLabs</title>
  <g id="0365297b-0170-46c9-8153-c37f9ebc0bd8" data-name="labIcon">
    <circle id="071d9939-9dca-41a0-a7c4-fec0994864a9" data-name="iconBackground" cx="24" cy="24" r="24" fill="#25373e"/>
    <path d="M33.888,33L27.939,22.7V15.359a1.3,1.3,0,0,0,0-2.6h-7.8a1.3,1.3,0,0,0,0,2.6V22.7L14.185,33a3.9,3.9,0,0,0,3.379,5.853H30.508A3.9,3.9,0,0,0,33.888,33Z" fill="#fff"/>
    <g opacity="0.5">
      <path d="M26.766,27.891c1.823,0.8,3.359-1.405,3.359-1.405L33.888,33a3.9,3.9,0,0,1-3.379,5.853H17.565A3.9,3.9,0,0,1,14.185,33L17.27,27.66s1.268,2.574,3.308.98A5.94,5.94,0,0,1,26.766,27.891Z" fill="#a3b7c1"/>
    </g>
    <g id="f285f5c8-8532-42b0-911e-3aeb0686884e" data-name="externalBubbles">
      <circle cx="23.593" cy="7.217" r="0.976" fill="#a3b7c1"/>
      <circle cx="26.399" cy="8.86" r="0.65" fill="#a3b7c1"/>
      <circle cx="25.545" cy="3.983" r="0.65" fill="#a3b7c1"/>
    </g>
    <g id="2792a916-3931-4aa7-860c-73a0480f4d8a" data-name="internalBubbles">
      <circle cx="20.134" cy="32.982" r="1.951" fill="#46616f"/>
      <circle cx="26.399" cy="28.366" r="1.301" fill="#46616f"/>
      <circle cx="24.569" cy="23.945" r="0.976" fill="#46616f"/>
      <circle cx="25.748" cy="20.175" r="0.65" fill="#46616f"/>
      <circle cx="28.589" cy="34.933" r="1.626" fill="#46616f"/>
    </g>
    <g id="237d67a8-9331-45f4-b882-c2b525e944a9" data-name="scale">
      <rect x="20.134" y="16.631" width="3.176" height="0.5" fill="#25373e"/>
      <rect x="20.134" y="18.762" width="3.176" height="0.5" fill="#25373e"/>
      <rect x="20.134" y="20.894" width="3.176" height="0.5" fill="#25373e"/>
    </g>
  </g>
</svg>
