<svg xmlns="http://www.w3.org/2000/svg" width="20" height="20" viewBox="0 0 20 20">
  <title>browsersIcon</title>
  <path d="M20,10A10,10,0,1,1,10,0,10,10,0,0,1,20,10ZM4.8,9.51a14.35,14.35,0,0,1,.7-3.979l-3.34,0A8.987,8.987,0,0,0,.986,9.51H4.8ZM9.512,5.528H6.533A13.273,13.273,0,0,0,5.78,9.51H9.512V5.528h0Zm0-4.54a10.781,10.781,0,0,0-2.58,3.554h2.58V0.988ZM2.805,4.542H5.87A12.488,12.488,0,0,1,7.91,1.223,8.969,8.969,0,0,0,2.805,4.542ZM19.013,9.51a8.975,8.975,0,0,0-1.173-3.981l-3.34,0a14.368,14.368,0,0,1,.7,3.979h3.816Zm-8.524,0H14.22a13.272,13.272,0,0,0-.754-3.981H10.488V9.51Zm0-4.968h2.579A10.791,10.791,0,0,0,10.488.988V4.542Zm1.6-3.319a12.59,12.59,0,0,1,2.041,3.319h3.063A8.971,8.971,0,0,0,12.09,1.223Zm-11.1,9.27a9,9,0,0,0,1.172,3.981l3.34,0a14.332,14.332,0,0,1-.7-3.977H0.986Zm8.525,0H5.78a13.277,13.277,0,0,0,.753,3.981H9.512V10.493Zm0,4.966H6.932a10.754,10.754,0,0,0,2.58,3.555V15.459h0Zm-1.6,3.32a12.475,12.475,0,0,1-2.04-3.32H2.805A8.977,8.977,0,0,0,7.91,18.779ZM15.2,10.493a14.35,14.35,0,0,1-.7,3.977l3.34,0a8.988,8.988,0,0,0,1.173-3.981H15.2Zm-4.708,3.981h2.977a13.276,13.276,0,0,0,.754-3.981H10.488v3.981Zm0,4.539a10.78,10.78,0,0,0,2.579-3.555H10.488v3.555Zm6.706-3.555H14.131a12.578,12.578,0,0,1-2.041,3.32A8.979,8.979,0,0,0,17.194,15.459Z" fill="#fff"/>
</svg>
