<svg id="a6579ba6-7416-424d-9a3f-7f801ad6100c" data-name="Layer 1" xmlns="http://www.w3.org/2000/svg" width="12.604" height="8.422" viewBox="0 0 12.604 8.422">
  <title>buttonIconWorkflow</title>
  <g>
    <g>
      <polygon points="0.405 8.172 2.398 8.172 4.378 4.211 2.398 0.25 0.405 0.25 2.385 4.211 0.405 8.172" fill="#25373e" opacity="0.5"/>
      <polygon points="4.378 8.172 6.371 8.172 8.352 4.211 6.371 0.25 4.378 0.25 6.359 4.211 4.378 8.172" fill="#25373e" opacity="0.75"/>
      <polygon points="8.352 8.172 10.344 8.172 12.324 4.211 10.344 0.25 8.352 0.25 10.332 4.211 8.352 8.172" fill="#25373e"/>
    </g>
    <g>
      <polygon points="0.405 8.172 2.398 8.172 4.378 4.211 2.398 0.25 0.405 0.25 2.385 4.211 0.405 8.172" fill="none" stroke="#25373e" stroke-miterlimit="10" stroke-width="0.5" opacity="0.6"/>
      <polygon points="4.378 8.172 6.371 8.172 8.352 4.211 6.371 0.25 4.378 0.25 6.359 4.211 4.378 8.172" fill="none" stroke="#25373e" stroke-miterlimit="10" stroke-width="0.5" opacity="0.8"/>
      <polygon points="8.352 8.172 10.344 8.172 12.324 4.211 10.344 0.25 8.352 0.25 10.332 4.211 8.352 8.172" fill="none" stroke="#25373e" stroke-miterlimit="10" stroke-width="0.5"/>
    </g>
  </g>
</svg>
