<svg id="7b9b34c8-43bd-42d7-a1c5-64a3e95c4a2e" data-name="Layer 1" xmlns="http://www.w3.org/2000/svg" width="13" height="17" viewBox="0 0 13 17">
  <title>callsIcon</title>
  <g id="8ba0abe9-553a-4b15-9d3c-469d30e30909" data-name="&lt;Group&gt;">
    <path d="M13.489,13.406a.144.144,0,0,0-.039.042c0,.007-1.185,2.007-4.461-2.646s-.98-5.073-.974-5.076A.122.122,0,0,0,8.069,5.7c.246-.172-.213-1.248-1.026-2.4C6.27,2.2,5.458,1.432,5.167,1.5h0l-.006,0a.178.178,0,0,0-.037.014.155.155,0,0,0-.024.027c-1.225.818-3.839,1.437,2.4,10.3s7.714,6.625,8.9,5.76a.1.1,0,0,0,.033-.013.1.1,0,0,0,.025-.029l.006,0v0c.168-.247-.284-1.271-1.057-2.369C14.594,14.031,13.736,13.233,13.489,13.406Z" transform="translate(-3.5 -1.5)" fill="#fff"/>
  </g>
</svg>
