<?xml version="1.0" encoding="utf-8"?>
<!-- Generator: Adobe Illustrator 16.0.4, SVG Export Plug-In . SVG Version: 6.00 Build 0)  -->
<!DOCTYPE svg PUBLIC "-//W3C//DTD SVG 1.1//EN" "http://www.w3.org/Graphics/SVG/1.1/DTD/svg11.dtd">
<svg version="1.1" id="Layer_1" xmlns="http://www.w3.org/2000/svg" xmlns:xlink="http://www.w3.org/1999/xlink" x="0px" y="0px"
	 width="20px" height="20px" viewBox="0 0 20 20" enable-background="new 0 0 20 20" xml:space="preserve">
<g>
	<g>
		<g>
			<circle fill="#25373E" cx="10" cy="10" r="10"/>
		</g>
		<g>
			<g>
				<polygon opacity="0.5" fill="#FFFFFF" points="2.966,14.951 5.458,14.951 7.934,10 5.458,5.049 2.966,5.049 5.442,10 				"/>
				<polygon opacity="0.75" fill="#FFFFFF" points="7.934,14.951 10.425,14.951 12.9,10 10.425,5.049 7.934,5.049 10.409,10 				"/>
				<polygon fill="#FFFFFF" points="12.9,14.951 15.391,14.951 17.866,10 15.391,5.049 12.9,5.049 15.376,10 				"/>
			</g>
			<g>
				<polygon opacity="0.6" fill="none" stroke="#FFFFFF" stroke-width="0.5" stroke-miterlimit="10" points="2.966,14.951 
					5.458,14.951 7.934,10 5.458,5.049 2.966,5.049 5.442,10 				"/>
				<polygon opacity="0.8" fill="none" stroke="#FFFFFF" stroke-width="0.5" stroke-miterlimit="10" points="7.934,14.951 
					10.425,14.951 12.9,10 10.425,5.049 7.934,5.049 10.409,10 				"/>
				<polygon fill="none" stroke="#FFFFFF" stroke-width="0.5" stroke-miterlimit="10" points="12.9,14.951 15.391,14.951 17.866,10 
					15.391,5.049 12.9,5.049 15.376,10 				"/>
			</g>
		</g>
	</g>
</g>
</svg>
