<?xml version="1.0" encoding="utf-8"?>
<!-- Generator: Adobe Illustrator 16.0.4, SVG Export Plug-In . SVG Version: 6.00 Build 0)  -->
<!DOCTYPE svg PUBLIC "-//W3C//DTD SVG 1.1//EN" "http://www.w3.org/Graphics/SVG/1.1/DTD/svg11.dtd">
<svg version="1.1" id="Layer_1" xmlns="http://www.w3.org/2000/svg" xmlns:xlink="http://www.w3.org/1999/xlink" x="0px" y="0px"
	 width="20px" height="20px" viewBox="0 0 20 20" enable-background="new 0 0 20 20" xml:space="preserve">
<g>
	<circle fill="#00E0B8" cx="10" cy="10" r="10"/>
	<g>
		<path fill="#FFFFFF" d="M8.74,15.284c-0.068-0.423-0.103-0.84-0.103-1.251c0-0.412,0.034-0.834,0.103-1.269
			c0.422-0.068,0.84-0.103,1.252-0.103c0.411,0,0.833,0.034,1.268,0.103c0.069,0.435,0.103,0.852,0.103,1.251
			c0,0.424-0.034,0.846-0.103,1.269c-0.435,0.068-0.851,0.103-1.251,0.103C9.586,15.386,9.163,15.352,8.74,15.284z M8.672,2.958
			c0.445-0.068,0.886-0.103,1.32-0.103c0.445,0,0.892,0.035,1.337,0.103l-0.172,8.383c-0.4,0.068-0.782,0.103-1.148,0.103
			c-0.389,0-0.778-0.034-1.167-0.103L8.672,2.958z"/>
	</g>
</g>
</svg>
