<?xml version="1.0" encoding="utf-8"?>
<!-- Generator: Adobe Illustrator 16.0.4, SVG Export Plug-In . SVG Version: 6.00 Build 0)  -->
<!DOCTYPE svg PUBLIC "-//W3C//DTD SVG 1.1//EN" "http://www.w3.org/Graphics/SVG/1.1/DTD/svg11.dtd">
<svg version="1.1" id="Layer_1" xmlns="http://www.w3.org/2000/svg" xmlns:xlink="http://www.w3.org/1999/xlink" x="0px" y="0px"
	 width="20px" height="20px" viewBox="0 0 20 20" enable-background="new 0 0 20 20" xml:space="preserve">
<g>
	<g>
		<g>
			<g>
				<circle fill="#00E0B8" cx="10" cy="10" r="10"/>
				<g>
					<g opacity="0.3">
						<g>
							<path fill="#FFFFFF" d="M6.143,7.203c0.041,0.007,0.081,0.015,0.12,0.025C6.222,7.219,6.183,7.21,6.143,7.203z"/>
							<path fill="#FFFFFF" d="M6.927,10.271c-0.084,0.067-0.175,0.126-0.271,0.176C6.753,10.397,6.842,10.338,6.927,10.271z"/>
							<path fill="#FFFFFF" d="M7.429,9.637c-0.052,0.115-0.118,0.22-0.193,0.319C7.311,9.856,7.377,9.751,7.429,9.637z"/>
							<path fill="#FFFFFF" d="M5.127,10.494c-0.097-0.044-0.19-0.095-0.277-0.156C4.937,10.398,5.031,10.448,5.127,10.494z"/>
							<path fill="#FFFFFF" d="M6.383,7.265c0.108,0.037,0.214,0.082,0.313,0.137C6.597,7.346,6.493,7.301,6.383,7.265z"/>
							<path fill="#FFFFFF" d="M7.201,9.998c-0.067,0.084-0.142,0.161-0.223,0.231C7.06,10.159,7.134,10.082,7.201,9.998z"/>
							<path fill="#FFFFFF" d="M6.659,7.819c0-0.139,0.015-0.278,0.037-0.417V7.402c-0.1-0.055-0.205-0.1-0.313-0.137
								c-0.04-0.013-0.079-0.027-0.12-0.037c-0.04-0.011-0.08-0.018-0.12-0.025C6.047,7.186,5.95,7.174,5.85,7.174
								c-0.787,0-1.452,0.523-1.666,1.241C4.136,8.573,4.11,8.741,4.11,8.914c0,0.589,0.293,1.109,0.74,1.424
								c0.086,0.061,0.18,0.112,0.277,0.156c0.009,0.002,0.017,0.006,0.025,0.009c0.097,0.041,0.195,0.075,0.299,0.1h0.003
								c0.127,0.031,0.258,0.052,0.396,0.052c0.273,0,0.529-0.069,0.759-0.182c0.017-0.008,0.032-0.017,0.048-0.026
								c0.096-0.05,0.187-0.109,0.271-0.176c0.018-0.014,0.035-0.028,0.052-0.042c0.081-0.07,0.155-0.147,0.223-0.231
								c0.012-0.014,0.024-0.027,0.035-0.042c0.075-0.1,0.141-0.205,0.193-0.319v0C6.943,9.161,6.659,8.508,6.659,7.819z"/>
						</g>
						<path fill="#FFFFFF" d="M6.309,11.027c-0.01,0-0.02-0.001-0.03-0.001H5.422c-0.522,0-1.002,0.177-1.389,0.47
							c-0.548,0.42-0.904,1.078-0.904,1.821v0.58h0.8h1.535V13.19C5.465,12.376,5.77,11.615,6.309,11.027z"/>
					</g>
					<g opacity="0.6">
						<path fill="#FFFFFF" d="M7.082,7.819c0,0.719,0.357,1.353,0.903,1.737C8.33,9.799,8.75,9.942,9.204,9.942
							c0.827,0,1.535-0.478,1.886-1.167c-0.668-0.57-1.063-1.405-1.063-2.289c0-0.197,0.027-0.393,0.066-0.587
							c-0.271-0.126-0.57-0.201-0.889-0.201c-0.961,0-1.771,0.638-2.032,1.514C7.114,7.404,7.082,7.608,7.082,7.819z"/>
						<path fill="#FFFFFF" d="M8.57,13.035c0-1,0.385-1.931,1.065-2.64H8.683c-0.638,0-1.223,0.215-1.694,0.574
							C6.32,11.48,5.888,12.283,5.888,13.19v0.707h0.975H8.57V13.035z"/>
					</g>
					<g>
						<path fill="#FFFFFF" d="M10.451,6.486c0,0.875,0.435,1.648,1.1,2.117c0.421,0.296,0.934,0.472,1.486,0.472
							c1.431,0,2.589-1.159,2.589-2.588c0-1.43-1.159-2.588-2.589-2.588c-1.17,0-2.159,0.778-2.478,1.847
							C10.488,5.979,10.451,6.228,10.451,6.486z"/>
						<path fill="#FFFFFF" d="M13.674,9.626h-1.272c-0.776,0-1.492,0.263-2.065,0.701c-0.815,0.623-1.344,1.603-1.344,2.708v0.862
							h0.163h1.026h2.339h0.458h4.104v-0.862C17.083,11.152,15.557,9.626,13.674,9.626z"/>
					</g>
				</g>
			</g>
		</g>
	</g>
</g>
</svg>
