<?xml version="1.0" encoding="utf-8"?>
<!-- Generator: Adobe Illustrator 16.0.4, SVG Export Plug-In . SVG Version: 6.00 Build 0)  -->
<!DOCTYPE svg PUBLIC "-//W3C//DTD SVG 1.1//EN" "http://www.w3.org/Graphics/SVG/1.1/DTD/svg11.dtd">
<svg version="1.1" id="Layer_1" xmlns="http://www.w3.org/2000/svg" xmlns:xlink="http://www.w3.org/1999/xlink" x="0px" y="0px"
	 width="21px" height="21px" viewBox="0 0 21 21" enable-background="new 0 0 21 21" xml:space="preserve">
<g>
	<g>
		<circle fill="#E1E6E4" cx="10.5" cy="10.5" r="10.5"/>
		<path fill="#25373E" d="M11.855,6.057l-0.662-2.648c-0.229-0.022-0.459-0.034-0.692-0.034c-0.234,0-0.465,0.011-0.693,0.034
			L9.145,6.057H11.855z"/>
		<path fill="#25373E" d="M9.145,14.943l0.662,2.648c0.229,0.022,0.459,0.034,0.693,0.034c0.233,0,0.464-0.012,0.692-0.034
			l0.662-2.648H9.145z"/>
		<path fill="#25373E" d="M15.145,10.416l2.314-1.449c-0.1-0.457-0.244-0.898-0.428-1.317l-2.725,0.189L15.145,10.416z"/>
		<path fill="#25373E" d="M5.856,10.584l-2.315,1.449c0.101,0.457,0.245,0.897,0.427,1.316l2.727-0.188L5.856,10.584z"/>
		<path fill="#25373E" d="M8.985,6.109L6.891,4.355C6.492,4.591,6.117,4.864,5.77,5.17l1.022,2.531L8.985,6.109z"/>
		<path fill="#25373E" d="M12.016,14.891l2.092,1.754c0.4-0.235,0.776-0.509,1.12-0.815l-1.021-2.531L12.016,14.891z"/>
		<path fill="#25373E" d="M14.208,7.702l1.021-2.531c-0.344-0.306-0.72-0.579-1.12-0.815l-2.092,1.753L14.208,7.702z"/>
		<path fill="#25373E" d="M6.792,13.298L5.77,15.83c0.347,0.307,0.722,0.58,1.121,0.815l2.094-1.754L6.792,13.298z"/>
		<path fill="#25373E" d="M6.694,7.839L3.967,7.65C3.786,8.069,3.641,8.51,3.541,8.966l2.315,1.449L6.694,7.839z"/>
		<path fill="#25373E" d="M14.307,13.162l2.725,0.188c0.184-0.419,0.328-0.859,0.428-1.316l-2.314-1.449L14.307,13.162z"/>
		<g>
			<path fill="#25373E" d="M10.5,5.353c-2.844,0-5.148,2.304-5.148,5.146c0,2.844,2.305,5.148,5.148,5.148
				c2.843,0,5.146-2.305,5.146-5.148C15.647,7.657,13.343,5.353,10.5,5.353z M10.5,13.643c-1.736,0-3.143-1.407-3.143-3.144
				c0-1.735,1.406-3.142,3.143-3.142c1.735,0,3.143,1.407,3.143,3.142C13.643,12.236,12.236,13.643,10.5,13.643z"/>
		</g>
		<g>
			<path fill="#25373E" d="M10.5,8.116c-1.318,0-2.385,1.067-2.385,2.383c0,1.317,1.066,2.385,2.385,2.385
				c1.316,0,2.383-1.067,2.383-2.385C12.883,9.184,11.817,8.116,10.5,8.116z M10.5,11.956c-0.805,0-1.456-0.651-1.456-1.456
				c0-0.803,0.651-1.455,1.456-1.455c0.804,0,1.456,0.652,1.456,1.455C11.957,11.304,11.304,11.956,10.5,11.956z"/>
		</g>
		<circle fill="#25373E" cx="10.5" cy="10.5" r="0.867"/>
	</g>
</g>
</svg>
