<svg xmlns="http://www.w3.org/2000/svg" width="32" height="32" viewBox="0 0 32 32">
  <title>deviceIconSTB</title>
  <g>
    <circle cx="16" cy="16" r="16" fill="#25373e"/>
    <g>
      <polygon points="26.5 13.375 5.5 13.375 9.25 9.625 22.75 9.625 26.5 13.375" fill="#758b98"/>
      <rect x="4.75" y="13.375" width="22.5" height="6" rx="1.5" ry="1.5" fill="#fff"/>
      <g>
        <rect x="19.063" y="15.875" width="7" height="1" rx="0.5" ry="0.5" fill="#25373e"/>
        <g>
          <circle cx="6.438" cy="16.375" r="0.5" fill="#25373e"/>
          <circle cx="12.438" cy="16.375" r="0.5" fill="#25373e"/>
          <circle cx="10.438" cy="16.375" r="0.5" fill="#25373e"/>
          <circle cx="8.438" cy="16.375" r="0.5" fill="#25373e"/>
        </g>
        <g>
          <circle cx="16" cy="16.375" r="2.5" fill="#a3b7c1"/>
          <polygon points="16.625 15.13 16 14.505 15.375 15.13 16.625 15.13" fill="#758b98"/>
          <polygon points="15.375 17.62 16 18.245 16.625 17.62 15.375 17.62" fill="#758b98"/>
          <polygon points="14.755 15.75 14.13 16.375 14.755 17 14.755 15.75" fill="#758b98"/>
          <polygon points="17.245 17 17.87 16.375 17.245 15.75 17.245 17" fill="#758b98"/>
        </g>
      </g>
    </g>
  </g>
</svg>
