<svg xmlns="http://www.w3.org/2000/svg" width="32" height="32" viewBox="0 0 32 32">
  <title>deviceIconSecurity</title>
  <g>
    <circle cx="16" cy="16" r="16" fill="#25373e"/>
    <g>
      <path d="M23.9,8.6c-0.34-.033-1.21-0.083-1.545-0.145a21.936,21.936,0,0,1-2.232-.5A16.919,16.919,0,0,1,16.01,6.168H16A16.925,16.925,0,0,1,11.881,7.96c-0.732.212-1.482,0.356-2.232,0.5-0.335.057-1.2,0.107-1.541,0.14,0,0.406.031,1.392,0.076,2.421H23.822C23.866,9.988,23.9,9.007,23.9,8.6Z" fill="#fff"/>
      <path d="M8.181,11.018c0.01,0.262.022,0.525,0.034,0.784,0.016,0.324.032,0.639,0.049,0.926H23.738c0.016-.287.032-0.6,0.049-0.926,0.012-.259.023-0.522,0.035-0.784H8.181Z" fill="#46616f"/>
      <path d="M16,12.728v13.1A12.466,12.466,0,0,0,19.726,22.9a14.765,14.765,0,0,0,2.646-4.189,17.527,17.527,0,0,0,1.276-4.768c0.027-.234.059-0.678,0.09-1.217H16v0Z" fill="#a3b7c1"/>
      <path d="M8.264,12.728c0.031,0.538.062,0.982,0.089,1.217a17.563,17.563,0,0,0,1.276,4.768A14.785,14.785,0,0,0,12.276,22.9,12.471,12.471,0,0,0,16,25.83h0V12.73H8.264v0Z" fill="#758b98"/>
    </g>
  </g>
</svg>
