<svg xmlns="http://www.w3.org/2000/svg" width="32" height="32" viewBox="0 0 32 32">
  <title>deviceIconUnknown</title>
  <g>
    <circle cx="16" cy="16" r="16" fill="#25373e"/>
    <g>
      <path d="M19.513,5.5h0a1.026,1.026,0,0,0-.737-0.315H13.223a1.026,1.026,0,0,0-.736.314L8.571,8.759h3.619V8.764h7.618V8.759h3.619Z" fill="#758b98"/>
      <rect x="8" y="8" width="16" height="16" rx="2.286" ry="2.286" fill="#fff"/>
      <path d="M14.976,15.72a8.354,8.354,0,0,0,1.088-.36,3.176,3.176,0,0,0,.816-0.48,1.909,1.909,0,0,0,.512-0.648,2.024,2.024,0,0,0,.176-0.88,1.521,1.521,0,0,0-.607-1.28,2.834,2.834,0,0,0-1.745-.464,5.215,5.215,0,0,0-1.16.1,7.3,7.3,0,0,0-.9.28A5.023,5.023,0,0,1,12.9,11.36a4.044,4.044,0,0,1-.152-0.7q0.384-.128.712-0.216a5.939,5.939,0,0,1,.64-0.136q0.312-.048.632-0.072t0.688-.024a4.194,4.194,0,0,1,2.856.856,2.876,2.876,0,0,1,.969,2.264,2.815,2.815,0,0,1-.328,1.4,3.736,3.736,0,0,1-.769.976,4.159,4.159,0,0,1-.9.624,6.135,6.135,0,0,1-.752.328v1.648a4.65,4.65,0,0,1-.784.063c-0.118,0-.24,0-0.368-0.016s-0.25-.026-0.368-0.048V15.72Zm-0.144,6c-0.021-.148-0.038-0.3-0.048-0.439s-0.016-.291-0.016-0.44,0.005-.3.016-0.448,0.026-.3.048-0.447c0.149-.021.3-0.04,0.448-0.057a4.293,4.293,0,0,1,.9,0c0.149,0.017.3,0.035,0.448,0.057q0.031,0.224.048,0.439c0.011,0.145.016,0.291,0.016,0.44s-0.005.3-.016,0.448-0.027.3-.048,0.447c-0.139.021-.283,0.038-0.432,0.049s-0.3.016-.448,0.016-0.31-.006-0.48-0.016A3.746,3.746,0,0,1,14.832,21.719Z" fill="#46616f"/>
      <circle cx="10" cy="10" r="0.5" fill="#a3b7c1"/>
      <circle cx="22" cy="10" r="0.5" fill="#a3b7c1"/>
      <circle cx="10" cy="22" r="0.5" fill="#a3b7c1"/>
      <circle cx="22" cy="22" r="0.5" fill="#a3b7c1"/>
    </g>
  </g>
</svg>
