<?xml version="1.0" encoding="utf-8"?>
<!-- Generator: Adobe Illustrator 16.0.4, SVG Export Plug-In . SVG Version: 6.00 Build 0)  -->
<!DOCTYPE svg PUBLIC "-//W3C//DTD SVG 1.1//EN" "http://www.w3.org/Graphics/SVG/1.1/DTD/svg11.dtd">
<svg version="1.1" id="Layer_1" xmlns="http://www.w3.org/2000/svg" xmlns:xlink="http://www.w3.org/1999/xlink" x="0px" y="0px"
	 width="50px" height="50px" viewBox="0 0 50 50" enable-background="new 0 0 50 50" xml:space="preserve">
<g>
	<path fill="#999999" d="M7.684,6.96l6.051,6.053c1.274-1.201,2.719-2.184,4.305-2.928c1.043-0.49,2.137-0.87,3.25-1.128
		c1.041-0.243,2.112-0.383,3.192-0.419V0.001c-1.72,0.035-3.436,0.249-5.111,0.636c-1.841,0.425-3.227,0.902-4.94,1.701
		C11.86,3.536,9.705,5.012,7.684,6.96z"/>
	<path fill="#E04700" d="M10.318,17.586c0.712-1.408,1.617-2.7,2.697-3.851L6.963,7.682c-1.83,1.898-3.243,3.917-4.401,6.287
		L10.318,17.586z"/>
	<path fill="#FF2B00" d="M8.57,24.197c0.097-1.973,0.538-3.881,1.315-5.686L2.13,14.893c-1.375,3.071-2.001,5.791-2.113,9.154
		L8.57,24.197z"/>
	<path fill="#D4002B" d="M8.55,25.217L0,25.068c0.002,3.406,0.629,6.491,1.958,9.625l4.391-1.955l3.405-1.517
		C8.978,29.312,8.573,27.295,8.55,25.217z"/>
	<path fill="#E20177" d="M9.893,44.914l5-6.884c-2.007-1.571-3.629-3.586-4.727-5.876l-7.792,3.471
		C4.126,39.373,6.592,42.421,9.893,44.914z"/>
	<path fill="#A31373" d="M25.789,49.979l-0.443-8.46c-3.446,0.074-6.795-0.937-9.631-2.886l-4.998,6.88
		C15.362,48.773,20.152,50.192,25.789,49.979z"/>
	<path fill="#AA2DAD" d="M26.366,41.47l0.443,8.457c5.627-0.391,10.266-2.313,14.524-6.018l-2.434-2.701l-3.219-3.577
		C33.055,39.848,29.784,41.196,26.366,41.47z"/>
	<path fill="#6C2C8E" d="M49.54,20.297l-8.271,1.758c0.18,0.979,0.27,1.976,0.27,2.971c0,4.503-1.852,8.819-5.098,11.923l5.65,6.277
		C48.413,37.305,51.172,28.804,49.54,20.297z"/>
	<path fill="#7032E3" d="M25.502,0v8.536c7.391,0.227,13.79,5.394,15.553,12.521l8.271-1.758C46.682,7.896,37.202,0.218,25.502,0z"
		/>
</g>
</svg>
