<?xml version="1.0" encoding="utf-8"?>
<!-- Generator: Adobe Illustrator 16.0.4, SVG Export Plug-In . SVG Version: 6.00 Build 0)  -->
<!DOCTYPE svg PUBLIC "-//W3C//DTD SVG 1.1//EN" "http://www.w3.org/Graphics/SVG/1.1/DTD/svg11.dtd">
<svg version="1.1" id="Layer_1" xmlns="http://www.w3.org/2000/svg" xmlns:xlink="http://www.w3.org/1999/xlink" x="0px" y="0px"
	 width="14px" height="14px" viewBox="0 0 14 14" enable-background="new 0 0 14 14" xml:space="preserve">
<g>
	<circle fill="#36BF00" cx="7" cy="7" r="7"/>
	<g>
		<path fill="#FFFFFF" d="M10.408,5c0.011,0.054,0.019,0.139,0.024,0.256c0.005,0.118,0.008,0.219,0.008,0.304
			s-0.003,0.181-0.008,0.288c-0.006,0.107-0.014,0.187-0.024,0.24H3.593c-0.011-0.053-0.02-0.133-0.024-0.24
			C3.562,5.741,3.561,5.646,3.561,5.56s0.002-0.187,0.008-0.304C3.573,5.139,3.582,5.054,3.593,5H10.408z M10.408,7.912
			c0.011,0.054,0.019,0.139,0.024,0.256c0.005,0.118,0.008,0.219,0.008,0.304c0,0.086-0.003,0.182-0.008,0.289
			C10.427,8.866,10.419,8.946,10.408,9H3.593c-0.011-0.054-0.02-0.134-0.024-0.239C3.562,8.653,3.561,8.558,3.561,8.472
			c0-0.085,0.002-0.186,0.008-0.304c0.005-0.117,0.014-0.203,0.024-0.256H10.408z"/>
	</g>
</g>
</svg>
