<?xml version="1.0" encoding="utf-8"?>
<!-- Generator: Adobe Illustrator 16.0.4, SVG Export Plug-In . SVG Version: 6.00 Build 0)  -->
<!DOCTYPE svg PUBLIC "-//W3C//DTD SVG 1.1//EN" "http://www.w3.org/Graphics/SVG/1.1/DTD/svg11.dtd">
<svg version="1.1" id="Layer_1" xmlns="http://www.w3.org/2000/svg" xmlns:xlink="http://www.w3.org/1999/xlink" x="0px" y="0px"
	 width="14px" height="14px" viewBox="0 0 14 14" enable-background="new 0 0 14 14" xml:space="preserve">
<g>
	<circle fill="#D4002B" cx="7" cy="7" r="7"/>
	<g>
		<path fill="#FFFFFF" d="M7.48,4.836l1.072-2.224c0.085-0.01,0.165-0.019,0.239-0.024C8.867,2.583,8.941,2.58,9.016,2.58
			c0.097,0,0.192,0.002,0.289,0.008C9.4,2.593,9.496,2.602,9.592,2.612L8.521,4.836h1.888c0.011,0.054,0.019,0.139,0.023,0.256
			c0.006,0.118,0.009,0.219,0.009,0.305c0,0.085-0.003,0.182-0.009,0.287c-0.005,0.107-0.013,0.188-0.023,0.24H7.992L7.096,7.779
			h3.312c0.011,0.055,0.019,0.139,0.023,0.257c0.006,0.117,0.009,0.219,0.009,0.304c0,0.086-0.003,0.182-0.009,0.288
			c-0.005,0.106-0.013,0.187-0.023,0.24h-3.84l-1.072,2.239c-0.086,0.012-0.171,0.02-0.256,0.024
			c-0.086,0.005-0.176,0.009-0.271,0.009c-0.064,0-0.14-0.004-0.225-0.009c-0.086-0.005-0.176-0.013-0.271-0.024l1.071-2.239H3.592
			c-0.01-0.054-0.019-0.134-0.023-0.24C3.562,8.521,3.561,8.426,3.561,8.34c0-0.085,0.002-0.187,0.008-0.304
			c0.005-0.118,0.014-0.202,0.023-0.257h2.465l0.896-1.855h-3.36c-0.01-0.053-0.019-0.133-0.023-0.24
			C3.562,5.578,3.561,5.481,3.561,5.396c0-0.086,0.002-0.187,0.008-0.305C3.573,4.975,3.582,4.89,3.592,4.836H7.48z"/>
	</g>
</g>
</svg>
