<?xml version="1.0" encoding="utf-8"?>
<!-- Generator: Adobe Illustrator 16.0.4, SVG Export Plug-In . SVG Version: 6.00 Build 0)  -->
<!DOCTYPE svg PUBLIC "-//W3C//DTD SVG 1.1//EN" "http://www.w3.org/Graphics/SVG/1.1/DTD/svg11.dtd">
<svg version="1.1" id="Layer_1" xmlns="http://www.w3.org/2000/svg" xmlns:xlink="http://www.w3.org/1999/xlink" x="0px" y="0px"
	 width="22px" height="22px" viewBox="0 0 22 22" enable-background="new 0 0 22 22" xml:space="preserve">
<rect opacity="0" fill="#FFFFFF" width="22" height="22"/>
<g>
	<g>
		<path fill="#FFFFFF" d="M14.912,19.139H7.088c-1.654,0-3-1.346-3-3V8.313h2v7.826c0,0.551,0.448,1,1,1h7.824c0.552,0,1-0.449,1-1
			V8.313h2v7.826C17.912,17.793,16.566,19.139,14.912,19.139z"/>
		<path fill="#FFFFFF" d="M18.912,6.615h-2c0-0.552-0.448-1-1-1H6.088c-0.552,0-1,0.448-1,1h-2c0-1.654,1.346-3,3-3h9.824
			C17.566,3.615,18.912,4.961,18.912,6.615z"/>
		<rect x="12.956" y="8.313" fill="#FFFFFF" width="1" height="7.007"/>
		<rect x="10.5" y="8.313" fill="#FFFFFF" width="1" height="7.007"/>
		<rect x="8.044" y="8.313" fill="#FFFFFF" width="1" height="7.007"/>
		<rect x="9.5" y="2.861" fill="#FFFFFF" width="3" height="1.254"/>
	</g>
</g>
</svg>
