<?xml version="1.0" encoding="utf-8"?>
<!-- Generator: Adobe Illustrator 16.0.4, SVG Export Plug-In . SVG Version: 6.00 Build 0)  -->
<!DOCTYPE svg PUBLIC "-//W3C//DTD SVG 1.1//EN" "http://www.w3.org/Graphics/SVG/1.1/DTD/svg11.dtd">
<svg version="1.1" id="Layer_1" xmlns="http://www.w3.org/2000/svg" xmlns:xlink="http://www.w3.org/1999/xlink" x="0px" y="0px"
	 width="16px" height="16px" viewBox="0.5 0.5 16 16" enable-background="new 0.5 0.5 16 16" xml:space="preserve">
<g>
	<g>
		<circle fill="#25373E" cx="8.5" cy="8.5" r="8"/>
	</g>
	<g>
		<g>
			<polygon opacity="0.5" fill="#FFFFFF" enable-background="new    " points="2.873,12.46 4.866,12.46 6.847,8.5 4.866,4.539 
				2.873,4.539 4.854,8.5 			"/>
			<polygon opacity="0.75" fill="#FFFFFF" enable-background="new    " points="6.847,12.46 8.84,12.46 10.82,8.5 8.84,4.539 
				6.847,4.539 8.827,8.5 			"/>
			<polygon fill="#FFFFFF" points="10.82,12.46 12.812,12.46 14.793,8.5 12.812,4.539 10.82,4.539 12.8,8.5 			"/>
		</g>
		<g>
			
				<polygon opacity="0.6" fill="none" stroke="#FFFFFF" stroke-width="0.5" stroke-miterlimit="10" enable-background="new    " points="
				2.873,12.46 4.866,12.46 6.847,8.5 4.866,4.539 2.873,4.539 4.854,8.5 			"/>
			
				<polygon opacity="0.8" fill="none" stroke="#FFFFFF" stroke-width="0.5" stroke-miterlimit="10" enable-background="new    " points="
				6.847,12.46 8.84,12.46 10.82,8.5 8.84,4.539 6.847,4.539 8.827,8.5 			"/>
			<polygon fill="none" stroke="#FFFFFF" stroke-width="0.5" stroke-miterlimit="10" points="10.82,12.46 12.812,12.46 14.793,8.5 
				12.812,4.539 10.82,4.539 12.8,8.5 			"/>
		</g>
	</g>
</g>
</svg>
