<?xml version="1.0" encoding="utf-8"?>
<!-- Generator: Adobe Illustrator 16.0.4, SVG Export Plug-In . SVG Version: 6.00 Build 0)  -->
<!DOCTYPE svg PUBLIC "-//W3C//DTD SVG 1.1//EN" "http://www.w3.org/Graphics/SVG/1.1/DTD/svg11.dtd">
<svg version="1.1" id="Layer_1" xmlns="http://www.w3.org/2000/svg" xmlns:xlink="http://www.w3.org/1999/xlink" x="0px" y="0px"
	 width="80px" height="20px" viewBox="0 0 80 20" enable-background="new 0 0 80 20" xml:space="preserve">
<g>
	<path fill="#FFFFFF" d="M36.243,11.895c0,0.711-0.576,1.289-1.286,1.289c-0.711,0-1.287-0.578-1.287-1.289
		c0-0.709,0.576-1.285,1.287-1.285C35.667,10.609,36.243,11.186,36.243,11.895z"/>
	<g>
		<path fill="#FFFFFF" d="M14.975,0.303c0.186-0.033,0.396-0.059,0.633-0.076c0.236-0.017,0.438-0.025,0.607-0.025
			c0.186,0,0.396,0.009,0.633,0.025c0.235,0.017,0.446,0.042,0.633,0.076v7.11c0,0.81,0.075,1.48,0.228,2.012
			c0.151,0.531,0.38,0.948,0.683,1.252c0.304,0.303,0.675,0.514,1.114,0.631c0.438,0.119,0.943,0.178,1.518,0.178
			c0.86,0,1.595-0.093,2.201-0.278V0.303c0.187-0.033,0.393-0.059,0.62-0.076c0.229-0.017,0.435-0.025,0.621-0.025
			s0.393,0.009,0.619,0.025c0.229,0.017,0.436,0.042,0.621,0.076V12.88c-0.591,0.168-1.295,0.328-2.113,0.48
			c-0.818,0.151-1.666,0.228-2.543,0.228c-0.827,0-1.606-0.072-2.34-0.215c-0.734-0.144-1.38-0.435-1.937-0.873
			c-0.557-0.439-0.995-1.055-1.315-1.848c-0.321-0.792-0.481-1.839-0.481-3.138V0.303z"/>
		<path fill="#FFFFFF" d="M40.534,0.303c0.236-0.033,0.481-0.059,0.734-0.076s0.48-0.025,0.684-0.025
			c0.219,0,0.459,0.009,0.721,0.025s0.484,0.042,0.671,0.076l4.597,10.704l4.622-10.704c0.186-0.033,0.396-0.059,0.633-0.076
			c0.235-0.017,0.464-0.025,0.684-0.025c0.186,0,0.396,0.009,0.631,0.025c0.237,0.017,0.474,0.042,0.71,0.076l-6.115,12.981
			c-0.22,0.034-0.438,0.059-0.658,0.076c-0.22,0.016-0.422,0.025-0.607,0.025s-0.384-0.01-0.595-0.025
			c-0.21-0.018-0.417-0.042-0.619-0.076L40.534,0.303z"/>
		<path fill="#FFFFFF" d="M56.819,0.303c0.186-0.033,0.396-0.059,0.632-0.076c0.236-0.017,0.438-0.025,0.608-0.025
			c0.185,0,0.396,0.009,0.632,0.025c0.235,0.017,0.447,0.042,0.633,0.076v7.11c0,0.81,0.076,1.48,0.227,2.012
			c0.153,0.531,0.381,0.948,0.684,1.252c0.305,0.303,0.676,0.514,1.114,0.631c0.438,0.119,0.945,0.178,1.519,0.178
			c0.86,0,1.594-0.093,2.201-0.278V0.303c0.186-0.033,0.393-0.059,0.619-0.076c0.229-0.017,0.435-0.025,0.621-0.025
			c0.185,0,0.392,0.009,0.619,0.025c0.229,0.017,0.435,0.042,0.62,0.076V12.88c-0.591,0.168-1.295,0.328-2.112,0.48
			c-0.818,0.151-1.666,0.228-2.544,0.228c-0.826,0-1.606-0.072-2.341-0.215c-0.733-0.144-1.379-0.435-1.935-0.873
			c-0.557-0.439-0.995-1.055-1.316-1.848c-0.32-0.792-0.48-1.839-0.48-3.138V0.303z"/>
		<path fill="#FFFFFF" d="M70.916,10.931c0.455,0.186,0.957,0.333,1.506,0.443c0.547,0.109,1.092,0.164,1.633,0.164
			c0.387,0,0.758-0.042,1.111-0.126c0.355-0.084,0.662-0.212,0.924-0.38c0.262-0.169,0.472-0.375,0.633-0.62
			c0.16-0.244,0.24-0.519,0.24-0.822c0-0.337-0.062-0.615-0.189-0.835s-0.295-0.405-0.506-0.557
			c-0.211-0.151-0.456-0.282-0.734-0.391c-0.277-0.11-0.578-0.216-0.898-0.317l-0.886-0.328C72.67,6.756,71.887,6.3,71.396,5.793
			c-0.49-0.505-0.734-1.189-0.734-2.049c0-1.146,0.41-2.058,1.229-2.733C72.709,0.337,73.91,0,75.496,0
			c0.658,0,1.303,0.062,1.936,0.189c0.633,0.126,1.184,0.274,1.658,0.442C79.055,0.97,78.992,1.308,78.9,1.645
			c-0.094,0.337-0.207,0.648-0.342,0.935c-0.372-0.135-0.814-0.265-1.33-0.392c-0.514-0.127-1.066-0.189-1.656-0.189
			c-0.625,0-1.178,0.109-1.658,0.328c-0.48,0.22-0.721,0.607-0.721,1.164c0,0.287,0.059,0.531,0.178,0.734
			c0.117,0.203,0.277,0.375,0.48,0.519c0.203,0.143,0.434,0.266,0.695,0.366c0.262,0.103,0.545,0.203,0.848,0.305l1.113,0.378
			c0.404,0.136,0.789,0.296,1.152,0.482c0.361,0.186,0.674,0.417,0.936,0.695s0.473,0.616,0.633,1.012
			c0.16,0.396,0.24,0.873,0.24,1.43c0,0.625-0.127,1.194-0.379,1.709c-0.254,0.515-0.613,0.953-1.076,1.315
			c-0.465,0.363-1.025,0.645-1.684,0.848s-1.383,0.304-2.176,0.304c-0.809,0-1.518-0.056-2.125-0.165s-1.172-0.257-1.695-0.442
			c0.033-0.338,0.105-0.679,0.215-1.023C70.658,11.61,70.781,11.269,70.916,10.931z"/>
		<path fill="#FFFFFF" d="M42.299,13.082c-0.236,0.034-0.48,0.059-0.733,0.075c-0.254,0.017-0.48,0.026-0.684,0.026
			c-0.219,0-0.46-0.01-0.721-0.026c-0.262-0.017-0.485-0.041-0.672-0.075L34.894,2.378l-4.623,10.704
			c-0.186,0.034-0.396,0.059-0.632,0.075s-0.464,0.026-0.683,0.026c-0.187,0-0.397-0.01-0.634-0.026
			c-0.235-0.017-0.472-0.041-0.708-0.075l6.116-12.981c0.218-0.033,0.438-0.059,0.658-0.075C34.606,0.008,34.81,0,34.994,0
			c0.187,0,0.384,0.008,0.595,0.025c0.212,0.017,0.417,0.042,0.619,0.075L42.299,13.082z"/>
		<g>
			<path fill="#FFFFFF" d="M9.465,0.151C8.789,0.05,7.979,0,7.035,0c-1.08,0-2.054,0.174-2.922,0.519
				c-0.87,0.345-1.607,0.834-2.215,1.467C1.291,2.618,0.822,3.374,0.494,4.251C0.165,5.128,0,6.09,0,7.135
				c0,1.215,0.178,2.231,0.531,3.05c0.355,0.818,0.832,1.48,1.43,1.986s1.294,0.864,2.088,1.075
				c0.792,0.211,1.627,0.316,2.505,0.316c0.489,0,0.932-0.025,1.328-0.075c0.388-0.05,0.754-0.116,1.102-0.198v0.535
				c0,0.812-0.076,1.482-0.229,2.013c-0.151,0.531-0.379,0.949-0.684,1.253c-0.303,0.304-0.674,0.515-1.113,0.631
				c-0.438,0.12-0.944,0.179-1.519,0.179c-2.393-0.011-3.938-0.974-3.938-0.974c-0.087,0.167-0.174,0.356-0.258,0.568
				s-0.154,0.407-0.21,0.584c-0.056,0.177-0.109,0.377-0.161,0.6c-0.052,0.222-0.09,0.427-0.114,0.614
				c0.591,0.169,1.296,0.328,2.113,0.479C3.691,19.924,4.539,20,5.416,20c0.827,0,1.607-0.072,2.341-0.215
				c0.733-0.144,1.378-0.435,1.936-0.873c0.557-0.438,0.995-1.055,1.315-1.848c0.321-0.793,0.481-1.839,0.481-3.138v-1.634V0.833
				V0.581C10.813,0.396,10.139,0.253,9.465,0.151z M7.908,11.387c-0.396,0.067-0.814,0.101-1.252,0.101
				c-0.591,0-1.13-0.075-1.62-0.228c-0.489-0.151-0.915-0.4-1.277-0.746c-0.363-0.346-0.646-0.789-0.848-1.329
				C2.707,8.646,2.607,7.996,2.607,7.237s0.092-1.451,0.278-2.075c0.186-0.624,0.459-1.165,0.822-1.62S4.53,2.732,5.086,2.48
				C5.643,2.227,6.292,2.1,7.035,2.1c0.186,0,0.35,0.004,0.494,0.013c0.143,0.009,0.286,0.016,0.429,0.024
				c0.144,0.009,0.296,0.026,0.457,0.051c0.153,0.024,0.344,0.061,0.569,0.108v8.868C8.652,11.246,8.295,11.32,7.908,11.387z"/>
		</g>
	</g>
</g>
</svg>
