<?xml version="1.0" encoding="utf-8"?>
<!-- Generator: Adobe Illustrator 16.0.4, SVG Export Plug-In . SVG Version: 6.00 Build 0)  -->
<!DOCTYPE svg PUBLIC "-//W3C//DTD SVG 1.1//EN" "http://www.w3.org/Graphics/SVG/1.1/DTD/svg11.dtd">
<svg version="1.1" id="Layer_1" xmlns="http://www.w3.org/2000/svg" xmlns:xlink="http://www.w3.org/1999/xlink" x="0px" y="0px"
	 width="24px" height="24px" viewBox="0 0 24 24" enable-background="new 0 0 24 24" xml:space="preserve">
<g>
	<path fill="#00E0B8" d="M12,24c-3.207,0-6.222-1.248-8.486-3.516C1.247,18.219,0,15.208,0,12.002C0,8.795,1.247,5.78,3.514,3.515
		C5.778,1.248,8.793,0,12,0c3.206,0,6.221,1.248,8.486,3.515C22.752,5.78,24,8.795,24,12.002c0,3.204-1.248,6.217-3.514,8.484
		C18.221,22.753,15.206,24,12,24z M12,1.411c-2.83,0-5.489,1.102-7.489,3.102c-1.999,2-3.1,4.659-3.1,7.489
		c0,2.827,1.101,5.486,3.1,7.484c2,2,4.659,3.103,7.489,3.103c2.828,0,5.488-1.103,7.486-3.103c2-1.998,3.101-4.657,3.101-7.484
		c0-2.83-1.101-5.49-3.101-7.489C17.488,2.513,14.828,1.411,12,1.411z"/>
	<path opacity="0.75" fill="#00E0B8" enable-background="new    " d="M12,11.718c1.803,0,3.27,1.468,3.27,3.269
		c0,1.803-1.467,3.268-3.27,3.268c-1.802,0-3.269-1.466-3.269-3.268C8.731,13.184,10.198,11.718,12,11.718 M12,10.318
		c-2.578,0-4.668,2.09-4.668,4.668s2.09,4.668,4.668,4.668c2.579,0,4.669-2.09,4.669-4.668S14.579,10.318,12,10.318L12,10.318z"/>
	<circle opacity="0.6" fill="#00E0B8" enable-background="new    " cx="12" cy="14.987" r="3.273"/>
	<circle fill="#00E0B8" cx="12" cy="14.986" r="2"/>
	<g opacity="0.4">
		<g>
			<g>
				<path fill="#00E0B8" d="M8.508,7.256c-0.275,0-0.536-0.163-0.647-0.432L7.095,4.976C6.947,4.619,7.117,4.209,7.474,4.062
					c0.359-0.15,0.767,0.021,0.914,0.378l0.766,1.848c0.148,0.357-0.021,0.767-0.378,0.915C8.688,7.239,8.597,7.256,8.508,7.256z"/>
			</g>
		</g>
	</g>
	<g>
		<g>
			<g>
				<path fill="#00E0B8" d="M6.114,9.802c-0.179,0-0.358-0.068-0.495-0.205l-1.98-1.979c-0.273-0.273-0.274-0.716,0-0.99
					s0.716-0.274,0.99,0l1.98,1.979c0.273,0.273,0.274,0.716,0,0.99C6.473,9.733,6.293,9.802,6.114,9.802z"/>
			</g>
		</g>
	</g>
	<g>
		<g>
			<g>
				<path fill="#00E0B8" d="M17.887,9.801c-0.18,0-0.359-0.068-0.496-0.205c-0.272-0.273-0.272-0.716,0-0.99l1.979-1.98
					c0.272-0.274,0.717-0.274,0.989,0c0.273,0.274,0.273,0.716,0,0.99l-1.979,1.98C18.244,9.732,18.064,9.801,17.887,9.801z"/>
			</g>
		</g>
	</g>
	<g>
		<g>
			<g>
				<path fill="#00E0B8" d="M12,15.686c-0.089,0-0.18-0.019-0.267-0.055c-0.357-0.146-0.527-0.557-0.379-0.914l4.255-10.278
					c0.147-0.358,0.562-0.527,0.914-0.379c0.357,0.148,0.527,0.558,0.379,0.915l-4.256,10.278
					C12.535,15.521,12.274,15.686,12,15.686z"/>
			</g>
		</g>
	</g>
</g>
<g>
	<g>
		<g>
			<path fill="#00E0B8" d="M11.998,7.363c-0.387,0-0.7-0.313-0.7-0.7l-0.001-2.8c0-0.386,0.313-0.7,0.7-0.7l0,0
				c0.387,0,0.7,0.313,0.7,0.7l0.001,2.8C12.698,7.049,12.385,7.362,11.998,7.363L11.998,7.363z"/>
		</g>
	</g>
</g>
</svg>
