<?xml version="1.0" encoding="utf-8"?>
<!-- Generator: Adobe Illustrator 16.0.4, SVG Export Plug-In . SVG Version: 6.00 Build 0)  -->
<!DOCTYPE svg PUBLIC "-//W3C//DTD SVG 1.1//EN" "http://www.w3.org/Graphics/SVG/1.1/DTD/svg11.dtd">
<svg version="1.1" id="Layer_1" xmlns="http://www.w3.org/2000/svg" xmlns:xlink="http://www.w3.org/1999/xlink" x="0px" y="0px"
	 width="24px" height="24.001px" viewBox="0 0 24 24.001" enable-background="new 0 0 24 24.001" xml:space="preserve">
<g>
	<g>
		<path fill="#EEF2F0" d="M16.363,6.522H7.635c-1.203,0-2.181,0.979-2.181,2.187v4.372c0,1.205,0.978,2.186,2.181,2.186h3.336
			l2.729,3.713l2.727-3.713h-0.062c1.205,0,2.183-0.98,2.183-2.186V8.708C18.546,7.5,17.568,6.522,16.363,6.522z M12.808,13.81
			c-0.278,0.043-0.546,0.065-0.801,0.065c-0.272,0-0.544-0.022-0.815-0.065c-0.046-0.273-0.066-0.543-0.066-0.807
			c0-0.265,0.021-0.534,0.066-0.812c0.271-0.046,0.539-0.065,0.803-0.065c0.263,0,0.535,0.02,0.813,0.065
			c0.044,0.278,0.067,0.546,0.067,0.801C12.875,13.264,12.852,13.536,12.808,13.81z M12.8,11.5h-1.6L11,8h2L12.8,11.5z"/>
	</g>
	<path fill="#FFFFFF" d="M12,24c-3.207,0-6.222-1.248-8.486-3.514C1.247,18.219,0,15.207,0,12.002C0,8.795,1.247,5.78,3.514,3.515
		C5.778,1.248,8.793,0,12,0c3.206,0,6.22,1.248,8.486,3.515C22.752,5.78,24,8.795,24,12.002c0,3.203-1.248,6.217-3.514,8.484
		C18.22,22.752,15.206,24,12,24z M12,1.411c-2.83,0-5.489,1.102-7.489,3.102c-1.999,2-3.1,4.659-3.1,7.489
		c0,2.826,1.101,5.486,3.1,7.484c2,2,4.659,3.102,7.489,3.102c2.828,0,5.488-1.102,7.486-3.102c2-1.998,3.101-4.658,3.101-7.484
		c0-2.83-1.101-5.49-3.101-7.489C17.488,2.513,14.828,1.411,12,1.411z"/>
</g>
</svg>
