<svg id="abd7a0b2-10ee-437d-b683-13f8fc4131c8" data-name="Layer 1" xmlns="http://www.w3.org/2000/svg" width="24" height="24" viewBox="0 0 24 24">
  <title>headerTabHealthMapIconOver</title>
  <path d="M12,24A12,12,0,0,1,0,12,12,12,0,0,1,20.486,3.515,12,12,0,0,1,12,24ZM12,1.411A10.589,10.589,0,0,0,4.511,19.486,10.588,10.588,0,1,0,19.486,4.513,10.514,10.514,0,0,0,12,1.411Z" fill="#a5f2e4"/>
  <g>
    <path d="M18,9a6,6,0,1,0-11.3,2.827h0l0,.006c.021.041.046.08.069.121L12,21l5.222-9.043c.023-.042.047-.081.069-.123l0,0h0A5.964,5.964,0,0,0,18,9Zm-6,4.361A4.361,4.361,0,1,1,16.361,9,4.361,4.361,0,0,1,12,13.364Z" fill="#a5f2e4"/>
    <g>
      <rect x="11.25" y="6.262" width="1.499" height="5.5" fill="#a5f2e4"/>
      <rect x="9.25" y="8.263" width="5.5" height="1.499" fill="#a5f2e4"/>
    </g>
  </g>
</svg>
