<?xml version="1.0" encoding="utf-8"?>
<!-- Generator: Adobe Illustrator 16.0.4, SVG Export Plug-In . SVG Version: 6.00 Build 0)  -->
<!DOCTYPE svg PUBLIC "-//W3C//DTD SVG 1.1//EN" "http://www.w3.org/Graphics/SVG/1.1/DTD/svg11.dtd">
<svg version="1.1" id="Layer_1" xmlns="http://www.w3.org/2000/svg" xmlns:xlink="http://www.w3.org/1999/xlink" x="0px" y="0px"
	 width="24px" height="24.001px" viewBox="0 0 24 24.001" enable-background="new 0 0 24 24.001" xml:space="preserve">
<g>
	<g>
		<path fill="#FFFFFF" d="M12,24.001c-3.207,0-6.222-1.248-8.486-3.515C1.247,18.22,0,15.207,0,12.002
			C0,8.795,1.247,5.78,3.514,3.515C5.778,1.248,8.793,0,12,0c3.206,0,6.22,1.248,8.486,3.515C22.752,5.78,24,8.795,24,12.002
			c0,3.204-1.248,6.218-3.514,8.484C18.22,22.753,15.206,24.001,12,24.001z M12,1.411c-2.83,0-5.489,1.102-7.489,3.102
			c-1.999,2-3.1,4.659-3.1,7.489c0,2.827,1.101,5.486,3.1,7.485c2,2,4.659,3.102,7.489,3.102c2.828,0,5.488-1.102,7.487-3.102
			c1.999-1.999,3.1-4.658,3.1-7.485c0-2.83-1.101-5.49-3.1-7.489C17.488,2.513,14.828,1.411,12,1.411z"/>
		<g>
			<path opacity="0.5" fill="#FFFFFF" d="M11.999,5.5c-3.583,0-6.5,2.917-6.5,6.5c0,3.584,2.917,6.501,6.5,6.501
				c3.585,0,6.501-2.917,6.501-6.501C18.5,8.417,15.584,5.5,11.999,5.5z M11.999,17.02c-2.767,0-5.02-2.251-5.02-5.02
				c0-2.768,2.253-5.02,5.02-5.02c2.769,0,5.021,2.252,5.021,5.02C17.02,14.769,14.768,17.02,11.999,17.02z"/>
		</g>
		<g opacity="0.7">
			<path fill="#FFFFFF" d="M12,2.9c-5.026,0-9.1,4.074-9.1,9.1c0,5.026,4.074,9.1,9.1,9.1s9.1-4.073,9.1-9.1
				C21.1,6.974,17.026,2.9,12,2.9z M12,19.836c-4.328,0-7.836-3.509-7.836-7.836c0-4.328,3.508-7.836,7.836-7.836
				c4.327,0,7.836,3.508,7.836,7.836C19.836,16.327,16.327,19.836,12,19.836z"/>
		</g>
	</g>
	<circle fill="#FFFFFF" cx="12" cy="12" r="2.326"/>
</g>
</svg>
