<?xml version="1.0" encoding="utf-8"?>
<!-- Generator: Adobe Illustrator 16.0.4, SVG Export Plug-In . SVG Version: 6.00 Build 0)  -->
<!DOCTYPE svg PUBLIC "-//W3C//DTD SVG 1.1//EN" "http://www.w3.org/Graphics/SVG/1.1/DTD/svg11.dtd">
<svg version="1.1" id="Layer_1" xmlns="http://www.w3.org/2000/svg" xmlns:xlink="http://www.w3.org/1999/xlink" x="0px" y="0px"
	 width="24px" height="24px" viewBox="0 0 24 24" enable-background="new 0 0 24 24" xml:space="preserve">
<g>
	<g>
		<g>
			<g>
				<path fill="#00E0B8" d="M14,4.5H7v14h10v-11L14,4.5z M13,15.5H8v-1h5V15.5z M16,13.5H8v-1h8V13.5z M16,11.5H8v-1h8V11.5z"/>
			</g>
			<polygon opacity="0.2" fill="#25373E" enable-background="new    " points="17,8.5 13,8.5 13,4.5 14,4.5 17,7.5 			"/>
			<polygon fill="#00E0B8" points="17,7.5 14,7.5 14,4.5 			"/>
		</g>
	</g>
	<path fill="#00E0B8" d="M12,24c-3.207,0-6.222-1.248-8.486-3.516C1.247,18.219,0,15.208,0,12.002C0,8.795,1.247,5.78,3.514,3.515
		C5.778,1.248,8.793,0,12,0c3.206,0,6.221,1.248,8.486,3.515C22.752,5.78,24,8.795,24,12.002c0,3.204-1.248,6.217-3.514,8.484
		C18.221,22.753,15.206,24,12,24z M12,1.411c-2.83,0-5.489,1.102-7.489,3.102c-1.999,2-3.1,4.659-3.1,7.489
		c0,2.827,1.101,5.486,3.1,7.484c2,2,4.659,3.103,7.489,3.103c2.828,0,5.488-1.103,7.486-3.103c2-1.998,3.101-4.657,3.101-7.484
		c0-2.83-1.101-5.49-3.101-7.489C17.488,2.513,14.828,1.411,12,1.411z"/>
</g>
</svg>
