<svg id="e9dfd606-e158-4cb7-8e04-5e0ef2801493" data-name="Layer 1" xmlns="http://www.w3.org/2000/svg" width="24" height="24" viewBox="0 0 24 24">
  <title>headerTabSubscriberIconOver</title>
  <path d="M12,24A12,12,0,0,1,0,12,12,12,0,0,1,20.486,3.515,12,12,0,0,1,12,24ZM12,1.411A10.589,10.589,0,0,0,4.511,19.486,10.588,10.588,0,1,0,19.486,4.513,10.514,10.514,0,0,0,12,1.411Z" fill="#a5f2e4"/>
  <g>
    <g>
      <g>
        <path d="M8.316,8.067A3.684,3.684,0,1,0,8.47,7.011,3.68,3.68,0,0,0,8.316,8.067Z" fill="#a5f2e4"/>
        <path d="M12.906,12.538H11.094a4.865,4.865,0,0,0-4.854,4.854v1.227H17.759V17.391A4.854,4.854,0,0,0,12.906,12.538Z" fill="#a5f2e4"/>
      </g>
      <circle cx="12" cy="8.067" r="3.685" fill="#a5f2e4"/>
    </g>
    <path d="M8.741,11.112" fill="#a5f2e4" opacity="0.8"/>
  </g>
</svg>
