<svg id="63b092ca-5c62-4aa5-bf27-7d6c6b473243" data-name="Layer 1" xmlns="http://www.w3.org/2000/svg" width="24" height="24" viewBox="0 0 24 24">
  <title>headerTabKPIsIconSelected</title>
  <path d="M12,24A12,12,0,0,1,0,12,12,12,0,0,1,20.486,3.515,12,12,0,0,1,12,24ZM12,1.411A10.589,10.589,0,0,0,4.511,19.486,10.588,10.588,0,1,0,19.486,4.513,10.514,10.514,0,0,0,12,1.411Z" fill="#00e0b8"/>
  <g id="37ba851f-554c-4a29-86f6-b9f7ed6ecad1" data-name="feedback">
    <g>
      <rect x="5.625" y="5.625" width="3.75" height="2.25" fill="#00e0b8"/>
      <rect x="5.625" y="8.625" width="3.75" height="2.25" fill="#00e0b8"/>
      <rect x="5.625" y="11.625" width="3.75" height="2.25" fill="#00e0b8"/>
      <rect x="5.625" y="14.625" width="3.75" height="2.25" fill="#00e0b8"/>
      <rect x="14.625" y="5.625" width="3.75" height="2.25" fill="#00e0b8"/>
      <rect x="14.625" y="8.625" width="3.75" height="2.25" fill="#00e0b8"/>
      <rect x="14.625" y="11.625" width="3.75" height="2.25" fill="#00e0b8"/>
      <rect x="14.625" y="14.625" width="3.75" height="2.25" fill="#00e0b8"/>
      <path d="M11.8,6.953h-.747a1.033,1.033,0,0,1-.018-.2,1.006,1.006,0,0,1,.018-.2H11.8V5.733c.033-.006.065-.011.1-.014s.065,0,.1,0,.066,0,.1,0,.067.007.1.014v.819h.743c.006.033.01.066.014.1s0,.066,0,.1,0,.067,0,.1-.008.068-.014.1H12.2v.814c-.036.006-.07.011-.1.014s-.066,0-.1,0a.961.961,0,0,1-.2-.018Z" fill="#00e0b8"/>
      <path d="M12.583,9.545a.813.813,0,0,1,.014.1q0,.056,0,.105c0,.033,0,.068,0,.106a.66.66,0,0,1-.014.1H11.417a.66.66,0,0,1-.014-.1c0-.037,0-.073,0-.106s0-.068,0-.105a.813.813,0,0,1,.014-.1Z" fill="#00e0b8"/>
      <path d="M11.719,12.752q-.14-.135-.274-.272l-.27-.272a.96.96,0,0,1,.129-.153,1.869,1.869,0,0,1,.155-.135l.544.549q.135-.14.27-.272l.274-.272a1.4,1.4,0,0,1,.283.283q-.27.275-.544.545.274.27.544.545a1.273,1.273,0,0,1-.133.155.93.93,0,0,1-.151.124l-.54-.54-.554.545a1.065,1.065,0,0,1-.283-.283Z" fill="#00e0b8"/>
      <path d="M12.952,15.554a.823.823,0,0,1,.014.1c0,.037,0,.073,0,.106s0,.068,0,.105a.673.673,0,0,1-.014.1H11.044a.569.569,0,0,1-.011-.1c0-.037,0-.073,0-.105s0-.068,0-.106a.672.672,0,0,1,.011-.1Zm-1.278-.616a.307.307,0,0,1,.311-.311.3.3,0,0,1,.218.09.3.3,0,0,1,.092.22.29.29,0,0,1-.092.218.318.318,0,0,1-.439,0A.292.292,0,0,1,11.674,14.938Zm0,1.625a.3.3,0,0,1,.09-.218.307.307,0,0,1,.439,0,.31.31,0,1,1-.529.218Z" fill="#00e0b8"/>
    </g>
  </g>
</svg>
