<svg id="bc687303-8c50-44a2-88a3-9bd962912de6" data-name="Layer 1" xmlns="http://www.w3.org/2000/svg" width="24" height="24" viewBox="0 0 24 24">
  <title>historyIconServiceCalls</title>
  <g>
    <circle cx="12" cy="12" r="12" fill="#25373e"/>
    <path d="M6.5,7.6V14.55a.694.694,0,0,0,.693.7h.519a1.846,1.846,0,1,0,3.692,0h2.02a1.846,1.846,0,1,0,3.693,0h.692a.694.694,0,0,0,.692-.7V11.073a1.157,1.157,0,0,0-.338-.82L16.72,8.8a1.151,1.151,0,0,0-.817-.339H14.808V7.6a.7.7,0,0,0-.693-.7H7.193A.694.694,0,0,0,6.5,7.6Zm10.847,3.941H14.808V9.624H15.9l1.444,1.449Zm-2.771,3.709a.706.706,0,0,1,.033-.208.694.694,0,0,1,.167-.28.687.687,0,0,1,.493-.208.7.7,0,1,1-.693.7Zm-5.711,0a.692.692,0,1,1,.692.7A.694.694,0,0,1,8.866,15.245Z" fill="#fff"/>
  </g>
</svg>
