<svg id="c19eb4f1-2d3f-4178-a5a4-fa048310d012" data-name="Layer 1" xmlns="http://www.w3.org/2000/svg" width="24" height="24" viewBox="0 0 24 24">
  <title>historyIconCustomerCalls</title>
  <g>
    <circle cx="12" cy="12" r="12" fill="#25373e"/>
    <path d="M14.463,14.4a.088.088,0,0,0-.028.031s-.837,1.417-3.149-1.868-.693-3.581-.687-3.583a.094.094,0,0,0,.038-.014c.174-.122-.151-.881-.725-1.7C9.368,6.5,8.794,5.952,8.588,6h0l0,0a.159.159,0,0,0-.025.01.064.064,0,0,0-.016.019c-.866.578-2.711,1.014,1.69,7.267s5.444,4.676,6.286,4.066a.082.082,0,0,0,.022-.009.067.067,0,0,0,.019-.021h0c.118-.174-.2-.9-.745-1.672C15.243,14.845,14.637,14.282,14.463,14.4Z" fill="#fff"/>
  </g>
</svg>
