<svg id="20dd3b64-712e-41c3-9a1a-1ad57c764320" data-name="Layer 1" xmlns="http://www.w3.org/2000/svg" width="24" height="24" viewBox="0 0 24 24">
  <title>historyIconSpeedTest</title>
  <g>
    <circle cx="12" cy="12" r="12" fill="#25373e"/>
    <g>
      <path d="M12,11.718a3.268,3.268,0,1,1-3.269,3.268A3.274,3.274,0,0,1,12,11.718m0-1.4a4.668,4.668,0,1,0,4.669,4.668A4.668,4.668,0,0,0,12,10.318Z" fill="#fff" opacity="0.75" style="isolation: isolate"/>
      <circle cx="12" cy="14.987" r="3.273" fill="#fff" opacity="0.6" style="isolation: isolate"/>
      <circle cx="12" cy="14.986" r="2" fill="#fff"/>
      <g opacity="0.4">
        <path d="M8.508,7.256a.7.7,0,0,1-.647-.432L7.1,4.976A.7.7,0,0,1,8.388,4.44l.766,1.848a.7.7,0,0,1-.646.968Z" fill="#fff"/>
      </g>
      <path d="M12,7.363a.7.7,0,0,1-.7-.7v-2.8a.7.7,0,0,1,.7-.7h0a.7.7,0,0,1,.7.7v2.8a.7.7,0,0,1-.7.7Z" fill="#fff"/>
      <path d="M6.114,9.8a.7.7,0,0,1-.5-.2L3.639,7.618a.7.7,0,0,1,.99-.99l1.98,1.979A.7.7,0,0,1,6.114,9.8Z" fill="#fff"/>
      <path d="M17.886,9.8a.7.7,0,0,1-.5-1.195l1.98-1.98a.7.7,0,0,1,.989.99L18.381,9.6A.7.7,0,0,1,17.886,9.8Z" fill="#fff"/>
      <path d="M12,15.686a.7.7,0,0,1-.646-.969L15.609,4.439a.7.7,0,1,1,1.293.536L12.647,15.253A.7.7,0,0,1,12,15.686Z" fill="#fff"/>
    </g>
  </g>
</svg>
