<svg id="551e656f-1103-440e-bbe7-e06399b7de1c" data-name="Layer 1" xmlns="http://www.w3.org/2000/svg" width="24" height="24" viewBox="0 0 24 24">
  <title>historyIconHic</title>
  <g>
    <g>
      <path d="M3.515,20.485,20.485,3.515A12,12,0,0,0,3.515,20.485Z" transform="translate(0 0)" fill="#d4002b"/>
      <path d="M20.485,20.485a12,12,0,0,0,0-16.971L3.515,20.485A12,12,0,0,0,20.485,20.485Z" transform="translate(0 0)" fill="#ffbc00"/>
    </g>
    <path d="M8.815,14.557H6.951a4.935,4.935,0,0,1-.066-.858,3.654,3.654,0,0,1,.025-.445c.016-.143.035-.292.057-.445h2l.165-2H7.281c-.022-.154-.041-.3-.059-.446A4.083,4.083,0,0,1,7.2,9.921a3.871,3.871,0,0,1,.024-.437c.018-.138.036-.283.059-.437h2l.215-2.491a4.374,4.374,0,0,1,.5-.066c.159-.011.333-.016.52-.016.165,0,.327.005.487.016a3.856,3.856,0,0,1,.486.066l-.215,2.491h2.014L13.5,6.555a4.952,4.952,0,0,1,.512-.066c.152-.011.324-.016.51-.016.166,0,.328.005.488.016a4.387,4.387,0,0,1,.5.066L15.3,9.046h1.734c.021.154.041.294.057.421a3.08,3.08,0,0,1,.025.421,4.074,4.074,0,0,1-.025.462c-.016.154-.035.308-.057.462H15.168l-.166,2h1.717q.032.231.059.429a3.67,3.67,0,0,1,.023.429,4.088,4.088,0,0,1-.023.445q-.026.215-.059.445H14.854l-.23,2.888a4.855,4.855,0,0,1-.52.066c-.16.011-.328.017-.5.017s-.34-.006-.494-.017a4.285,4.285,0,0,1-.5-.066l.231-2.888h-2l-.231,2.888a4.824,4.824,0,0,1-.52.066c-.159.011-.332.017-.52.017-.165,0-.324-.006-.479-.017a4.921,4.921,0,0,1-.512-.066Zm4.175-1.749.164-2H11.142l-.165,2Z" transform="translate(0 0)" fill="#fff"/>
  </g>
</svg>
