<svg id="993bf1fe-f1ba-4738-a7b1-dd1367466f45" data-name="c19eb4f1-2d3f-4178-a5a4-fa048310d012" xmlns="http://www.w3.org/2000/svg" width="24" height="24" viewBox="0 0 24 24">
  <title>historyIconRF</title>
  <g id="78d5219c-8406-4274-a02a-3ad1ef18ba2a" data-name="ticket">
    <circle cx="12" cy="12" r="12" fill="#25373e"/>
    <g>
      <path d="M16.763,3.75H7.237L2.474,12l4.763,8.25h9.526L21.526,12Zm-.469,13.459q-.25.206-.52.389a6.713,6.713,0,0,1-3.084,1.118,6.832,6.832,0,0,1-.69.035h0a6.75,6.75,0,1,1,0-13.5h0a6.832,6.832,0,0,1,.69.035A6.713,6.713,0,0,1,15.774,6.4q.269.182.52.389a6.786,6.786,0,0,1,1.3,1.435,6.749,6.749,0,0,1-1.3,8.983Z" fill="#fff"/>
      <path d="M12,18.75h0a6.751,6.751,0,0,1-2.007-.3A6.75,6.75,0,0,0,12,18.75Z" fill="#fff"/>
      <path d="M9.993,18.447a6.713,6.713,0,0,1-1.21-.511A6.713,6.713,0,0,0,9.993,18.447Z" fill="#fff"/>
      <path d="M6.791,7.706a6.751,6.751,0,0,0,0,8.587,6.751,6.751,0,0,1,0-8.587Z" fill="#fff"/>
      <path d="M8.783,6.065a6.713,6.713,0,0,1,1.21-.511A6.713,6.713,0,0,0,8.783,6.065Z" fill="#fff"/>
      <path d="M12,6.75A5.25,5.25,0,1,0,17.25,12,5.256,5.256,0,0,0,12,6.75Zm0,6.375A1.125,1.125,0,1,1,13.125,12,1.125,1.125,0,0,1,12,13.125Z" fill="#fff"/>
      <path d="M12,5.25a6.75,6.75,0,0,0-2.007.3A6.751,6.751,0,0,1,12,5.25Z" fill="#fff"/>
      <path d="M12,18.75a6.832,6.832,0,0,0,.69-.035,6.832,6.832,0,0,1-.69.035Z" fill="#25373e"/>
      <path d="M15.774,17.6a6.738,6.738,0,0,1-1.147.622A6.745,6.745,0,0,0,15.774,17.6Z" fill="#25373e"/>
      <path d="M17.6,8.226a6.754,6.754,0,0,1,0,7.548,6.754,6.754,0,0,0,0-7.548Z" fill="#25373e"/>
      <path d="M17.6,8.226a6.786,6.786,0,0,0-1.3-1.435A6.786,6.786,0,0,1,17.6,8.226Z" fill="#25373e"/>
      <path d="M16.294,17.209a6.785,6.785,0,0,0,1.3-1.435A6.785,6.785,0,0,1,16.294,17.209Z" fill="#25373e"/>
      <path d="M12,5.25h0a6.832,6.832,0,0,1,.69.035A6.832,6.832,0,0,0,12,5.25Z" fill="#25373e"/>
      <path d="M14.627,5.78a6.735,6.735,0,0,1,1.147.622A6.742,6.742,0,0,0,14.627,5.78Z" fill="#25373e"/>
    </g>
  </g>
</svg>
