<svg id="e9370a15-974d-491f-9a1c-f067a5d2c575" data-name="Layer 1" xmlns="http://www.w3.org/2000/svg" width="24" height="24" viewBox="0 0 24 24">
  <title>historyIconMaintenance</title>
  <g>
    <g id="238d6845-a702-44c5-93bf-2e83be212d62" data-name="ticket">
      <circle cx="12" cy="12" r="12" fill="#758b98"/>
    </g>
    <path d="M18.071,15.419l-5.094-5.094A4.12,4.12,0,0,0,7.785,5.134L9.421,6.77l.292.292.933.933a.375.375,0,0,1,.1.362l-.448,1.673a.375.375,0,0,1-.265.265l-1.673.448a.375.375,0,0,1-.362-.1l-.933-.933L6.77,9.421,5.134,7.785a4.12,4.12,0,0,0,5.192,5.192l5.094,5.094a1.125,1.125,0,0,0,1.591,0l1.061-1.061A1.125,1.125,0,0,0,18.071,15.419Z" fill="#fff"/>
  </g>
</svg>
