<svg id="6e32cacc-ee8c-41ff-a71a-c2f45aeaa367" data-name="Layer 1" xmlns="http://www.w3.org/2000/svg" width="16" height="16" viewBox="0 0 16 16">
  <title>iconVisible</title>
  <g>
    <circle cx="8" cy="8" r="8" fill="#b2babb"/>
    <path d="M14.284,7.977V7.962l0-.008V7.945l0-.017h0a.473.473,0,0,0-.132-.259,9.515,9.515,0,0,0-1.363-1.287A8.719,8.719,0,0,0,9.225,4.569a5.905,5.905,0,0,0-2.295-.032,7.217,7.217,0,0,0-2,.707A10.865,10.865,0,0,0,2.267,7.22c-.146.143-.288.292-.421.448a.482.482,0,0,0,0,.663A9.734,9.734,0,0,0,3.21,9.619a8.712,8.712,0,0,0,3.557,1.812,5.928,5.928,0,0,0,2.3.031,7.17,7.17,0,0,0,2-.706,10.885,10.885,0,0,0,2.668-1.978c.143-.144.288-.291.42-.448a.473.473,0,0,0,.132-.26h0l0-.014v-.01l0-.006V7.977ZM8,10.423A2.423,2.423,0,1,1,10.419,8,2.421,2.421,0,0,1,8,10.423Z" fill="#fff"/>
  </g>
</svg>
