<svg id="ec22061a-130a-4fd0-8710-cd084379f044" data-name="Layer 1" xmlns="http://www.w3.org/2000/svg" width="5.148" height="5.076" viewBox="0 0 5.148 5.076">
  <title>iconFilterTabUsed</title>
  <path d="M.426,2.67a2.83,2.83,0,0,1,.156-.426A1.849,1.849,0,0,1,.81,1.866l1.561.4a3.568,3.568,0,0,1-.234.546,5.722,5.722,0,0,1-.318.521Zm1.416.864q.18.12.426.324a3.282,3.282,0,0,1,.426.42L1.47,5.514a2.244,2.244,0,0,1-.36-.265A1.943,1.943,0,0,1,.8,4.914ZM2.922.51a2.4,2.4,0,0,1,.24-.036c.08-.008.156-.012.228-.012A2.317,2.317,0,0,1,3.87.51L3.714,2.142c-.12.016-.232.028-.336.036s-.208.012-.312.012-.189,0-.282-.012S2.6,2.158,2.5,2.142ZM2.9,4.23a5.06,5.06,0,0,1,.486-.372,4.227,4.227,0,0,1,.51-.288l.6,1.464a2.309,2.309,0,0,1-.354.276q-.174.108-.414.228ZM5.43,1.878a4.05,4.05,0,0,1,.1.4,2.42,2.42,0,0,1,.042.48l-1.6.66a1.325,1.325,0,0,1-.156-.54,3.731,3.731,0,0,1,0-.6Z" transform="translate(-0.426 -0.462)" fill="#7fefdb"/>
</svg>
