<svg id="2e2a813a-788d-40ee-a8a4-76f073135990" data-name="e611969e-f1a9-427c-99fd-d2169be263db" xmlns="http://www.w3.org/2000/svg" width="24" height="24" viewBox="0 0 24 24">
  <title>iconWarningTooMany</title>
  <g id="684c1e20-ac34-452c-b8d7-e3bae23915fb" data-name="5ecf8e7b-0b71-415c-819c-ddaeb8a49ac2">
    <circle cx="12" cy="12" r="12" fill="#758b98"/>
    <path d="M18.178,14.826l-5.428-9.4a.793.793,0,0,0-1.5,0l-5.428,9.4c-.412.714-.075,1.3.75,1.3H17.428C18.253,16.125,18.59,15.541,18.178,14.826ZM12,7.8a4.88,4.88,0,0,1,.736.056l-.1,4.614a3.748,3.748,0,0,1-.632.056,3.687,3.687,0,0,1-.642-.056l-.094-4.614A4.818,4.818,0,0,1,12,7.8Zm.7,6.839a4.421,4.421,0,0,1-.7.061,4.355,4.355,0,0,1-.7-.056,4.291,4.291,0,0,1-.056-.688,4.472,4.472,0,0,1,.056-.7A4.3,4.3,0,0,1,12,13.2a4.475,4.475,0,0,1,.7.056,4.374,4.374,0,0,1,.057.688,4.3,4.3,0,0,1-.064.7Z" fill="#7fefdb"/>
  </g>
</svg>
