<svg id="f01bc9e2-9c83-4a7d-901b-3bbb885ef199" data-name="Layer 1" xmlns="http://www.w3.org/2000/svg" width="16" height="16" viewBox="0 0 16 16">
  <title>iconInfoTooltipOver</title>
  <g id="42c466c0-6b86-4416-a668-3acdb67a9e66" data-name="info">
    <circle cx="8" cy="8" r="8" fill="#758b98"/>
    <path d="M9.646,12.364l-.138.61c-.4.176-.728.312-.97.4a2.354,2.354,0,0,1-.841.139,1.58,1.58,0,0,1-1.146-.4,1.354,1.354,0,0,1-.41-1.008,3.848,3.848,0,0,1,.032-.485c.021-.165.054-.354.1-.561l.506-1.979c.046-.19.084-.371.115-.54a2.71,2.71,0,0,0,.046-.464.768.768,0,0,0-.142-.53.743.743,0,0,0-.542-.149,1.3,1.3,0,0,0-.4.068q-.2.067-.353.129l.136-.612q.5-.223.953-.382a2.617,2.617,0,0,1,.86-.159,1.543,1.543,0,0,1,1.129.391,1.36,1.36,0,0,1,.4,1.013c0,.086-.011.237-.029.454a3.6,3.6,0,0,1-.1.6L8.339,10.88c-.041.158-.078.338-.111.543a3.222,3.222,0,0,0-.049.461.71.71,0,0,0,.159.536.829.829,0,0,0,.553.143,1.448,1.448,0,0,0,.416-.07A2.628,2.628,0,0,0,9.646,12.364Zm.127-8.283a1.213,1.213,0,0,1-.354.879,1.181,1.181,0,0,1-1.7,0,1.268,1.268,0,0,1,0-1.761,1.154,1.154,0,0,1,.855-.366,1.141,1.141,0,0,1,.851.366A1.219,1.219,0,0,1,9.773,4.081Z" fill="#7fefdb"/>
  </g>
</svg>
