<?xml version="1.0" encoding="utf-8"?>
<!-- Generator: Adobe Illustrator 16.0.4, SVG Export Plug-In . SVG Version: 6.00 Build 0)  -->
<!DOCTYPE svg PUBLIC "-//W3C//DTD SVG 1.1//EN" "http://www.w3.org/Graphics/SVG/1.1/DTD/svg11.dtd">
<svg version="1.1" id="Layer_1" xmlns="http://www.w3.org/2000/svg" xmlns:xlink="http://www.w3.org/1999/xlink" x="0px" y="0px"
	 width="16px" height="16px" viewBox="0 0 16 16" enable-background="new 0 0 16 16" xml:space="preserve">
<g>
	<g>
		<circle fill="#CC8F8F" cx="8" cy="8" r="8"/>
	</g>
	<g>
		<path fill="#FFFFFF" d="M11.039,11.979c-0.256,0-0.512-0.098-0.707-0.293L4.36,5.714c-0.391-0.39-0.391-1.023,0-1.414
			c0.39-0.391,1.023-0.391,1.414,0l5.972,5.972c0.391,0.391,0.391,1.023,0,1.414C11.55,11.881,11.294,11.979,11.039,11.979z"/>
		<path fill="#FFFFFF" d="M5.067,11.979c-0.256,0-0.512-0.098-0.707-0.293c-0.391-0.391-0.391-1.024,0-1.414L10.332,4.3
			c0.391-0.391,1.023-0.391,1.414,0s0.391,1.024,0,1.414l-5.972,5.971C5.579,11.881,5.323,11.979,5.067,11.979z"/>
	</g>
</g>
</svg>
