<svg id="0463f4a4-7b18-4d19-a85a-fd7915f45284" data-name="Layer 1" xmlns="http://www.w3.org/2000/svg" width="227.903" height="390" viewBox="0 0 227.903 390">
  <title>labsBgIcon</title>
  <g id="8a452a84-4c95-48c1-8286-c20d0d408c08" data-name="labIcon" opacity="0.15">
    <g id="c0aa9bec-e5c8-42a4-94df-6d5b30276fef" data-name="flask">
      <path d="M222.1,325.742l-65.31-113.12V132.031a14.279,14.279,0,1,0,0-28.559H71.113a14.279,14.279,0,1,0,0,28.559v80.592L5.8,325.742C-10.685,354.3,9.925,390,42.9,390H185C217.978,390,238.589,354.3,222.1,325.742Z" fill="#fff"/>
    </g>
    <g id="b01a60b7-07ba-4ee9-86bf-7ee0f3576c9c" data-name="liquid" opacity="0.5">
      <path d="M143.913,269.608c20.016,8.748,36.871-15.426,36.871-15.426l41.315,71.56C238.589,354.3,217.978,390,185,390H42.9c-32.978,0-53.588-35.7-37.1-64.258L39.672,267.08s13.919,28.258,36.314,10.761S123.9,260.86,143.913,269.608Z" fill="#a3b7c1"/>
    </g>
    <g id="e2e88980-62b3-49a9-b82d-6726cee84a86" data-name="externalBubbles">
      <path d="M119.8,42.645a10.71,10.71,0,1,1-10.714-10.71A10.715,10.715,0,0,1,119.8,42.645Z" fill="#a3b7c1"/>
      <circle cx="139.886" cy="60.685" r="7.14" fill="#a3b7c1"/>
      <circle cx="130.51" cy="7.14" r="7.14" fill="#a3b7c1"/>
    </g>
    <g id="d6bea8d2-5124-4b5e-b603-b87d4712da4b" data-name="internalBubbles">
      <path d="M92.532,325.507A21.419,21.419,0,1,1,71.1,304.086,21.431,21.431,0,0,1,92.532,325.507Z" fill="#46616f"/>
      <path d="M154.167,274.827a14.279,14.279,0,1,1-14.285-14.281A14.287,14.287,0,0,1,154.167,274.827Z" fill="#46616f"/>
      <path d="M130.508,226.3a10.71,10.71,0,1,1-10.714-10.71A10.715,10.715,0,0,1,130.508,226.3Z" fill="#46616f"/>
      <circle cx="132.747" cy="184.904" r="7.14" fill="#46616f"/>
      <path d="M181.779,346.926a17.849,17.849,0,1,1-17.856-17.851A17.859,17.859,0,0,1,181.779,346.926Z" fill="#46616f"/>
    </g>
    <g id="96310825-f9a6-4ec6-8f83-c9e8988d865b" data-name="scale">
      <rect x="71.113" y="146.001" width="34.87" height="5.489" fill="#25373e"/>
      <rect x="71.113" y="169.397" width="34.87" height="5.489" fill="#25373e"/>
      <rect x="71.113" y="192.792" width="34.87" height="5.489" fill="#25373e"/>
    </g>
  </g>
</svg>
