<svg id="c6c59f84-ea46-4872-a72a-f6d09a6dbf9e" data-name="Layer 1" xmlns="http://www.w3.org/2000/svg" width="26" height="21.266" viewBox="0 0 26 21.266">
  <title>labsFeedback</title>
  <g id="5a4984e3-60a5-4a45-95b1-0f3d6d0c6f8b" data-name="feedback">
    <g id="9ee175a7-ee73-4985-b6f4-67bfe8a110f3" data-name="smile">
      <path d="M7.634,12.141A2.254,2.254,0,0,1,5.383,9.89h-0.6a2.85,2.85,0,1,0,5.7,0h-0.6A2.254,2.254,0,0,1,7.634,12.141Z" fill="#fff"/>
      <circle cx="5.964" cy="8.105" r="0.66" fill="#fff"/>
      <circle cx="9.305" cy="8.105" r="0.66" fill="#fff"/>
    </g>
    <path id="eb08cbe1-5b9c-4546-b09b-ce2c3db82aa4" data-name="bubble" d="M26,9.815C26,4.394,20.18,0,13,0S0,4.394,0,9.815,5.82,19.63,13,19.63a17.07,17.07,0,0,0,2.881-.25,36.683,36.683,0,0,0,7.431,1.886s-1.207-1.3-.3-5.193A8.48,8.48,0,0,0,26,9.815ZM7.634,13.9a4.324,4.324,0,1,1,4.324-4.324A4.324,4.324,0,0,1,7.634,13.9Zm10.568,0a4.324,4.324,0,1,1,4.324-4.324A4.324,4.324,0,0,1,18.2,13.9Z" fill="#fff"/>
    <g id="158937af-e427-4f30-8de9-18c0fc82cb5f" data-name="frown">
      <circle cx="19.873" cy="8.105" r="0.66" fill="#fff"/>
      <circle cx="16.532" cy="8.105" r="0.66" fill="#fff"/>
      <path d="M18.2,9.382a2.853,2.853,0,0,0-2.85,2.85h0.6a2.251,2.251,0,1,1,4.5,0h0.6A2.853,2.853,0,0,0,18.2,9.382Z" fill="#fff"/>
    </g>
  </g>
</svg>
