<svg id="c51f276a-7d7d-4a39-8d72-cf3468864458" data-name="Layer 1" xmlns="http://www.w3.org/2000/svg" width="26" height="21.266" viewBox="0 0 26 21.266">
  <title>labsFeedbackOver</title>
  <g id="cdc528c6-4e8e-4a84-af34-6526fe329871" data-name="feedback">
    <g id="0849e762-2eb2-4b64-a24d-986de005474b" data-name="smile">
      <path d="M7.634,12.141A2.254,2.254,0,0,1,5.383,9.89h-0.6a2.85,2.85,0,1,0,5.7,0h-0.6A2.254,2.254,0,0,1,7.634,12.141Z" fill="#00e0b8"/>
      <circle cx="5.964" cy="8.105" r="0.66" fill="#00e0b8"/>
      <circle cx="9.305" cy="8.105" r="0.66" fill="#00e0b8"/>
    </g>
    <path id="3f63b284-c391-4ecc-9cbd-e82d203e0224" data-name="bubble" d="M26,9.815C26,4.394,20.18,0,13,0S0,4.394,0,9.815,5.82,19.63,13,19.63a17.07,17.07,0,0,0,2.881-.25,36.683,36.683,0,0,0,7.431,1.886s-1.207-1.3-.3-5.193A8.48,8.48,0,0,0,26,9.815ZM7.634,13.9a4.324,4.324,0,1,1,4.324-4.324A4.324,4.324,0,0,1,7.634,13.9Zm10.568,0a4.324,4.324,0,1,1,4.324-4.324A4.324,4.324,0,0,1,18.2,13.9Z" fill="#00e0b8"/>
    <g id="9b151aca-75eb-4c7f-86e5-b4372c8748f0" data-name="frown">
      <circle cx="19.873" cy="8.105" r="0.66" fill="#00e0b8"/>
      <circle cx="16.532" cy="8.105" r="0.66" fill="#00e0b8"/>
      <path d="M18.2,9.382a2.853,2.853,0,0,0-2.85,2.85h0.6a2.251,2.251,0,1,1,4.5,0h0.6A2.853,2.853,0,0,0,18.2,9.382Z" fill="#00e0b8"/>
    </g>
  </g>
</svg>
