<?xml version="1.0" encoding="utf-8"?>
<!-- Generator: Adobe Illustrator 16.0.4, SVG Export Plug-In . SVG Version: 6.00 Build 0)  -->
<!DOCTYPE svg PUBLIC "-//W3C//DTD SVG 1.1//EN" "http://www.w3.org/Graphics/SVG/1.1/DTD/svg11.dtd">
<svg version="1.1" id="Layer_1" xmlns="http://www.w3.org/2000/svg" xmlns:xlink="http://www.w3.org/1999/xlink" x="0px" y="0px"
	 width="23px" height="23px" viewBox="0 0 23 23" enable-background="new 0 0 23 23" xml:space="preserve">
<g>
	<g>
		<circle fill="#E1E6E4" cx="11.5" cy="11.5" r="11.5"/>
	</g>
	<g>
		<g id="XMLID_1_">
			<path fill="#24373E" d="M17.041,7.877l-1.71-1.707c-0.416-0.416-1.089-0.423-1.495-0.018c0,0-0.001,0.001-0.001,0.001l0,0
				l-6.237,6.226l-0.126,0.124l-1.079,4.303l4.306-1.079l0.402-0.408l0,0l5.958-5.948h0c0-0.001,0.001-0.001,0.001-0.001
				C17.465,8.964,17.457,8.292,17.041,7.877z M7.913,12.937l2.354,2.35l-2.21,0.553l-0.69-0.726L7.913,12.937z"/>
		</g>
	</g>
</g>
</svg>
