<svg xmlns="http://www.w3.org/2000/svg" width="60" height="45" viewBox="0 0 60 45">
  <rect x="1" y="1" rx="8" ry="8" width="58" height="43"
  style="fill:#fff;stroke:#a3b7c1;stroke-width:1"/>
  <circle transform="translate(22 15)" cx="0" cy="16" r="0" fill="#00e0b8"> 
    <animate attributeName="r" values="0; 4; 0; 0" dur="1.2s" repeatCount="indefinite" begin="0"
      keytimes="0;0.2;0.7;1" keySplines="0.2 0.2 0.4 0.8;0.2 0.6 0.4 0.8;0.2 0.6 0.4 0.8" calcMode="spline" />
  </circle>
  <circle transform="translate(30 15)" cx="0" cy="16" r="0" fill="#00e0b8"> 
    <animate attributeName="r" values="0; 4; 0; 0" dur="1.2s" repeatCount="indefinite" begin="0.3"
      keytimes="0;0.2;0.7;1" keySplines="0.2 0.2 0.4 0.8;0.2 0.6 0.4 0.8;0.2 0.6 0.4 0.8" calcMode="spline" />
  </circle>
  <circle transform="translate(38 15)" cx="0" cy="16" r="0" fill="#00e0b8"> 
    <animate attributeName="r" values="0; 4; 0; 0" dur="1.2s" repeatCount="indefinite" begin="0.6"
      keytimes="0;0.2;0.7;1" keySplines="0.2 0.2 0.4 0.8;0.2 0.6 0.4 0.8;0.2 0.6 0.4 0.8" calcMode="spline" />
  </circle>
  <g>
    <path d="M9.617,11.37c.088-.016.182-.028.282-.036s.206-.012.318-.012.208,0,.312.012.2.02.3.036v7.548h3.384a2.064,2.064,0,0,1,.03.276c0,.1.006.184.006.264a3.835,3.835,0,0,1-.036.54h-4.6Z" fill="#45555b"/>
    <path d="M18.012,20.142a3.015,3.015,0,0,1-1.26-.246,2.511,2.511,0,0,1-.9-.678,2.822,2.822,0,0,1-.534-1.02,4.73,4.73,0,0,1,0-2.544,2.82,2.82,0,0,1,.534-1.02,2.566,2.566,0,0,1,.9-.684,3.277,3.277,0,0,1,2.52,0,2.563,2.563,0,0,1,.9.684,2.82,2.82,0,0,1,.534,1.02,4.73,4.73,0,0,1,0,2.544,2.822,2.822,0,0,1-.534,1.02,2.508,2.508,0,0,1-.9.678A3.011,3.011,0,0,1,18.012,20.142Zm0-.948a1.364,1.364,0,0,0,1.224-.6,3.011,3.011,0,0,0,.4-1.668,2.979,2.979,0,0,0-.4-1.662,1.369,1.369,0,0,0-1.224-.594,1.354,1.354,0,0,0-1.218.594,3.015,3.015,0,0,0-.39,1.662,3.047,3.047,0,0,0,.39,1.668A1.349,1.349,0,0,0,18.012,19.194Z" fill="#45555b"/>
    <path d="M25.669,15.942a1.172,1.172,0,0,0-.36-.984,1.691,1.691,0,0,0-1.044-.276,4.436,4.436,0,0,0-.786.066,6.018,6.018,0,0,0-.714.174,1.863,1.863,0,0,1-.228-.948,5.517,5.517,0,0,1,.9-.2,6.572,6.572,0,0,1,.948-.072,2.691,2.691,0,0,1,1.824.546,2.206,2.206,0,0,1,.624,1.746v3.852q-.42.1-1.02.2a7.3,7.3,0,0,1-1.224.1,4.805,4.805,0,0,1-1.062-.108,2.169,2.169,0,0,1-.8-.348,1.614,1.614,0,0,1-.51-.612,2.057,2.057,0,0,1-.18-.9,1.835,1.835,0,0,1,.78-1.554,2.546,2.546,0,0,1,.828-.384,3.768,3.768,0,0,1,.984-.126q.384,0,.63.018t.414.042Zm0,1.164q-.18-.023-.456-.048t-.468-.024a1.954,1.954,0,0,0-1.134.276.96.96,0,0,0-.39.84,1.032,1.032,0,0,0,.132.564.907.907,0,0,0,.33.312,1.138,1.138,0,0,0,.438.132,4.551,4.551,0,0,0,.456.024,5.62,5.62,0,0,0,.57-.03,3.375,3.375,0,0,0,.522-.09Z" fill="#45555b"/>
    <path d="M32.547,11.2a2.839,2.839,0,0,1,.3-.036c.112-.008.208-.012.288-.012s.186,0,.294.012a2.863,2.863,0,0,1,.294.036V19.83a8.543,8.543,0,0,1-1.02.222,8.089,8.089,0,0,1-1.26.09,4.568,4.568,0,0,1-1.23-.162,2.51,2.51,0,0,1-1.7-1.494,3.689,3.689,0,0,1-.252-1.452,3.94,3.94,0,0,1,.222-1.356,3.044,3.044,0,0,1,.63-1.05,2.806,2.806,0,0,1,.978-.678,3.228,3.228,0,0,1,1.266-.24,4.258,4.258,0,0,1,.63.048,4.141,4.141,0,0,1,.558.12Zm0,3.684a2.56,2.56,0,0,0-.516-.144,3.487,3.487,0,0,0-.6-.048,1.883,1.883,0,0,0-.852.18,1.658,1.658,0,0,0-.594.492,2.127,2.127,0,0,0-.348.738,3.585,3.585,0,0,0-.114.93,2.184,2.184,0,0,0,.54,1.632,2.028,2.028,0,0,0,1.44.492,5.113,5.113,0,0,0,.576-.03,2.743,2.743,0,0,0,.468-.09Z" fill="#45555b"/>
    <path d="M35.872,14.778h-.78a1.47,1.47,0,0,1-.036-.222q-.012-.126-.012-.246t.012-.246a1.47,1.47,0,0,1,.036-.222h1.944V20a2.863,2.863,0,0,1-.294.036q-.162.012-.294.012c-.08,0-.174,0-.282-.012A2.863,2.863,0,0,1,35.872,20Zm-.264-2.292a2.381,2.381,0,0,1-.03-.312c0-.112-.006-.211-.006-.3s0-.188.006-.3a2.084,2.084,0,0,1,.03-.3c.1-.016.216-.028.336-.036s.224-.012.312-.012.192,0,.312.012.228.02.324.036a2.156,2.156,0,0,1,.03.3q.006.168.006.3c0,.088,0,.188-.006.3a2.468,2.468,0,0,1-.03.312c-.1.016-.2.028-.318.036s-.218.012-.306.012-.2,0-.324-.012S35.711,12.5,35.608,12.486Z" fill="#45555b"/>
    <path d="M38.868,13.842q.132-.024.258-.036c.084-.008.17-.012.258-.012a2.413,2.413,0,0,1,.246.012c.076.008.158.02.246.036q.037.179.072.486a4.53,4.53,0,0,1,.036.51,2.458,2.458,0,0,1,.306-.408,2.346,2.346,0,0,1,.426-.366,2.187,2.187,0,0,1,1.236-.366,1.914,1.914,0,0,1,1.56.606,2.749,2.749,0,0,1,.5,1.794V20a2.855,2.855,0,0,1-.3.036q-.168.012-.3.012t-.294-.012A2.863,2.863,0,0,1,42.828,20V16.422a2.329,2.329,0,0,0-.264-1.254.93.93,0,0,0-.84-.4,1.692,1.692,0,0,0-.636.12,1.413,1.413,0,0,0-.528.372,1.867,1.867,0,0,0-.366.654,2.98,2.98,0,0,0-.138.966V20a2.863,2.863,0,0,1-.294.036q-.162.012-.294.012c-.088,0-.188,0-.3-.012a2.855,2.855,0,0,1-.3-.036Z" fill="#45555b"/>
    <path d="M49.063,19.206a2.364,2.364,0,0,1,1.548.456,1.518,1.518,0,0,1,.48,1.188,1.589,1.589,0,0,1-.252.882,2.245,2.245,0,0,1-.7.672,3.528,3.528,0,0,1-1.05.432,5.459,5.459,0,0,1-1.314.15A3.747,3.747,0,0,1,45.9,22.6a1.307,1.307,0,0,1-.648-1.212,1.537,1.537,0,0,1,.264-.882,1.914,1.914,0,0,1,.684-.618,1.429,1.429,0,0,1-.4-.39.994.994,0,0,1-.162-.582,1.447,1.447,0,0,1,.2-.768,2.077,2.077,0,0,1,.534-.576,2.065,2.065,0,0,1-.636-.714,2.023,2.023,0,0,1-.24-.99,2.153,2.153,0,0,1,.168-.852,1.986,1.986,0,0,1,.486-.69,2.271,2.271,0,0,1,.786-.462A3.142,3.142,0,0,1,48,13.7a2.9,2.9,0,0,1,.978.156,2.723,2.723,0,0,1,.75.4,1.96,1.96,0,0,1,.648-.318,3.039,3.039,0,0,1,.9-.126,2.432,2.432,0,0,1,.048.5c0,.088,0,.18-.012.276s-.02.192-.036.288h-1.08a1.73,1.73,0,0,1,.2.444,1.914,1.914,0,0,1,.072.552,2.117,2.117,0,0,1-.18.888,1.937,1.937,0,0,1-.51.678,2.308,2.308,0,0,1-.786.432,3.17,3.17,0,0,1-1,.15,3.38,3.38,0,0,1-.888-.108,1.219,1.219,0,0,0-.33.294.66.66,0,0,0-.162.426.527.527,0,0,0,.156.378,1.05,1.05,0,0,0,.7.174Zm-1.62.948a1,1,0,0,0-.81.288,1.039,1.039,0,0,0-.27.72.79.79,0,0,0,.108.432.781.781,0,0,0,.306.27,1.531,1.531,0,0,0,.468.144,3.84,3.84,0,0,0,.594.042,2.969,2.969,0,0,0,1.5-.318.925.925,0,0,0,.54-.8.682.682,0,0,0-.228-.552,1.392,1.392,0,0,0-.84-.2Zm.552-3a1.2,1.2,0,0,0,.96-.36,1.359,1.359,0,0,0,.312-.924,1.4,1.4,0,0,0-.312-.942,1.192,1.192,0,0,0-.96-.366,1.174,1.174,0,0,0-.954.366,1.42,1.42,0,0,0-.306.942,1.378,1.378,0,0,0,.306.924A1.184,1.184,0,0,0,48,17.154Z" fill="#45555b"/>
  </g>
</svg>
