<svg xmlns="http://www.w3.org/2000/svg" width="80" height="80" viewBox="0 0 80 80">
  <circle transform="translate(32 40)" cx="0" cy="16" r="0" fill="#fff"> 
    <animate attributeName="r" values="0; 4; 0; 0" dur="1.2s" repeatCount="indefinite" begin="0"
      keytimes="0;0.2;0.7;1" keySplines="0.2 0.2 0.4 0.8;0.2 0.6 0.4 0.8;0.2 0.6 0.4 0.8" calcMode="spline" />
  </circle>
  <circle transform="translate(40 40)" cx="0" cy="16" r="0" fill="#fff"> 
    <animate attributeName="r" values="0; 4; 0; 0" dur="1.2s" repeatCount="indefinite" begin="0.3"
      keytimes="0;0.2;0.7;1" keySplines="0.2 0.2 0.4 0.8;0.2 0.6 0.4 0.8;0.2 0.6 0.4 0.8" calcMode="spline" />
  </circle>
  <circle transform="translate(48 40)" cx="0" cy="16" r="0" fill="#fff"> 
    <animate attributeName="r" values="0; 4; 0; 0" dur="1.2s" repeatCount="indefinite" begin="0.6"
      keytimes="0;0.2;0.7;1" keySplines="0.2 0.2 0.4 0.8;0.2 0.6 0.4 0.8;0.2 0.6 0.4 0.8" calcMode="spline" />
  </circle>
  <g>
    <path d="M17.369,25.044q.168-.028.357-.042c.126-.009.254-.014.385-.014s.238,0,.35.014.225.023.336.042l-1.54,8.806h3.752q-.028.364-.069.658a2.548,2.548,0,0,1-.168.6H15.605Z" transform="translate(0)" fill="#fff"/>
    <path d="M25.041,35.278a2.521,2.521,0,0,1-1.96-.721,2.913,2.913,0,0,1-.658-2.037,5.962,5.962,0,0,1,.238-1.617,4.866,4.866,0,0,1,.735-1.54,4.19,4.19,0,0,1,1.245-1.148,3.349,3.349,0,0,1,1.771-.455,2.527,2.527,0,0,1,1.974.728,2.942,2.942,0,0,1,.658,2.044,5.928,5.928,0,0,1-.238,1.624,4.989,4.989,0,0,1-.728,1.533,4.016,4.016,0,0,1-1.246,1.141A3.455,3.455,0,0,1,25.041,35.278Zm.14-1.106a1.808,1.808,0,0,0,1.127-.357,2.774,2.774,0,0,0,.764-.9,4.566,4.566,0,0,0,.434-1.183,5.564,5.564,0,0,0,.14-1.2,1.83,1.83,0,0,0-.356-1.218,1.258,1.258,0,0,0-1.015-.42,1.752,1.752,0,0,0-1.12.364,2.861,2.861,0,0,0-.756.91,4.354,4.354,0,0,0-.428,1.183,5.8,5.8,0,0,0-.133,1.183,1.886,1.886,0,0,0,.343,1.218A1.218,1.218,0,0,0,25.181,34.172Z" transform="translate(0)" fill="#fff"/>
    <path d="M36.143,32.058q-.154.839-.245,1.442a7.162,7.162,0,0,0-.091,1.05c0,.122,0,.217.007.287a2.464,2.464,0,0,0,.035.259,3.317,3.317,0,0,1-.336.042c-.121.009-.233.014-.336.014s-.2,0-.308-.014-.22-.023-.322-.042c-.019-.1-.033-.208-.042-.315s-.014-.24-.014-.4a3.56,3.56,0,0,1,.034-.42c.023-.177.05-.336.077-.476a3.515,3.515,0,0,1-.405.623,3.594,3.594,0,0,1-.581.574,3.059,3.059,0,0,1-.742.427,2.343,2.343,0,0,1-.89.168,1.65,1.65,0,0,1-1.393-.609,2.656,2.656,0,0,1-.469-1.659,6.225,6.225,0,0,1,.308-1.939,5.134,5.134,0,0,1,.91-1.68,4.523,4.523,0,0,1,1.5-1.183,4.607,4.607,0,0,1,2.086-.448,6.81,6.81,0,0,1,1.015.077,4.848,4.848,0,0,1,.9.217Zm-.8-3.066a2.123,2.123,0,0,0-.35-.056c-.122-.009-.257-.014-.406-.014a2.445,2.445,0,0,0-1.253.322,3.144,3.144,0,0,0-.952.861,4.054,4.054,0,0,0-.609,1.218,4.7,4.7,0,0,0-.21,1.393,1.922,1.922,0,0,0,.238,1.043.792.792,0,0,0,.714.371,1.461,1.461,0,0,0,.84-.28,2.883,2.883,0,0,0,.742-.777,5.345,5.345,0,0,0,.581-1.162,8.63,8.63,0,0,0,.385-1.421Z" transform="translate(0)" fill="#fff"/>
    <path d="M43.927,32.058q-.154.839-.238,1.442a7.785,7.785,0,0,0-.084,1.05v.287a1.505,1.505,0,0,0,.028.259c-.1.019-.213.033-.329.042s-.227.014-.329.014-.21,0-.322-.014a2.743,2.743,0,0,1-.308-.042c-.019-.074-.035-.156-.049-.245a2.424,2.424,0,0,1-.021-.371,4.323,4.323,0,0,1,.035-.469,3.621,3.621,0,0,1,.105-.553,4.672,4.672,0,0,1-.42.63,3.476,3.476,0,0,1-.589.588,3.041,3.041,0,0,1-.749.434,2.338,2.338,0,0,1-.889.168,1.667,1.667,0,0,1-1.4-.609,2.627,2.627,0,0,1-.477-1.659,6.2,6.2,0,0,1,.309-1.939,5.132,5.132,0,0,1,.909-1.68,4.51,4.51,0,0,1,1.5-1.183,4.621,4.621,0,0,1,2.079-.448q.154,0,.322.014c.112.009.205.019.28.028q.154-.812.238-1.4a7.485,7.485,0,0,0,.084-1.036v-.28a2.354,2.354,0,0,0-.015-.238,3.435,3.435,0,0,1,.371-.042c.145-.009.269-.014.371-.014s.2,0,.315.007a2.059,2.059,0,0,1,.314.035,3.465,3.465,0,0,1,.042.518,6.9,6.9,0,0,1-.062.826c-.042.336-.092.658-.147.966Zm-.812-3.066a2.107,2.107,0,0,0-.35-.056c-.121-.009-.257-.014-.406-.014a2.447,2.447,0,0,0-1.253.322,3.167,3.167,0,0,0-.952.861,4.029,4.029,0,0,0-.608,1.218,4.67,4.67,0,0,0-.21,1.393,1.931,1.931,0,0,0,.237,1.043.793.793,0,0,0,.715.371,1.464,1.464,0,0,0,.84-.28,2.912,2.912,0,0,0,.742-.777,5.629,5.629,0,0,0,.588-1.162,8.263,8.263,0,0,0,.392-1.421Z" transform="translate(0)" fill="#fff"/>
    <path d="M46.979,29.034H46.11a4.163,4.163,0,0,1,.035-.546,2.473,2.473,0,0,1,.146-.56h2.24l-1.26,7.182a2.543,2.543,0,0,1-.357.035c-.135,0-.254.007-.356.007s-.21,0-.322-.007a2.393,2.393,0,0,1-.322-.035Zm-.015-2.59a4.057,4.057,0,0,1,.07-.77q.07-.364.182-.742c.131-.019.271-.032.421-.042s.279-.014.392-.014.24,0,.385.014.277.023.4.042a5.3,5.3,0,0,1-.084.777,6.7,6.7,0,0,1-.183.735,3.779,3.779,0,0,1-.42.035c-.149,0-.279.007-.392.007s-.229,0-.378-.007A2.963,2.963,0,0,1,46.964,26.444Z" transform="translate(0)" fill="#fff"/>
    <path d="M50.437,30.952q.154-.839.245-1.442a7.151,7.151,0,0,0,.091-1.05c0-.121,0-.217-.007-.287a2.464,2.464,0,0,0-.035-.259,3.317,3.317,0,0,1,.336-.042c.121-.009.233-.014.336-.014s.2,0,.315.014a2.723,2.723,0,0,1,.314.042,1.707,1.707,0,0,1,.042.259q.015.147.015.385a3.45,3.45,0,0,1-.035.5c-.023.159-.049.313-.077.462a3.129,3.129,0,0,1,.392-.609,3.243,3.243,0,0,1,.588-.567,3.362,3.362,0,0,1,.749-.42,2.3,2.3,0,0,1,.875-.168,1.818,1.818,0,0,1,1.31.448,1.837,1.837,0,0,1,.469,1.386,4.441,4.441,0,0,1-.028.469c-.019.173-.042.338-.069.5l-.8,4.55c-.112.019-.233.033-.364.042s-.247.014-.351.014-.217,0-.343-.014a2.752,2.752,0,0,1-.329-.042l.756-4.312c.028-.149.05-.294.063-.434s.021-.261.021-.364a1.045,1.045,0,0,0-.259-.8.985.985,0,0,0-.692-.238,1.371,1.371,0,0,0-.742.231,2.54,2.54,0,0,0-.687.679,5.094,5.094,0,0,0-.581,1.106,8.012,8.012,0,0,0-.412,1.512L51.08,35.11c-.111.019-.233.033-.363.042s-.248.014-.351.014-.217,0-.343-.014a2.752,2.752,0,0,1-.329-.042Z" transform="translate(0)" fill="#fff"/>
    <path d="M62.141,33.486a3.579,3.579,0,0,1-.406.623,3.452,3.452,0,0,1-.588.574,3.2,3.2,0,0,1-.749.427,2.343,2.343,0,0,1-.89.168,1.65,1.65,0,0,1-1.393-.609,2.656,2.656,0,0,1-.469-1.659,6.225,6.225,0,0,1,.308-1.939,5.134,5.134,0,0,1,.91-1.68,4.523,4.523,0,0,1,1.5-1.183,4.607,4.607,0,0,1,2.086-.448,7.106,7.106,0,0,1,1.029.077,4.839,4.839,0,0,1,.917.217q-.322,1.764-.623,3.5t-.623,3.5a4.739,4.739,0,0,1-.561,1.61,3.5,3.5,0,0,1-.966,1.071,3.871,3.871,0,0,1-1.3.6,6.225,6.225,0,0,1-1.568.189,5.455,5.455,0,0,1-.952-.084,3.893,3.893,0,0,1-.783-.21,2.335,2.335,0,0,1,.308-1.12q.28.07.658.147a4.147,4.147,0,0,0,.826.077,4.518,4.518,0,0,0,1.12-.126,2.351,2.351,0,0,0,.867-.42,2.441,2.441,0,0,0,.638-.77,4.537,4.537,0,0,0,.413-1.19Zm.728-4.48a3.11,3.11,0,0,0-.756-.084,2.483,2.483,0,0,0-1.26.322,3.034,3.034,0,0,0-.952.861,4.244,4.244,0,0,0-.609,1.218,4.555,4.555,0,0,0-.217,1.393,1.842,1.842,0,0,0,.252,1.043.813.813,0,0,0,.714.371,1.453,1.453,0,0,0,.848-.28,2.911,2.911,0,0,0,.728-.77,5.412,5.412,0,0,0,.574-1.155,9.592,9.592,0,0,0,.4-1.435Z" transform="translate(0)" fill="#fff"/>
  </g>
</svg>
