<?xml version="1.0" encoding="utf-8"?>
<!-- Generator: Adobe Illustrator 16.0.4, SVG Export Plug-In . SVG Version: 6.00 Build 0)  -->
<!DOCTYPE svg PUBLIC "-//W3C//DTD SVG 1.1//EN" "http://www.w3.org/Graphics/SVG/1.1/DTD/svg11.dtd">
<svg version="1.1" id="Layer_1" xmlns="http://www.w3.org/2000/svg" xmlns:xlink="http://www.w3.org/1999/xlink" x="0px" y="0px"
	 width="24px" height="24px" viewBox="0 0 24 24" enable-background="new 0 0 24 24" xml:space="preserve">
<g opacity="0.2">
	<circle fill="#25373E" cx="12" cy="12" r="12"/>
	<g>
		<path fill="none" d="M15.699,7.607c-1.336-1.336-3.512-1.336-4.849,0c-1.127,1.126-1.3,2.848-0.526,4.163
			c0.144,0.244,0.317,0.477,0.526,0.686c0.21,0.209,0.442,0.383,0.686,0.526c1.314,0.774,3.036,0.602,4.163-0.526
			C17.036,11.119,17.036,8.944,15.699,7.607z"/>
		<path fill="#FFFFFF" d="M16.911,6.395c-2.008-2.009-5.265-2.009-7.273,0.001C7.836,8.197,7.656,11,9.086,13.007l-4.297,4.298
			l1.212,1.212l4.297-4.297c2.008,1.429,4.811,1.25,6.612-0.552C18.919,11.66,18.919,8.404,16.911,6.395z M11.536,12.982
			c-0.244-0.144-0.476-0.317-0.686-0.526c-0.209-0.209-0.382-0.441-0.526-0.686C9.55,10.456,9.723,8.734,10.85,7.607
			c1.336-1.336,3.512-1.336,4.849,0c1.337,1.336,1.337,3.511,0,4.848C14.572,13.583,12.85,13.756,11.536,12.982z"/>
	</g>
</g>
</svg>
