<svg id="401d1fe3-f55b-415a-bf87-79451054be71" data-name="serviceCenter" xmlns="http://www.w3.org/2000/svg" width="20" height="17.514" viewBox="0 0 20 17.514">
  <title>mapCareServiceCenterGreen</title>
  <g id="89027fda-c8e5-479b-a353-9a9ebd047103" data-name="agent">
    <path d="M15.992,2.783L12.65,2.777a1.619,1.619,0,0,0-1.608,1.63V6.3h0.993V4.522h0.6V6.3h3.416V4.522h0.587V6.3H17.62V4.435A1.634,1.634,0,0,0,16,2.783H15.992Z" transform="translate(0 -0.004)" fill="#95d600"/>
    <path d="M14.83,2.414a1.255,1.255,0,1,0-.494.1A1.255,1.255,0,0,0,14.83,2.414Z" transform="translate(0 -0.004)" fill="#95d600"/>
  </g>
  <g id="667a0031-0c6d-4daf-9bae-27aa30e870b8" data-name="desk">
    <rect y="6.713" width="2.079" height="1.45" fill="#95d600"/>
    <rect x="10.337" y="6.713" width="9.663" height="1.45" fill="#95d600"/>
  </g>
  <g id="6fa49bdc-33f2-4516-8533-4889851190b5" data-name="customer">
    <path d="M8.15,5.1H8.813V9.358a0.791,0.791,0,0,0,.048.281,0.537,0.537,0,0,0,1.015,0,0.789,0.789,0,0,0,.047-0.281V5.011A1.847,1.847,0,0,0,8.1,3.145H8.087L4.31,3.138a1.8,1.8,0,0,0-1.286.541,1.858,1.858,0,0,0-.531,1.307V9.359a0.585,0.585,0,0,0,.456.626,0.555,0.555,0,0,0,.1.01,0.546,0.546,0,0,0,.3-0.089,0.623,0.623,0,0,0,.26-0.547V5.1H4.29V16.643a0.8,0.8,0,0,0,1.6,0h0V9.95H6.551v6.693a0.8,0.8,0,1,0,1.593,0Z" transform="translate(0 -0.004)" fill="#95d600"/>
    <path d="M6.774,2.728a1.418,1.418,0,1,0-.558.115A1.418,1.418,0,0,0,6.774,2.728Z" transform="translate(0 -0.004)" fill="#95d600"/>
  </g>
</svg>
