<?xml version="1.0" encoding="utf-8"?>
<!-- Generator: Adobe Illustrator 16.0.4, SVG Export Plug-In . SVG Version: 6.00 Build 0)  -->
<!DOCTYPE svg PUBLIC "-//W3C//DTD SVG 1.1//EN" "http://www.w3.org/Graphics/SVG/1.1/DTD/svg11.dtd">
<svg version="1.1" id="Layer_1" xmlns="http://www.w3.org/2000/svg" xmlns:xlink="http://www.w3.org/1999/xlink" x="0px" y="0px"
	 width="20px" height="17px" viewBox="0 0 20 17" enable-background="new 0 0 20 17" xml:space="preserve">
<path fill="#46616F" d="M0,1.159v7.727v3.864c0,0.64,0.516,1.159,1.154,1.159h0.864C2.019,15.615,3.398,17,5.095,17
	c1.701,0,3.076-1.385,3.076-3.091h3.367c0,1.706,1.379,3.091,3.076,3.091c1.699,0,3.078-1.385,3.078-3.091h1.152
	c0.639,0,1.154-0.52,1.154-1.159V9.368V8.886V6.954c0-0.513-0.201-1.005-0.564-1.366l-2.402-2.414
	c-0.359-0.363-0.85-0.566-1.361-0.566h-1.824V1.159c0-0.64-0.52-1.159-1.154-1.159H1.154C0.516,0,0,0.52,0,1.159z M18.078,7.727
	h-4.23V4.539h1.824l2.406,2.415V7.727z M13.46,13.909c0-0.121,0.02-0.237,0.055-0.347c0.055-0.178,0.15-0.337,0.277-0.466
	c0.209-0.214,0.502-0.347,0.822-0.347c0.637,0,1.154,0.52,1.154,1.159c0,0.639-0.518,1.158-1.154,1.158
	C13.98,15.067,13.46,14.548,13.46,13.909z M3.943,13.909c0-0.64,0.518-1.159,1.152-1.159c0.637,0,1.154,0.52,1.154,1.159
	c0,0.639-0.518,1.158-1.154,1.158C4.46,15.067,3.943,14.548,3.943,13.909z"/>
</svg>
