<?xml version="1.0" encoding="utf-8"?>
<!-- Generator: Adobe Illustrator 16.0.4, SVG Export Plug-In . SVG Version: 6.00 Build 0)  -->
<!DOCTYPE svg PUBLIC "-//W3C//DTD SVG 1.1//EN" "http://www.w3.org/Graphics/SVG/1.1/DTD/svg11.dtd">
<svg version="1.1" id="Layer_1" xmlns="http://www.w3.org/2000/svg" xmlns:xlink="http://www.w3.org/1999/xlink" x="0px" y="0px"
	 width="13px" height="17px" viewBox="0 0 13 17" enable-background="new 0 0 13 17" xml:space="preserve">
<path fill="#FF8300" d="M9.988,11.905c-0.016,0.011-0.027,0.024-0.038,0.043c-0.005,0.007-1.185,2.007-4.461-2.646
	C2.214,4.649,4.508,4.229,4.515,4.227c0.021-0.003,0.038-0.01,0.054-0.021c0.246-0.172-0.213-1.248-1.027-2.402
	C2.771,0.705,1.958-0.068,1.667,0.005V0.004C1.664,0.005,1.663,0.006,1.66,0.007C1.647,0.011,1.635,0.015,1.624,0.021
	c-0.01,0.007-0.017,0.018-0.023,0.027c-1.226,0.818-3.84,1.437,2.395,10.295c6.234,8.857,7.713,6.625,8.904,5.761
	c0.012-0.004,0.023-0.008,0.033-0.015s0.019-0.019,0.025-0.028c0.002-0.002,0.003-0.002,0.006-0.004l-0.001-0.002
	c0.168-0.246-0.284-1.271-1.056-2.367C11.094,12.529,10.236,11.732,9.988,11.905z"/>
</svg>
