<svg id="d31d8d3e-d2f5-4306-bb22-ad34edb94664" data-name="Layer 1" xmlns="http://www.w3.org/2000/svg" width="19.998" height="17" viewBox="0 0 19.998 17">
  <title>mapCareTruckRed</title>
  <path d="M0,1.159V12.75a1.156,1.156,0,0,0,1.154,1.159h.864a3.077,3.077,0,1,0,6.153,0h3.367a3.077,3.077,0,1,0,6.154,0h1.152A1.156,1.156,0,0,0,20,12.75v-5.8a1.924,1.924,0,0,0-.564-1.366l-2.4-2.414a1.914,1.914,0,0,0-1.361-.566H13.847V1.159A1.159,1.159,0,0,0,12.693,0H1.154A1.157,1.157,0,0,0,0,1.159ZM18.078,7.727h-4.23V4.539h1.824l2.406,2.415ZM13.46,13.909a1.159,1.159,0,0,1,1.154-1.16,1.159,1.159,0,1,1-1.154,1.16Zm-9.517,0A1.153,1.153,0,1,1,5.1,15.067,1.157,1.157,0,0,1,3.943,13.909Z" fill="#ff2b00"/>
</svg>
