<svg id="7ded54a8-59e2-4493-bb06-a25d06906339" data-name="Layer 1" xmlns="http://www.w3.org/2000/svg" width="12.998" height="17" viewBox="0 0 12.998 17">
  <title>mapCareCallsRed</title>
  <path d="M9.988,11.9a.123.123,0,0,0-.038.043c-.005.007-1.185,2.007-4.461-2.646s-.981-5.073-.974-5.075a.122.122,0,0,0,.054-.021c.246-.172-.213-1.248-1.027-2.4C2.771.7,1.958-.068,1.667,0h0l-.007,0a.192.192,0,0,0-.036.014A.1.1,0,0,0,1.6.048C.375.866-2.239,1.485,4,10.343s7.713,6.625,8.9,5.761a.124.124,0,0,0,.033-.015.11.11,0,0,0,.025-.028l.006,0v0c.168-.246-.284-1.271-1.056-2.367C11.094,12.529,10.236,11.732,9.988,11.9Z" transform="translate(0 0)" fill="#ff2b00"/>
</svg>
