<svg id="c7a72aa7-be30-495a-9661-c26ce237bcd7" data-name="7bda0a40-e58e-463d-8e95-dfa129fa4573" xmlns="http://www.w3.org/2000/svg" width="20" height="17.514" viewBox="0 0 20 17.514">
  <title>mapCareServiceCenterRed</title>
  <g id="983e5b48-3812-4159-9a93-3e4fa351762b" data-name="edc5b357-324f-42a3-8104-b294a9dc721e">
    <path d="M15.992,2.779,12.65,2.773A1.619,1.619,0,0,0,11.042,4.4h0V6.3h.993V4.518h.6V6.3h3.416V4.518h.587V6.3h.982V4.431A1.634,1.634,0,0,0,16,2.779h-.012Z" transform="translate(0 0)" fill="#ff2b00"/>
    <path d="M14.83,2.41a1.255,1.255,0,1,0-.494.1A1.255,1.255,0,0,0,14.83,2.41Z" transform="translate(0 0)" fill="#ff2b00"/>
  </g>
  <g id="4ac97739-642f-4c04-b398-f408a576889a" data-name="79f3bb4f-5048-491e-bc65-52ad3eb55679">
    <rect y="6.713" width="2.079" height="1.45" fill="#ff2b00"/>
    <rect x="10.337" y="6.713" width="9.663" height="1.45" fill="#ff2b00"/>
  </g>
  <g id="3b00cefe-0095-4fd2-a4ae-10535ae65194" data-name="efaa3c42-2a76-4eca-b561-d7fe34c4fe15">
    <path d="M8.15,5.1h.663V9.354a.791.791,0,0,0,.048.281.537.537,0,0,0,1.015,0,.789.789,0,0,0,.047-.281V5.007A1.847,1.847,0,0,0,8.1,3.141H8.087L4.31,3.134a1.8,1.8,0,0,0-1.286.541,1.858,1.858,0,0,0-.531,1.307V9.355a.585.585,0,0,0,.456.626.555.555,0,0,0,.1.01.546.546,0,0,0,.3-.089.623.623,0,0,0,.26-.547V5.1H4.29V16.639a.8.8,0,0,0,1.6,0h0V9.946h.661v6.693a.8.8,0,1,0,1.593,0Z" transform="translate(0 0)" fill="#ff2b00"/>
    <path d="M6.774,2.724a1.418,1.418,0,1,0-.558.115A1.418,1.418,0,0,0,6.774,2.724Z" transform="translate(0 0)" fill="#ff2b00"/>
  </g>
</svg>
