<?xml version="1.0" encoding="utf-8"?>
<!-- Generator: Adobe Illustrator 16.0.4, SVG Export Plug-In . SVG Version: 6.00 Build 0)  -->
<!DOCTYPE svg PUBLIC "-//W3C//DTD SVG 1.1//EN" "http://www.w3.org/Graphics/SVG/1.1/DTD/svg11.dtd">
<svg version="1.1" id="Layer_1" xmlns="http://www.w3.org/2000/svg" xmlns:xlink="http://www.w3.org/1999/xlink" x="0px" y="0px"
	 width="9px" height="21px" viewBox="0 0 9 21" enable-background="new 0 0 9 21" xml:space="preserve">
<g>
	<g>
		<g>
			<polygon fill="none" stroke="#FFFFFF" stroke-width="0.5507" stroke-miterlimit="10" points="1.195,9.811 4.5,1 7.805,9.811 
				4.5,8.202 			"/>
			<polygon fill="#25373E" points="4.5,8.202 7.805,9.811 4.5,1 			"/>
			<polygon opacity="0.6" fill="#25373E" points="4.5,8.202 1.195,9.811 4.5,1 			"/>
			<polygon fill="none" stroke="#25373E" stroke-width="0.5507" stroke-miterlimit="10" points="1.195,9.811 4.5,1 7.805,9.811 
				4.5,8.202 			"/>
		</g>
	</g>
	<g>
		<g>
			<path fill="#25373E" d="M1,12.074C1.273,12.025,1.534,12,1.782,12c0.266,0,0.54,0.025,0.823,0.074l3.685,5.639v-5.639
				C6.609,12.025,6.914,12,7.205,12C7.48,12,7.744,12.025,8,12.074v8.853C7.718,20.976,7.461,21,7.232,21
				c-0.248,0-0.518-0.024-0.809-0.073L2.71,15.301v5.626C2.428,20.976,2.141,21,1.849,21S1.273,20.976,1,20.927V12.074z"/>
		</g>
	</g>
</g>
</svg>
