<?xml version="1.0" encoding="utf-8"?>
<!-- Generator: Adobe Illustrator 16.0.4, SVG Export Plug-In . SVG Version: 6.00 Build 0)  -->
<!DOCTYPE svg PUBLIC "-//W3C//DTD SVG 1.1//EN" "http://www.w3.org/Graphics/SVG/1.1/DTD/svg11.dtd">
<svg version="1.1" id="Layer_1" xmlns="http://www.w3.org/2000/svg" xmlns:xlink="http://www.w3.org/1999/xlink" x="0px" y="0px"
	 width="21px" height="21px" viewBox="0 0 21 21" enable-background="new 0 0 21 21" xml:space="preserve">
<g id="mapKeyBlob">
	<polygon fill="#D7DBDA" points="0,21 0,0 21,0 	"/>
	<polygon fill="#85C7C7" points="21,21 0,21 21,0 	"/>
	<g>
		<g>
			<rect fill="none" width="21" height="21"/>
			<g>
				<rect y="3.087" fill="none" width="1.981" height="2.875"/>
				<rect x="11.053" y="15.039" fill="none" width="2.879" height="2.876"/>
				<rect x="15.038" fill="none" width="2.875" height="1.982"/>
				<rect x="3.086" y="3.087" fill="none" width="2.875" height="2.875"/>
				<rect x="3.086" fill="none" width="2.875" height="1.982"/>
				<rect y="7.068" fill="none" width="1.981" height="2.879"/>
				<rect x="3.086" y="19.019" fill="none" width="2.875" height="1.981"/>
				<rect x="15.038" y="7.068" fill="none" width="2.875" height="2.879"/>
				<rect y="15.039" fill="none" width="1.981" height="2.876"/>
				<rect y="11.053" fill="none" width="1.981" height="2.88"/>
				<rect x="7.067" y="19.019" fill="none" width="2.881" height="1.981"/>
				<rect x="15.038" y="3.087" fill="none" width="2.875" height="2.875"/>
				<rect x="7.067" y="7.068" fill="none" width="2.881" height="2.879"/>
				<rect x="7.067" y="3.087" fill="none" width="2.881" height="2.875"/>
				<rect x="11.053" y="3.087" fill="none" width="2.879" height="2.875"/>
				<rect x="7.067" y="15.039" fill="none" width="2.881" height="2.876"/>
				<rect x="7.067" y="11.053" fill="none" width="2.881" height="2.88"/>
				<rect x="3.086" y="15.039" fill="none" width="2.875" height="2.876"/>
				<rect x="11.053" y="11.053" fill="none" width="2.879" height="2.88"/>
				<rect x="3.086" y="11.053" fill="none" width="2.875" height="2.88"/>
				<rect x="3.086" y="7.068" fill="none" width="2.875" height="2.879"/>
				<rect x="7.067" fill="none" width="2.881" height="1.982"/>
				<rect x="11.053" y="7.068" fill="none" width="2.879" height="2.879"/>
				<rect x="15.038" y="11.053" fill="none" width="2.875" height="2.88"/>
				<rect x="19.018" fill="none" width="1.982" height="1.982"/>
				<rect x="19.018" y="11.053" fill="none" width="1.982" height="2.88"/>
				<rect x="15.038" y="15.039" fill="none" width="2.875" height="2.876"/>
				<rect x="19.018" y="7.068" fill="none" width="1.982" height="2.879"/>
				<rect x="19.018" y="3.087" fill="none" width="1.982" height="2.875"/>
				<rect fill="none" width="1.981" height="1.982"/>
				<rect x="19.018" y="19.019" fill="none" width="1.982" height="1.981"/>
				<rect y="19.019" fill="none" width="1.981" height="1.981"/>
				<rect x="11.053" fill="none" width="2.879" height="1.982"/>
				<rect x="15.038" y="19.019" fill="none" width="2.875" height="1.981"/>
				<rect x="19.018" y="15.039" fill="none" width="1.982" height="2.876"/>
				<rect x="11.053" y="19.019" fill="none" width="2.879" height="1.981"/>
				<g opacity="0.4">
					<rect x="7.067" y="1.982" fill="#FFFFFF" width="2.881" height="1.105"/>
					<rect x="11.053" y="1.982" fill="#FFFFFF" width="2.879" height="1.105"/>
					<rect x="15.038" y="1.982" fill="#FFFFFF" width="2.875" height="1.105"/>
					<rect x="3.086" y="1.982" fill="#FFFFFF" width="2.875" height="1.105"/>
					<rect x="19.018" y="1.982" fill="#FFFFFF" width="1.982" height="1.105"/>
					<rect y="1.982" fill="#FFFFFF" width="1.981" height="1.105"/>
				</g>
				<g opacity="0.35">
					<rect y="5.963" fill="#FFFFFF" width="1.981" height="1.105"/>
					<rect x="19.018" y="5.963" fill="#FFFFFF" width="1.982" height="1.105"/>
					<rect x="15.038" y="5.963" fill="#FFFFFF" width="2.875" height="1.105"/>
					<rect x="11.053" y="5.963" fill="#FFFFFF" width="2.879" height="1.105"/>
					<rect x="3.086" y="5.963" fill="#FFFFFF" width="2.875" height="1.105"/>
					<rect x="7.067" y="5.963" fill="#FFFFFF" width="2.881" height="1.105"/>
				</g>
				<g opacity="0.3">
					<rect x="3.086" y="9.948" fill="#FFFFFF" width="2.875" height="1.106"/>
					<rect x="7.067" y="9.948" fill="#FFFFFF" width="2.881" height="1.106"/>
					<rect x="19.018" y="9.948" fill="#FFFFFF" width="1.982" height="1.106"/>
					<rect x="15.038" y="9.948" fill="#FFFFFF" width="2.875" height="1.106"/>
					<rect y="9.948" fill="#FFFFFF" width="1.981" height="1.106"/>
					<rect x="11.053" y="9.948" fill="#FFFFFF" width="2.879" height="1.106"/>
				</g>
				<g opacity="0.25">
					<rect y="13.933" fill="#FFFFFF" width="1.981" height="1.105"/>
					<rect x="7.067" y="13.933" fill="#FFFFFF" width="2.881" height="1.105"/>
					<rect x="15.038" y="13.933" fill="#FFFFFF" width="2.875" height="1.105"/>
					<rect x="11.053" y="13.933" fill="#FFFFFF" width="2.879" height="1.105"/>
					<rect x="19.018" y="13.933" fill="#FFFFFF" width="1.982" height="1.105"/>
					<rect x="3.086" y="13.933" fill="#FFFFFF" width="2.875" height="1.105"/>
				</g>
				<g opacity="0.2">
					<rect x="15.038" y="17.915" fill="#FFFFFF" width="2.875" height="1.104"/>
					<rect x="3.086" y="17.915" fill="#FFFFFF" width="2.875" height="1.104"/>
					<rect x="11.053" y="17.915" fill="#FFFFFF" width="2.879" height="1.104"/>
					<rect y="17.915" fill="#FFFFFF" width="1.981" height="1.104"/>
					<rect x="19.018" y="17.915" fill="#FFFFFF" width="1.982" height="1.104"/>
					<rect x="7.067" y="17.915" fill="#FFFFFF" width="2.881" height="1.104"/>
				</g>
				<polygon opacity="0.4" fill="#FFFFFF" enable-background="new    " points="3.086,17.915 3.086,15.039 3.086,13.933 
					3.086,11.053 3.086,9.948 3.086,7.068 3.086,5.963 3.086,3.087 3.086,1.982 3.086,0 1.981,0 1.981,1.982 1.981,3.087 
					1.981,5.963 1.981,7.068 1.981,9.948 1.981,11.053 1.981,13.933 1.981,15.039 1.981,17.915 1.981,19.019 1.981,21 3.086,21 
					3.086,19.019 				"/>
				<polygon opacity="0.35" fill="#FFFFFF" enable-background="new    " points="7.067,17.915 7.067,15.039 7.067,13.933 
					7.067,11.053 7.067,9.948 7.067,7.068 7.067,5.963 7.067,3.087 7.067,1.982 7.067,0 5.961,0 5.961,1.982 5.961,3.087 
					5.961,5.963 5.961,7.068 5.961,9.948 5.961,11.053 5.961,13.933 5.961,15.039 5.961,17.915 5.961,19.019 5.961,21 7.067,21 
					7.067,19.019 				"/>
				<polygon opacity="0.3" fill="#FFFFFF" enable-background="new    " points="11.053,17.915 11.053,15.039 11.053,13.933 
					11.053,11.053 11.053,9.948 11.053,7.068 11.053,5.963 11.053,3.087 11.053,1.982 11.053,0 9.948,0 9.948,1.982 9.948,3.087 
					9.948,5.963 9.948,7.068 9.948,9.948 9.948,11.053 9.948,13.933 9.948,15.039 9.948,17.915 9.948,19.019 9.948,21 11.053,21 
					11.053,19.019 				"/>
				<polygon opacity="0.25" fill="#FFFFFF" enable-background="new    " points="15.038,17.915 15.038,15.039 15.038,13.933 
					15.038,11.053 15.038,9.948 15.038,7.068 15.038,5.963 15.038,3.087 15.038,1.982 15.038,0 13.933,0 13.933,1.982 13.933,3.087 
					13.933,5.963 13.933,7.068 13.933,9.948 13.933,11.053 13.933,13.933 13.933,15.039 13.933,17.915 13.933,19.019 13.933,21 
					15.038,21 15.038,19.019 				"/>
				<polygon opacity="0.2" fill="#FFFFFF" enable-background="new    " points="19.018,15.039 19.018,13.933 19.018,11.053 
					19.018,9.948 19.018,7.068 19.018,5.963 19.018,3.087 19.018,1.982 19.018,0 17.913,0 17.913,1.982 17.913,3.087 17.913,5.963 
					17.913,7.068 17.913,9.948 17.913,11.053 17.913,13.933 17.913,15.039 17.913,17.915 17.913,19.019 17.913,21 19.018,21 
					19.018,19.019 19.018,17.915 				"/>
			</g>
			<g>
				<polygon fill="#D4002B" points="3.484,17.848 5.118,13.933 0.954,11.732 1.581,8.106 3.367,4.819 7.067,3.087 9.937,1.152 
					13.768,2.697 15.033,5.967 18.995,7.671 19.803,11.261 19.175,14.886 15.062,16.53 14.203,20.114 10.434,18.827 6.989,20.295 
									"/>
				<path fill="#46616F" d="M6.945,20.721l-3.923-2.738l1.618-3.879l-4.103-2.167l0.714-4.01l1.845-3.396L6.881,2.76l3.01-2.03
					l4.167,1.68l1.267,3.274l3.993,1.718l0.866,3.849l-0.676,3.905l-4.129,1.65l-0.91,3.796l-4.022-1.373L6.945,20.721z
					 M3.947,17.714l3.086,2.154l3.386-1.442l3.515,1.2l0.808-3.372l4.1-1.639l0.579-3.345l-0.749-3.33L14.74,6.25l-1.264-3.265
					L9.98,1.574L7.226,3.427l-3.588,1.68L1.94,8.231l-0.571,3.297l4.227,2.232L3.947,17.714z"/>
			</g>
		</g>
	</g>
</g>
<g id="mapKeyCheckmark">
	<g>
		<g>
			<g>
				<g>
					<g>
						<polygon fill="#25373E" points="9.5,13.561 6.97,11.032 8.03,9.971 9.499,11.439 12.97,7.971 14.029,9.032 						"/>
					</g>
				</g>
			</g>
		</g>
	</g>
</g>
</svg>
