<?xml version="1.0" encoding="utf-8"?>
<!-- Generator: Adobe Illustrator 16.0.4, SVG Export Plug-In . SVG Version: 6.00 Build 0)  -->
<!DOCTYPE svg PUBLIC "-//W3C//DTD SVG 1.1//EN" "http://www.w3.org/Graphics/SVG/1.1/DTD/svg11.dtd">
<svg version="1.1" id="Layer_1" xmlns="http://www.w3.org/2000/svg" xmlns:xlink="http://www.w3.org/1999/xlink" x="0px" y="0px"
	 width="21.304px" height="29.347px" viewBox="0 0 21.304 29.347" enable-background="new 0 0 21.304 29.347" xml:space="preserve">
<g>
	<g>
		<circle fill="#46616F" cx="10.804" cy="10.5" r="10.5"/>
		<g>
			<polygon fill="#FFFFFF" points="10.168,16.557 6.79,9.982 3.623,11.209 3.268,10.291 7.261,8.745 10.484,15.019 13.715,4.195 
				14.604,4.077 18.185,9.846 17.348,10.365 14.345,5.525 11.077,16.473 			"/>
			<g>
				<circle fill="#FFFFFF" cx="10.606" cy="16.331" r="0.984"/>
				<path fill="#25373E" d="M10.605,16.003c0.182,0,0.328,0.148,0.328,0.328c0,0.182-0.146,0.328-0.328,0.328
					c-0.181,0-0.328-0.146-0.328-0.328C10.277,16.151,10.425,16.003,10.605,16.003 M10.605,15.347c-0.543,0-0.983,0.441-0.983,0.984
					c0,0.544,0.44,0.984,0.983,0.984c0.544,0,0.984-0.44,0.984-0.984C11.59,15.788,11.149,15.347,10.605,15.347L10.605,15.347z"/>
			</g>
			<g>
				<circle fill="#FFFFFF" cx="14.187" cy="4.336" r="0.984"/>
				<path fill="#25373E" d="M14.187,4.008c0.181,0,0.328,0.147,0.328,0.328s-0.147,0.328-0.328,0.328
					c-0.182,0-0.328-0.147-0.328-0.328S14.005,4.008,14.187,4.008 M14.187,3.352c-0.544,0-0.984,0.441-0.984,0.984
					c0,0.544,0.44,0.984,0.984,0.984c0.543,0,0.984-0.44,0.984-0.984C15.171,3.793,14.729,3.352,14.187,3.352L14.187,3.352z"/>
			</g>
			<g>
				<circle fill="#FFFFFF" cx="7.025" cy="9.363" r="0.984"/>
				<path fill="#25373E" d="M7.025,9.035c0.181,0,0.328,0.147,0.328,0.328c0,0.182-0.147,0.328-0.328,0.328S6.697,9.545,6.697,9.363
					C6.697,9.183,6.845,9.035,7.025,9.035 M7.025,8.379c-0.543,0-0.984,0.441-0.984,0.984c0,0.544,0.441,0.984,0.984,0.984
					c0.544,0,0.984-0.44,0.984-0.984C8.01,8.82,7.569,8.379,7.025,8.379L7.025,8.379z"/>
			</g>
		</g>
	</g>
	<g>
		<path fill="#758B98" d="M0.738,25.333H0.036L0,25.206l1.548-1.728H1.62v1.143h1.17c0.023,0.103,0.036,0.217,0.036,0.343
			c0,0.065-0.003,0.129-0.009,0.188c-0.006,0.061-0.015,0.12-0.026,0.181H1.62v2.105c0,0.252,0.01,0.453,0.032,0.604
			c0.021,0.149,0.057,0.265,0.108,0.346c0.051,0.081,0.12,0.136,0.207,0.162c0.087,0.027,0.197,0.041,0.329,0.041
			c0.102,0,0.198-0.008,0.288-0.022c0.09-0.016,0.171-0.032,0.243-0.05c0.042,0.12,0.067,0.243,0.077,0.369
			c0.009,0.126,0.014,0.237,0.014,0.333c-0.12,0.029-0.246,0.053-0.378,0.067s-0.273,0.022-0.423,0.022
			c-0.432,0-0.77-0.104-1.012-0.315c-0.243-0.21-0.365-0.558-0.365-1.044V25.333z"/>
		<path fill="#758B98" d="M3.789,24.621c0.066-0.012,0.129-0.021,0.189-0.026s0.123-0.009,0.189-0.009s0.132,0.003,0.198,0.009
			c0.066,0.006,0.126,0.015,0.181,0.026c0.018,0.091,0.036,0.209,0.054,0.355c0.018,0.147,0.027,0.272,0.027,0.374
			c0.126-0.204,0.292-0.381,0.5-0.531c0.207-0.149,0.473-0.225,0.797-0.225c0.048,0,0.097,0.001,0.148,0.004
			c0.051,0.004,0.094,0.008,0.13,0.014c0.012,0.055,0.021,0.111,0.027,0.171c0.006,0.061,0.009,0.123,0.009,0.189
			c0,0.072-0.004,0.146-0.013,0.225s-0.02,0.153-0.032,0.226c-0.048-0.013-0.098-0.019-0.148-0.019s-0.091,0-0.121,0
			c-0.162,0-0.317,0.022-0.464,0.067s-0.279,0.125-0.396,0.239c-0.117,0.113-0.21,0.27-0.279,0.468
			c-0.069,0.198-0.104,0.453-0.104,0.765v2.295c-0.066,0.012-0.14,0.021-0.221,0.027s-0.154,0.009-0.221,0.009
			c-0.065,0-0.139-0.003-0.22-0.009S3.86,29.25,3.789,29.238V24.621z"/>
		<path fill="#758B98" d="M7.667,27.15c0.012,0.504,0.143,0.873,0.392,1.107c0.249,0.233,0.617,0.351,1.102,0.351
			c0.426,0,0.831-0.075,1.215-0.225c0.048,0.09,0.087,0.199,0.117,0.328c0.03,0.129,0.048,0.257,0.055,0.383
			c-0.198,0.084-0.416,0.146-0.653,0.188s-0.5,0.063-0.788,0.063c-0.42,0-0.78-0.059-1.08-0.176s-0.547-0.282-0.742-0.495
			c-0.195-0.213-0.338-0.465-0.428-0.756s-0.135-0.61-0.135-0.958c0-0.343,0.043-0.662,0.13-0.959c0.087-0.297,0.22-0.555,0.4-0.773
			c0.18-0.22,0.407-0.394,0.68-0.522s0.595-0.193,0.967-0.193c0.318,0,0.597,0.054,0.837,0.162c0.24,0.107,0.441,0.256,0.604,0.445
			c0.162,0.188,0.285,0.414,0.369,0.675s0.126,0.545,0.126,0.851c0,0.084-0.003,0.173-0.009,0.266
			c-0.006,0.093-0.012,0.173-0.018,0.238H7.667z M9.954,26.484c0-0.168-0.023-0.328-0.068-0.481s-0.111-0.286-0.198-0.4
			c-0.087-0.114-0.198-0.205-0.333-0.274s-0.295-0.104-0.481-0.104c-0.366,0-0.647,0.111-0.841,0.333
			c-0.195,0.222-0.313,0.531-0.355,0.927H9.954z"/>
		<path fill="#758B98" d="M12.005,24.621c0.066-0.012,0.13-0.021,0.194-0.026c0.062-0.006,0.127-0.009,0.193-0.009
			c0.065,0,0.127,0.003,0.185,0.009c0.057,0.006,0.118,0.015,0.185,0.026c0.018,0.091,0.036,0.212,0.054,0.365
			c0.018,0.152,0.027,0.28,0.027,0.382c0.06-0.102,0.136-0.203,0.23-0.306c0.093-0.102,0.199-0.193,0.319-0.274
			s0.258-0.147,0.414-0.198c0.155-0.051,0.326-0.076,0.513-0.076c0.527,0,0.918,0.151,1.17,0.454
			c0.252,0.304,0.378,0.752,0.378,1.346v2.925c-0.066,0.012-0.141,0.021-0.225,0.027s-0.159,0.009-0.226,0.009
			c-0.065,0-0.14-0.003-0.221-0.009c-0.08-0.006-0.154-0.016-0.22-0.027v-2.682c0-0.426-0.066-0.739-0.198-0.94
			s-0.342-0.302-0.63-0.302c-0.168,0-0.327,0.03-0.478,0.09c-0.149,0.061-0.281,0.153-0.396,0.279s-0.206,0.289-0.274,0.49
			c-0.069,0.201-0.104,0.442-0.104,0.725v2.34c-0.066,0.012-0.14,0.021-0.221,0.027s-0.154,0.009-0.221,0.009
			c-0.065,0-0.141-0.003-0.225-0.009s-0.159-0.016-0.225-0.027V24.621z"/>
		<path fill="#758B98" d="M20.168,22.642c0.066-0.012,0.142-0.021,0.226-0.027s0.155-0.009,0.216-0.009
			c0.065,0,0.14,0.003,0.221,0.009s0.154,0.016,0.22,0.027v6.471c-0.228,0.066-0.482,0.122-0.765,0.167s-0.597,0.067-0.945,0.067
			c-0.323,0-0.631-0.041-0.922-0.122s-0.545-0.214-0.761-0.4c-0.216-0.186-0.387-0.426-0.513-0.72s-0.189-0.657-0.189-1.089
			c0-0.372,0.056-0.711,0.167-1.018c0.11-0.306,0.268-0.568,0.472-0.787s0.449-0.389,0.734-0.509c0.284-0.119,0.601-0.18,0.949-0.18
			c0.156,0,0.313,0.012,0.473,0.036c0.158,0.024,0.298,0.054,0.418,0.09V22.642z M20.168,25.404
			c-0.12-0.048-0.249-0.084-0.387-0.107c-0.138-0.024-0.288-0.036-0.45-0.036c-0.246,0-0.459,0.045-0.639,0.135
			c-0.181,0.09-0.329,0.213-0.445,0.369c-0.117,0.156-0.204,0.341-0.262,0.554c-0.057,0.213-0.085,0.445-0.085,0.697
			c0.006,0.57,0.141,0.978,0.405,1.224c0.264,0.246,0.623,0.369,1.079,0.369c0.156,0,0.301-0.008,0.433-0.022
			s0.249-0.037,0.351-0.067V25.404z"/>
	</g>
</g>
</svg>
