<?xml version="1.0" encoding="utf-8"?>
<!-- Generator: Adobe Illustrator 16.0.4, SVG Export Plug-In . SVG Version: 6.00 Build 0)  -->
<!DOCTYPE svg PUBLIC "-//W3C//DTD SVG 1.1//EN" "http://www.w3.org/Graphics/SVG/1.1/DTD/svg11.dtd">
<svg version="1.1" id="Layer_1" xmlns="http://www.w3.org/2000/svg" xmlns:xlink="http://www.w3.org/1999/xlink" x="0px" y="0px"
	 width="21.304px" height="29.347px" viewBox="0 0 21.304 29.347" enable-background="new 0 0 21.304 29.347" xml:space="preserve">
<g>
	<g>
		<circle fill="#46616F" cx="10.652" cy="10.5" r="10.5"/>
		<g>
			<g>
				<path fill="#FFFFFF" d="M10.652,3.5c-2.85,0-5.159,2.312-5.159,5.159c0,2.85,5.159,8.841,5.159,8.841s5.16-5.991,5.16-8.841
					S13.5,3.5,10.652,3.5z"/>
				<circle fill="#46616F" cx="10.691" cy="8.499" r="3.815"/>
				<polygon fill="#FFFFFF" points="12.35,10.743 10.319,8.634 10.319,5.816 11.062,5.816 11.062,8.334 12.885,10.228 				"/>
			</g>
		</g>
	</g>
	<g>
		<path fill="#758B98" d="M2.754,24.621c0.066-0.012,0.131-0.021,0.193-0.026s0.127-0.009,0.193-0.009s0.127,0.003,0.186,0.009
			c0.057,0.006,0.117,0.015,0.184,0.026c0.018,0.091,0.036,0.212,0.055,0.365c0.018,0.152,0.026,0.28,0.026,0.382
			c0.06-0.102,0.136-0.203,0.229-0.306c0.094-0.102,0.199-0.193,0.32-0.274c0.119-0.081,0.258-0.147,0.414-0.198
			c0.155-0.051,0.326-0.076,0.512-0.076c0.528,0,0.918,0.151,1.17,0.454c0.252,0.304,0.379,0.752,0.379,1.346v2.926
			c-0.066,0.012-0.141,0.021-0.225,0.027s-0.16,0.008-0.226,0.008s-0.14-0.002-0.221-0.008s-0.155-0.016-0.22-0.027v-2.682
			c0-0.426-0.066-0.74-0.199-0.941c-0.131-0.201-0.342-0.302-0.629-0.302c-0.168,0-0.328,0.03-0.478,0.09
			c-0.149,0.061-0.282,0.153-0.396,0.279c-0.115,0.126-0.206,0.29-0.275,0.491c-0.068,0.201-0.104,0.441-0.104,0.725v2.34
			c-0.066,0.012-0.139,0.021-0.221,0.027c-0.08,0.006-0.154,0.008-0.221,0.008c-0.064,0-0.141-0.002-0.225-0.008
			s-0.158-0.016-0.225-0.027V24.621z"/>
		<path fill="#758B98" d="M9.829,29.347c-0.36,0-0.676-0.061-0.945-0.184s-0.494-0.293-0.676-0.51
			c-0.18-0.215-0.312-0.471-0.4-0.764c-0.086-0.295-0.13-0.613-0.13-0.955s0.044-0.66,0.13-0.953c0.088-0.295,0.221-0.55,0.4-0.766
			C8.389,25,8.614,24.828,8.883,24.702s0.585-0.188,0.945-0.188c0.359,0,0.675,0.062,0.945,0.188
			c0.27,0.126,0.494,0.298,0.674,0.514c0.181,0.216,0.314,0.471,0.4,0.766c0.088,0.293,0.131,0.611,0.131,0.953
			s-0.043,0.66-0.131,0.955c-0.086,0.293-0.22,0.549-0.4,0.764c-0.18,0.217-0.404,0.387-0.674,0.51
			C10.503,29.286,10.188,29.347,9.829,29.347z M9.829,28.636c0.414,0,0.72-0.15,0.918-0.449c0.197-0.301,0.297-0.717,0.297-1.252
			c0-0.533-0.1-0.949-0.297-1.246c-0.198-0.298-0.504-0.446-0.918-0.446s-0.719,0.148-0.914,0.446
			c-0.195,0.297-0.293,0.713-0.293,1.246c0,0.535,0.098,0.951,0.293,1.252C9.11,28.485,9.415,28.636,9.829,28.636z"/>
		<path fill="#758B98" d="M12.493,24.621c0.084-0.012,0.168-0.021,0.252-0.026s0.158-0.009,0.225-0.009
			c0.084,0,0.17,0.003,0.256,0.009c0.088,0.006,0.164,0.015,0.23,0.026l0.9,3.772l1.016-3.772c0.066-0.012,0.139-0.021,0.217-0.026
			s0.158-0.009,0.242-0.009c0.096,0.006,0.18,0.01,0.248,0.013c0.068,0.004,0.137,0.011,0.203,0.022l1.008,3.708l0.9-3.708
			c0.064-0.012,0.131-0.021,0.197-0.026s0.139-0.009,0.217-0.009c0.064,0,0.139,0.003,0.219,0.009
			c0.082,0.006,0.164,0.015,0.248,0.026l-1.377,4.618c-0.078,0.012-0.158,0.021-0.238,0.027s-0.154,0.008-0.221,0.008
			s-0.139-0.002-0.215-0.008c-0.078-0.006-0.156-0.016-0.234-0.027l-0.99-3.493l-1.036,3.493c-0.084,0.012-0.166,0.021-0.248,0.027
			c-0.08,0.006-0.154,0.008-0.221,0.008c-0.065,0-0.139-0.002-0.22-0.008s-0.155-0.016-0.221-0.027L12.493,24.621z"/>
	</g>
</g>
</svg>
