<svg id="a8ae5a2b-4448-4cc2-9c12-018518ff64d4" data-name="Layer 1" xmlns="http://www.w3.org/2000/svg" width="20" height="20" viewBox="0 0 20 20">
  <title>openInAlertsButtonUp</title>
  <g>
    <circle cx="10" cy="10" r="10" fill="#e1e6e4"/>
    <path d="M14.363,4.772H5.635A2.182,2.182,0,0,0,3.454,6.957v4.371a2.184,2.184,0,0,0,2.181,2.186H8.971L11.7,17.228l2.727-3.715h-.062a2.185,2.185,0,0,0,2.183-2.186V6.957A2.184,2.184,0,0,0,14.363,4.772ZM10,5.81a3.754,3.754,0,0,1,.6.045L10.517,9.6A3.132,3.132,0,0,1,10,9.643a3.051,3.051,0,0,1-.52-.045L9.406,5.856A3.718,3.718,0,0,1,10,5.81Zm.566,6a3.637,3.637,0,0,1-.559.045,3.564,3.564,0,0,1-.565-.045,3.417,3.417,0,0,1-.046-.559,3.521,3.521,0,0,1,.046-.565A3.282,3.282,0,0,1,10,10.639a3.418,3.418,0,0,1,.566.047,3.462,3.462,0,0,1,0,1.124Z" fill="#25373e"/>
  </g>
</svg>
