<svg id="2cb3f229-f761-4a93-ba7d-05cf63b5146a" data-name="8d091349-50cd-4312-a91b-c7f5621cc1ce" xmlns="http://www.w3.org/2000/svg" width="20" height="17.514" viewBox="0 0 20 17.514">
  <title>serviceCenterIcon</title>
  <g id="26452375-544d-469d-bd33-3c10aa4420ae" data-name="ff1ea9e3-2a1a-4c62-8b0a-8fb44aeba467">
    <path id="b769a84c-2051-4191-9c46-cf28823e7cf3" data-name="695e358d-ddf9-4b0b-a7b7-79ca6120e33e" d="M15.992,2.779,12.65,2.773A1.619,1.619,0,0,0,11.042,4.4h0V6.3h.993V4.518h.6V6.3h3.416V4.518h.587V6.3h.982V4.431A1.634,1.634,0,0,0,16,2.779h-.012Z" transform="translate(0 0)" fill="#fff"/>
    <path id="76f383a5-9c75-449f-83f5-859bf11173cd" data-name="879cd6ce-ab9a-4cf1-890a-e24aafda800b" d="M14.83,2.41a1.255,1.255,0,1,0-.494.1A1.255,1.255,0,0,0,14.83,2.41Z" transform="translate(0 0)" fill="#fff"/>
  </g>
  <g id="36960ae9-68f5-4fbf-ae03-03d7d7d82354" data-name="bb215d5c-e9a7-4ac3-80c8-9ece4a957169">
    <rect id="333bca05-59f5-4736-b0fd-16236264ced7" data-name="61124180-7370-4dda-9953-6eb010973492" y="6.713" width="2.079" height="1.45" fill="#fff"/>
    <rect id="cb571da6-bf76-4e81-9414-acd8b62527e2" data-name="37965b61-0837-49a4-84bc-6f351e22485f" x="10.337" y="6.713" width="9.663" height="1.45" fill="#fff"/>
  </g>
  <g id="c0f5fb61-9d28-482b-8afe-390509a22b96" data-name="31b4809a-921b-4c42-a021-e078d9037c20">
    <path id="12ffe8ea-6d44-4dd2-a5f3-3ae317600f93" data-name="59f742b0-ee9f-4b9a-8e19-bfe3708cbba9" d="M8.15,5.1h.663V9.354a.791.791,0,0,0,.048.281.537.537,0,0,0,1.015,0,.789.789,0,0,0,.047-.281V5.007A1.847,1.847,0,0,0,8.1,3.141H8.087L4.31,3.134a1.8,1.8,0,0,0-1.286.541,1.858,1.858,0,0,0-.531,1.307V9.355a.585.585,0,0,0,.456.626.555.555,0,0,0,.1.01.546.546,0,0,0,.3-.089.623.623,0,0,0,.26-.547V5.1H4.29V16.639a.8.8,0,0,0,1.6,0h0V9.946h.661v6.693a.8.8,0,1,0,1.593,0Z" transform="translate(0 0)" fill="#fff"/>
    <path id="87dd9dad-87c7-4b6b-870a-9f6f9e6f34b6" data-name="28a29328-0226-432c-ad19-626c137da01e" d="M6.774,2.724a1.418,1.418,0,1,0-.558.115A1.418,1.418,0,0,0,6.774,2.724Z" transform="translate(0 0)" fill="#fff"/>
  </g>
</svg>
