<?xml version="1.0" encoding="utf-8"?>
<!-- Generator: Adobe Illustrator 16.0.4, SVG Export Plug-In . SVG Version: 6.00 Build 0)  -->
<!DOCTYPE svg PUBLIC "-//W3C//DTD SVG 1.1//EN" "http://www.w3.org/Graphics/SVG/1.1/DTD/svg11.dtd">
<svg version="1.1" id="Layer_1" xmlns="http://www.w3.org/2000/svg" xmlns:xlink="http://www.w3.org/1999/xlink" x="0px" y="0px"
	 width="22px" height="22px" viewBox="0 0 22 22" enable-background="new 0 0 22 22" xml:space="preserve">
<rect opacity="0" fill="#FFFFFF" width="22" height="22"/>
<g>
	<g>
		<g id="XMLID_18_">
			<path fill="#25373E" d="M18.075,6.273l-2.343-2.34c-0.568-0.569-1.491-0.579-2.048-0.024c-0.001,0.001-0.001,0.001-0.001,0.002
				L13.683,3.91L5.14,12.438l-0.171,0.17L3.491,18.5l5.896-1.477l0.552-0.56l0,0l8.159-8.146l0,0c0-0.001,0-0.001,0-0.002
				C18.655,7.761,18.645,6.84,18.075,6.273z M5.573,13.202l3.224,3.217l-3.028,0.757l-0.943-0.992L5.573,13.202z"/>
		</g>
	</g>
</g>
</svg>
