<svg id="aa40c522-53da-4c71-96dd-c819793612e6" data-name="Layer 1" xmlns="http://www.w3.org/2000/svg" width="21" height="21" viewBox="0 0 21 21">
  <title>textured-space-stripes</title>
  <g opacity="0.4">
    <polygon points="0 0 0 0.354 0.354 0 0 0" fill="#25373e"/>
    <polygon points="2.646 0 0 2.646 0 3.354 3.354 0 2.646 0" fill="#25373e"/>
    <polygon points="5.646 0 0 5.646 0 6.354 6.353 0 5.646 0" fill="#25373e"/>
    <polygon points="8.646 0 0 8.646 0 9.354 9.354 0 8.646 0" fill="#25373e"/>
    <polygon points="11.646 0 0 11.646 0 12.354 12.354 0 11.646 0" fill="#25373e"/>
    <polygon points="14.646 0 0 14.646 0 15.354 15.354 0 14.646 0" fill="#25373e"/>
    <polygon points="17.646 0 0 17.646 0 18.353 18.353 0 17.646 0" fill="#25373e"/>
    <polygon points="21 0 20.646 0 0 20.646 0 21 0.354 21 21 0.354 21 0" fill="#25373e"/>
    <polygon points="21 2.646 2.646 21 3.354 21 21 3.354 21 2.646" fill="#25373e"/>
    <polygon points="21 5.646 5.646 21 6.354 21 21 6.354 21 5.646" fill="#25373e"/>
    <polygon points="21 8.646 8.646 21 9.354 21 21 9.354 21 8.646" fill="#25373e"/>
    <polygon points="21 11.646 11.646 21 12.354 21 21 12.354 21 11.646" fill="#25373e"/>
    <polygon points="21 14.646 14.646 21 15.354 21 21 15.354 21 14.646" fill="#25373e"/>
    <polygon points="21 17.646 17.646 21 18.354 21 21 18.354 21 17.646" fill="#25373e"/>
    <polygon points="21 20.646 20.646 21 21 21 21 20.646" fill="#25373e"/>
  </g>
</svg>
