<?xml version="1.0" encoding="utf-8"?>
<!-- Generator: Adobe Illustrator 16.0.4, SVG Export Plug-In . SVG Version: 6.00 Build 0)  -->
<!DOCTYPE svg PUBLIC "-//W3C//DTD SVG 1.1//EN" "http://www.w3.org/Graphics/SVG/1.1/DTD/svg11.dtd">
<svg version="1.1" id="Layer_1" xmlns="http://www.w3.org/2000/svg" xmlns:xlink="http://www.w3.org/1999/xlink" x="0px" y="0px"
	 width="28px" height="28px" viewBox="0 0 28 28" enable-background="new 0 0 28 28" xml:space="preserve">
<g>
	<defs>
		<circle id="SVGID_1_" cx="13.999" cy="13.997" r="14"/>
	</defs>
	<clipPath id="SVGID_2_">
		<use xlink:href="#SVGID_1_"  overflow="visible"/>
	</clipPath>
	<g clip-path="url(#SVGID_2_)">
		<g>
			<g>
				<path fill="#EEF2F0" d="M18.824,27.995c-0.875,0-1.751,0-2.626,0c-0.937-2.074-1.853-4.155-2.811-6.218
					c-0.743-1.6-1.576-3.158-2.291-4.771c-0.421-0.948-0.69-1.963-1.036-2.972C10,14.14,9.953,14.256,9.879,14.352
					c-0.37,0.486-0.655,1.105-1.138,1.425c-2.209,1.473-4.479,2.854-6.71,4.291c-0.215,0.141-0.388,0.429-0.464,0.684
					c-0.372,1.234-0.437,2.497-0.351,3.782c0.078,1.159,0.173,2.33-0.233,3.46c-0.328,0-0.656,0-0.984,0c0-9.331,0-18.661,0-28
					c9.327,0,18.653,0,28,0c0,9.327,0,18.664,0,28c-0.237,0-0.493,0-0.748,0c-0.118-0.59-0.244-1.176-0.354-1.766
					c-0.48-2.578-0.959-5.154-1.438-7.731c-0.13-0.699-0.496-1.155-1.193-1.418c-2.121-0.804-4.223-1.657-6.438-2.533
					c0.2,1.101,0.381,2.007,0.522,2.919c0.033,0.215-0.051,0.449-0.088,0.672c-0.047,0.293-0.166,0.59-0.143,0.875
					c0.115,1.36,0.299,2.715,0.404,4.077C18.652,24.723,18.729,26.359,18.824,27.995z"/>
				<g>
					<path fill="#1E2C32" d="M13.388,21.777c-0.743-1.6-1.576-3.158-2.291-4.771c-0.421-0.948-0.69-1.963-1.036-2.972
						c-0.003,0.006-0.007,0.012-0.01,0.018c-0.055,0.101-0.101,0.208-0.17,0.299c-0.37,0.486-0.655,1.105-1.138,1.425
						c-2.209,1.473-4.479,2.854-6.71,4.291c-0.215,0.141-0.388,0.429-0.464,0.684c-0.372,1.234-0.437,2.497-0.351,3.782
						c0.078,1.159,0.173,2.33-0.233,3.46c4.865,0,9.729,0,14.594,0c0.207,0,0.414,0,0.62,0
						C15.264,25.921,14.346,23.84,13.388,21.777z"/>
					<path fill="#1E2C32" d="M18.352,17.465c0.032,0.215-0.052,0.449-0.088,0.672c-0.048,0.293-0.168,0.59-0.144,0.875
						c0.116,1.36,0.299,2.715,0.405,4.077c0.127,1.632,0.201,3.271,0.299,4.905c0.471,0,0.941,0,1.412,0c2.339,0,4.677,0,7.016,0
						c-0.118-0.59-0.244-1.176-0.354-1.766c-0.481-2.578-0.959-5.154-1.438-7.731c-0.13-0.699-0.496-1.155-1.192-1.418
						c-2.119-0.804-4.219-1.655-6.433-2.53c-0.002-0.001-0.005-0.002-0.007-0.003C18.027,15.646,18.208,16.553,18.352,17.465z"/>
					<g>
						<path fill="#FFFFFF" d="M18.525,23.09c-0.106-1.361-0.289-2.717-0.405-4.076c-0.024-0.287,0.096-0.584,0.144-0.875
							c0.036-0.225,0.12-0.459,0.088-0.673c-0.144-0.911-0.322-1.817-0.523-2.919c0.002,0.001,0.005,0.002,0.007,0.003
							c-0.062-0.197-0.117-0.351-0.167-0.443c-0.12-0.222-0.488-0.395-0.995-0.532c0.015,0.034,0.015,0.066,0.03,0.101
							c0.127,0.28,0.176,0.594,0.281,0.885c0.371,1.012-0.213,1.793-0.647,2.596c-0.078,0.145-0.377,0.197-0.585,0.236
							c-0.533,0.101-0.771,1.993-0.752,2.683c-0.046-0.681-0.651-1.953-0.873-2.974c-0.139-0.636-0.744-1.049-1.149-1.371
							c-0.514-0.407-1.052-0.789-1.527-1.238c-0.322-0.305-0.563-0.698-0.817-1.067c-0.061-0.087-0.079-0.269-0.028-0.353v-0.001
							c0.006-0.01,0.008-0.02,0.014-0.031c-0.172,0.023-0.326,0.055-0.409,0.097c-0.244,0.124-0.16,0.92-0.16,0.92
							c0.003-0.006,0.007-0.012,0.01-0.018c0.346,1.008,0.615,2.023,1.036,2.972c0.715,1.612,1.548,3.171,2.291,4.771
							c0.958,2.062,1.875,4.144,2.811,6.218h2.626C18.729,26.359,18.652,24.723,18.525,23.09z"/>
						<path fill="#1E2C32" d="M10.604,13.069c-0.051,0.084-0.032,0.266,0.028,0.353c0.254,0.369,0.495,0.763,0.817,1.067
							c0.476,0.448,1.014,0.831,1.527,1.239c0.405,0.321,1.011,0.734,1.149,1.371c0.222,1.02,0.827,2.291,0.873,2.973
							c-0.02-0.689,0.219-2.582,0.752-2.682c0.208-0.039,0.507-0.094,0.585-0.238c0.437-0.803,1.021-1.582,0.647-2.594
							c-0.105-0.292-0.154-0.604-0.281-0.886c-0.016-0.034-0.018-0.066-0.03-0.101c-0.272-0.69-0.124-1.339,0.14-2.008
							c0.203-0.519,0.299-1.077,0.457-1.613c0.055-0.183,0.11-0.389,0.233-0.522c0.742-0.807,0.69-1.753,0.501-2.723
							c-0.021-0.114-0.113-0.251-0.212-0.307c-0.381-0.213-0.399-0.568-0.435-0.938c-0.107-1.14-0.32-2.222-1.271-3.035
							c-0.65-0.555-1.389-0.85-2.191-1.047c-1.682-0.414-3.423,0.322-4.339,1.792C8.862,4.284,8.763,5.453,9.101,6.688
							C9.207,7.077,9.347,7.452,8.9,7.758c-0.106,0.073-0.131,0.34-0.111,0.508c0.095,0.816,0.368,1.556,1.02,2.105
							c0.149,0.125,0.417,0.184,0.476,0.334c0.29,0.746,0.835,1.469,0.336,2.332C10.613,13.048,10.611,13.058,10.604,13.069
							C10.605,13.068,10.604,13.068,10.604,13.069z"/>
					</g>
				</g>
			</g>
		</g>
	</g>
</g>
</svg>
