<svg id="46aebba6-dd93-409e-a2fe-370f485a155d" data-name="Layer 1" xmlns="http://www.w3.org/2000/svg" width="28" height="28" viewBox="0 0 28 28">
  <title>topMenuRefreshIconUpdateAvailable</title>
  <g>
    <circle cx="14" cy="14" r="14" fill="#25373e" fill-opacity="0"/>
    <path d="M14,6a8,8,0,1,0,8,8A8,8,0,0,0,14,6Zm.569,13.228c-.166.015-.33.022-.493.022a5.305,5.305,0,0,1-5.3-4.769,5.165,5.165,0,0,1,1.184-3.807,5.382,5.382,0,0,1,7.869-.407l1.25-1.25v4.156H14.919l1.848-1.847a3.886,3.886,0,0,0-5.656.307,3.674,3.674,0,0,0-.844,2.708,3.846,3.846,0,0,0,7.511.642l1.445.4A5.339,5.339,0,0,1,14.569,19.228Z" fill="#ffbc00"/>
  </g>
</svg>
