<?xml version="1.0" encoding="utf-8"?>
<!-- Generator: Adobe Illustrator 16.0.4, SVG Export Plug-In . SVG Version: 6.00 Build 0)  -->
<!DOCTYPE svg PUBLIC "-//W3C//DTD SVG 1.1//EN" "http://www.w3.org/Graphics/SVG/1.1/DTD/svg11.dtd">
<svg version="1.1" id="Layer_1" xmlns="http://www.w3.org/2000/svg" xmlns:xlink="http://www.w3.org/1999/xlink" x="0px" y="0px"
	 width="28px" height="28px" viewBox="0 0 28 28" enable-background="new 0 0 28 28" xml:space="preserve">
<g>
	<circle opacity="0" fill="#25373E" cx="14" cy="14" r="14"/>
	<g>
		<path fill="none" d="M13.76,17.256c-0.384,0-0.774,0.032-1.168,0.096c-0.064,0.406-0.096,0.801-0.096,1.185
			s0.032,0.772,0.096,1.168c0.395,0.063,0.79,0.096,1.184,0.096c0.374,0,0.763-0.032,1.167-0.096
			c0.064-0.396,0.097-0.789,0.097-1.185c0-0.373-0.032-0.762-0.097-1.168C14.539,17.288,14.144,17.256,13.76,17.256z"/>
		<path fill="none" d="M16.384,9.072C15.732,8.491,14.768,8.2,13.488,8.2c-0.256,0-0.496,0.008-0.72,0.024S12.32,8.27,12.096,8.312
			c-0.224,0.043-0.454,0.099-0.688,0.168c-0.235,0.07-0.491,0.152-0.768,0.248c0.021,0.32,0.08,0.63,0.176,0.928
			c0.096,0.299,0.219,0.587,0.368,0.864c0.17-0.064,0.333-0.12,0.488-0.168c0.155-0.048,0.307-0.09,0.456-0.128
			c0.149-0.037,0.312-0.064,0.488-0.08c0.176-0.016,0.376-0.024,0.6-0.024c0.544,0,0.981,0.12,1.312,0.36
			c0.332,0.24,0.496,0.59,0.496,1.048c0,0.31-0.071,0.568-0.215,0.776c-0.145,0.208-0.329,0.381-0.553,0.52
			c-0.224,0.139-0.469,0.248-0.736,0.328c-0.267,0.08-0.523,0.142-0.768,0.184v2.752c0.32,0.064,0.656,0.096,1.008,0.096
			c0.341,0,0.698-0.031,1.072-0.096v-1.456c0.182-0.075,0.416-0.189,0.704-0.344c0.288-0.154,0.567-0.357,0.84-0.608
			c0.272-0.25,0.504-0.557,0.696-0.92c0.191-0.362,0.287-0.794,0.287-1.296C17.359,10.451,17.035,9.654,16.384,9.072z"/>
		<g>
			<path fill="none" d="M16.384,9.072C15.732,8.491,14.768,8.2,13.488,8.2c-0.256,0-0.496,0.008-0.72,0.024S12.32,8.27,12.096,8.312
				c-0.224,0.043-0.454,0.099-0.688,0.168c-0.235,0.07-0.491,0.152-0.768,0.248c0.021,0.32,0.08,0.63,0.176,0.928
				c0.096,0.299,0.219,0.587,0.368,0.864c0.17-0.064,0.333-0.12,0.488-0.168c0.155-0.048,0.307-0.09,0.456-0.128
				c0.149-0.037,0.312-0.064,0.488-0.08c0.176-0.016,0.376-0.024,0.6-0.024c0.544,0,0.981,0.12,1.312,0.36
				c0.332,0.24,0.496,0.59,0.496,1.048c0,0.31-0.071,0.568-0.215,0.776c-0.145,0.208-0.329,0.381-0.553,0.52
				c-0.224,0.139-0.469,0.248-0.736,0.328c-0.267,0.08-0.523,0.142-0.768,0.184v2.752c0.32,0.064,0.656,0.096,1.008,0.096
				c0.341,0,0.698-0.031,1.072-0.096v-1.456c0.182-0.075,0.416-0.189,0.704-0.344c0.288-0.154,0.567-0.357,0.84-0.608
				c0.272-0.25,0.504-0.557,0.696-0.92c0.191-0.362,0.287-0.794,0.287-1.296C17.359,10.451,17.035,9.654,16.384,9.072z"/>
			<path fill="none" d="M13.76,17.256c-0.384,0-0.774,0.032-1.168,0.096c-0.064,0.406-0.096,0.801-0.096,1.185
				s0.032,0.772,0.096,1.168c0.395,0.063,0.79,0.096,1.184,0.096c0.374,0,0.763-0.032,1.167-0.096
				c0.064-0.396,0.097-0.789,0.097-1.185c0-0.373-0.032-0.762-0.097-1.168C14.539,17.288,14.144,17.256,13.76,17.256z"/>
			<g>
				<path fill="none" d="M13.76,17.256c-0.384,0-0.774,0.032-1.168,0.096c-0.064,0.406-0.096,0.801-0.096,1.185
					s0.032,0.772,0.096,1.168c0.395,0.063,0.79,0.096,1.184,0.096c0.374,0,0.763-0.032,1.167-0.096
					c0.064-0.396,0.097-0.789,0.097-1.185c0-0.373-0.032-0.762-0.097-1.168C14.539,17.288,14.144,17.256,13.76,17.256z"/>
				<path fill="none" d="M16.384,9.072C15.732,8.491,14.768,8.2,13.488,8.2c-0.256,0-0.496,0.008-0.72,0.024
					S12.32,8.27,12.096,8.312c-0.224,0.043-0.454,0.099-0.688,0.168c-0.235,0.07-0.491,0.152-0.768,0.248
					c0.021,0.32,0.08,0.63,0.176,0.928c0.096,0.299,0.219,0.587,0.368,0.864c0.17-0.064,0.333-0.12,0.488-0.168
					c0.155-0.048,0.307-0.09,0.456-0.128c0.149-0.037,0.312-0.064,0.488-0.08c0.176-0.016,0.376-0.024,0.6-0.024
					c0.544,0,0.981,0.12,1.312,0.36c0.332,0.24,0.496,0.59,0.496,1.048c0,0.31-0.071,0.568-0.215,0.776
					c-0.145,0.208-0.329,0.381-0.553,0.52c-0.224,0.139-0.469,0.248-0.736,0.328c-0.267,0.08-0.523,0.142-0.768,0.184v2.752
					c0.32,0.064,0.656,0.096,1.008,0.096c0.341,0,0.698-0.031,1.072-0.096v-1.456c0.182-0.075,0.416-0.189,0.704-0.344
					c0.288-0.154,0.567-0.357,0.84-0.608c0.272-0.25,0.504-0.557,0.696-0.92c0.191-0.362,0.287-0.794,0.287-1.296
					C17.359,10.451,17.035,9.654,16.384,9.072z"/>
				<path fill="#FFFFFF" d="M13.999,6C9.582,6,6,9.582,6,14s3.582,8,7.999,8C18.418,22,22,18.418,22,14S18.418,6,13.999,6z
					 M14.943,19.704c-0.404,0.063-0.793,0.096-1.167,0.096c-0.395,0-0.79-0.032-1.184-0.096c-0.064-0.396-0.096-0.784-0.096-1.168
					s0.032-0.778,0.096-1.185c0.395-0.063,0.784-0.096,1.168-0.096c0.384,0,0.778,0.032,1.184,0.096
					c0.064,0.406,0.097,0.795,0.097,1.168C15.04,18.915,15.008,19.311,14.943,19.704z M17.072,12.76
					c-0.192,0.363-0.424,0.669-0.696,0.92s-0.552,0.454-0.84,0.608c-0.288,0.155-0.522,0.271-0.704,0.344v1.456
					c-0.374,0.064-0.731,0.096-1.072,0.096c-0.352,0-0.688-0.031-1.008-0.096v-2.752c0.245-0.042,0.501-0.104,0.768-0.184
					c0.267-0.08,0.512-0.189,0.736-0.328c0.224-0.139,0.408-0.312,0.553-0.52c0.144-0.208,0.215-0.466,0.215-0.776
					c0-0.458-0.166-0.808-0.496-1.048c-0.331-0.24-0.768-0.36-1.312-0.36c-0.224,0-0.424,0.008-0.6,0.024
					c-0.176,0.016-0.339,0.043-0.488,0.08c-0.149,0.038-0.301,0.08-0.456,0.128c-0.155,0.048-0.317,0.104-0.488,0.168
					c-0.149-0.277-0.272-0.565-0.368-0.864c-0.096-0.298-0.155-0.608-0.176-0.928c0.277-0.096,0.533-0.178,0.768-0.248
					c0.234-0.069,0.464-0.125,0.688-0.168c0.224-0.042,0.448-0.072,0.672-0.088S13.232,8.2,13.488,8.2
					c1.28,0,2.247,0.291,2.896,0.872c0.651,0.582,0.976,1.379,0.976,2.392C17.359,11.966,17.264,12.398,17.072,12.76z"/>
			</g>
		</g>
	</g>
</g>
</svg>
