<?xml version="1.0" encoding="utf-8"?>
<!-- Generator: Adobe Illustrator 16.0.4, SVG Export Plug-In . SVG Version: 6.00 Build 0)  -->
<!DOCTYPE svg PUBLIC "-//W3C//DTD SVG 1.1//EN" "http://www.w3.org/Graphics/SVG/1.1/DTD/svg11.dtd">
<svg version="1.1" id="Layer_1" xmlns="http://www.w3.org/2000/svg" xmlns:xlink="http://www.w3.org/1999/xlink" x="0px" y="0px"
	 width="28px" height="28px" viewBox="0 0 28 28" enable-background="new 0 0 28 28" xml:space="preserve">
<g>
	<circle fill="#1E2C32" cx="14" cy="14" r="14"/>
	<g>
		<path fill="#FFFFFF" d="M14,6c-4.418,0-8,3.582-8,8s3.582,8,8,8s8-3.582,8-8S18.418,6,14,6z M14.569,19.228
			c-0.166,0.015-0.33,0.022-0.493,0.022c-2.721,0-5.05-2.049-5.303-4.769c-0.129-1.381,0.291-2.733,1.184-3.807
			c0.913-1.097,2.206-1.773,3.64-1.902c1.572-0.147,3.113,0.41,4.229,1.495l1.25-1.25v4.156h-4.157l1.848-1.847
			c-0.802-0.771-1.907-1.167-3.033-1.06c-1.036,0.093-1.967,0.579-2.623,1.367c-0.636,0.765-0.936,1.727-0.844,2.708
			c0.192,2.062,2.068,3.582,4.168,3.391c1.581-0.143,2.924-1.247,3.343-2.749l1.445,0.404
			C18.637,17.486,16.767,19.029,14.569,19.228z"/>
	</g>
</g>
</svg>
