<?xml version="1.0" encoding="utf-8"?>
<!-- Generator: Adobe Illustrator 16.0.4, SVG Export Plug-In . SVG Version: 6.00 Build 0)  -->
<!DOCTYPE svg PUBLIC "-//W3C//DTD SVG 1.1//EN" "http://www.w3.org/Graphics/SVG/1.1/DTD/svg11.dtd">
<svg version="1.1" id="Layer_1" xmlns="http://www.w3.org/2000/svg" xmlns:xlink="http://www.w3.org/1999/xlink" x="0px" y="0px"
	 width="27.999px" height="28px" viewBox="0 0 27.999 28" enable-background="new 0 0 27.999 28" xml:space="preserve">
<g>
	<circle fill="#FFFFFF" cx="14" cy="14" r="14"/>
	<g>
		<path fill="#E1E6E4" d="M14.137,23.375c-4.86,0-9.019-3.66-9.471-8.516c-0.231-2.466,0.52-4.88,2.113-6.797
			c1.629-1.959,3.937-3.166,6.499-3.397c3.167-0.288,6.251,0.995,8.261,3.434l-2.314,1.908c-1.379-1.673-3.501-2.552-5.675-2.354
			c-1.763,0.16-3.347,0.986-4.463,2.328c-1.08,1.299-1.589,2.933-1.433,4.6c0.326,3.504,3.502,6.091,7.091,5.768
			c2.688-0.243,4.973-2.122,5.687-4.675l2.89,0.808c-1.048,3.747-4.386,6.501-8.308,6.855
			C14.719,23.362,14.426,23.375,14.137,23.375z"/>
	</g>
	<polygon fill="#E1E6E4" points="22.881,5.28 22.881,12.554 15.606,12.554 	"/>
</g>
</svg>
