<svg id="3d790714-47fc-48eb-8941-f6a8a859d1f3" data-name="Layer 1" xmlns="http://www.w3.org/2000/svg" width="19.998" height="17" viewBox="0 0 19.998 17">
  <title>truckrollsIcon</title>
  <path d="M0,2.659V14.251a1.155,1.155,0,0,0,1.154,1.158H2.02a3.077,3.077,0,1,0,6.153,0h3.366a3.077,3.077,0,1,0,6.153,0h1.154A1.156,1.156,0,0,0,20,14.251v-5.8a1.931,1.931,0,0,0-.563-1.366l-2.4-2.415a1.924,1.924,0,0,0-1.361-.565H13.848V2.659A1.158,1.158,0,0,0,12.693,1.5H1.155A1.157,1.157,0,0,0,0,2.659ZM18.079,9.228H13.848V6.04h1.825l2.406,2.415Zm-4.618,6.181a1.2,1.2,0,0,1,.054-.346,1.18,1.18,0,0,1,.279-.467,1.158,1.158,0,1,1-.333.813Zm-9.519,0A1.154,1.154,0,1,1,5.1,16.568,1.158,1.158,0,0,1,3.942,15.409Z" transform="translate(-0.001 -1.5)" fill="#fff"/>
</svg>
