<?xml version="1.0" encoding="utf-8"?>
<!-- Generator: Adobe Illustrator 16.0.4, SVG Export Plug-In . SVG Version: 6.00 Build 0)  -->
<!DOCTYPE svg PUBLIC "-//W3C//DTD SVG 1.1//EN" "http://www.w3.org/Graphics/SVG/1.1/DTD/svg11.dtd">
<svg version="1.1" id="Layer_1" xmlns="http://www.w3.org/2000/svg" xmlns:xlink="http://www.w3.org/1999/xlink" x="0px" y="0px"
	 width="32px" height="20px" viewBox="0 0 32 20" enable-background="new 0 0 32 20" xml:space="preserve">
<path fill="#25373E" d="M15.5,6.399V3.024c-1.799,0.116-3.364,0.855-4.619,2.201c-0.333,0.356-0.621,0.739-0.865,1.14l3,1.541
	C13.585,7.097,14.475,6.541,15.5,6.399z"/>
<path fill="#25373E" d="M12.349,10c0-0.423,0.086-0.823,0.218-1.201L9.566,7.258c-1.053,2.472-0.612,5.407,1.278,7.466l2.325-2.458
	C12.665,11.643,12.349,10.864,12.349,10z"/>
<path fill="#25373E" d="M16.5,3.025v3.374c1.776,0.246,3.148,1.755,3.148,3.601c0,2.016-1.635,3.648-3.648,3.648
	c-0.791,0-1.511-0.266-2.106-0.694l-2.324,2.457C12.845,16.476,14.298,17,16,17c3.866,0,7-3.136,7-7
	C23,6.303,20.132,3.283,16.5,3.025z"/>
</svg>
