<svg id="8f9a76f2-059b-49bd-aae9-9092ed474165" data-name="Layer 1" xmlns="http://www.w3.org/2000/svg" width="32" height="20" viewBox="0 0 32 20">
  <title>visTypeButconTree</title>
  <rect width="32" height="20" fill="#e1e6e4" fill-opacity="0"/>
  <g>
    <rect x="8.25" y="2.513" width="1" height="10" fill="#46616f"/>
    <rect x="8.25" y="3.513" width="8" height="1" fill="#46616f"/>
    <rect x="8.25" y="11.513" width="8" height="1" fill="#46616f"/>
    <circle cx="16" cy="4.013" r="1.5" fill="#46616f"/>
    <circle cx="8.75" cy="4.013" r="1.5" fill="#46616f"/>
    <rect x="15.5" y="3.513" width="1" height="5" fill="#46616f"/>
    <rect x="15.75" y="3.513" width="7.5" height="1" fill="#46616f"/>
    <rect x="15.75" y="7.513" width="7.5" height="1" fill="#46616f"/>
    <circle cx="23.25" cy="8.013" r="1.5" fill="#46616f"/>
    <circle cx="23.25" cy="4.013" r="1.5" fill="#46616f"/>
    <circle cx="16" cy="11.987" r="1.5" fill="#46616f"/>
    <rect x="15.5" y="11.487" width="1" height="5" fill="#46616f"/>
    <rect x="15.75" y="11.487" width="7.5" height="1" fill="#46616f"/>
    <rect x="15.75" y="15.487" width="7.5" height="1" fill="#46616f"/>
    <circle cx="23.25" cy="15.987" r="1.5" fill="#46616f"/>
    <circle cx="23.25" cy="11.987" r="1.5" fill="#46616f"/>
  </g>
</svg>
