<svg id="a8423c5d-25af-407d-8f01-d392aed89b92" data-name="Layer 1" xmlns="http://www.w3.org/2000/svg" width="32" height="20" viewBox="0 0 32 20">
  <title>visTypeButconTreeActive</title>
  <rect width="32" height="20" fill="#e1e6e4" fill-opacity="0"/>
  <g>
    <rect x="8.25" y="2.513" width="1" height="10" fill="#25373e"/>
    <rect x="8.25" y="3.513" width="8" height="1" fill="#25373e"/>
    <rect x="8.25" y="11.513" width="8" height="1" fill="#25373e"/>
    <circle cx="16" cy="4.013" r="1.5" fill="#25373e"/>
    <circle cx="8.75" cy="4.013" r="1.5" fill="#25373e"/>
    <rect x="15.5" y="3.513" width="1" height="5" fill="#25373e"/>
    <rect x="15.75" y="3.513" width="7.5" height="1" fill="#25373e"/>
    <rect x="15.75" y="7.513" width="7.5" height="1" fill="#25373e"/>
    <circle cx="23.25" cy="8.013" r="1.5" fill="#25373e"/>
    <circle cx="23.25" cy="4.013" r="1.5" fill="#25373e"/>
    <circle cx="16" cy="11.987" r="1.5" fill="#25373e"/>
    <rect x="15.5" y="11.487" width="1" height="5" fill="#25373e"/>
    <rect x="15.75" y="11.487" width="7.5" height="1" fill="#25373e"/>
    <rect x="15.75" y="15.487" width="7.5" height="1" fill="#25373e"/>
    <circle cx="23.25" cy="15.987" r="1.5" fill="#25373e"/>
    <circle cx="23.25" cy="11.987" r="1.5" fill="#25373e"/>
  </g>
</svg>
